# Blender v2.80 (sub 75) OBJ File: 'areana two.blend'
# www.blender.org
mtllib floor.mtl
o Cube
v -4.000000 -0.250000 4.000000
v -4.000000 0.250000 4.000000
v -4.000000 -0.250000 -4.000000
v -4.000000 0.250000 -4.000000
v 4.000000 -0.250000 4.000000
v 4.000000 0.250000 4.000000
v 4.000000 -0.250000 -4.000000
v 4.000000 0.250000 -4.000000
vt 0.033689 0.648587
vt 0.014078 0.962369
vt 0.014078 0.648587
vt 0.033689 0.962369
vt 0.347471 0.981980
vt 0.033689 0.981980
vt 0.347471 0.962369
vt 0.367083 0.648587
vt 0.367083 0.962369
vt 0.347471 0.648587
vt 0.033689 0.628976
vt 0.347471 0.628976
vn -1.0000 0.0000 0.0000
vn 0.0000 0.0000 -1.0000
vn 1.0000 0.0000 0.0000
vn 0.0000 0.0000 1.0000
vn 0.0000 1.0000 0.0000
usemtl room2
s off
f 2/1/1 3/2/1 1/3/1
f 4/4/2 7/5/2 3/6/2
f 8/7/3 5/8/3 7/9/3
f 6/10/4 1/11/4 5/12/4
f 4/4/5 6/10/5 8/7/5
f 2/1/1 4/4/1 3/2/1
f 4/4/2 8/7/2 7/5/2
f 8/7/3 6/10/3 5/8/3
f 6/10/4 2/1/4 1/11/4
f 4/4/5 2/1/5 6/10/5
