# Blender v2.80 (sub 75) OBJ File: 'Lamp_Corner.blend'
# www.blender.org
mtllib Lamp_Corner.mtl
o Plane.001
v -0.100000 5.000000 0.100000
v -0.100000 5.000000 -0.100000
v -0.100000 4.755000 -0.100000
v -0.100000 4.755000 0.100000
v -1.999629 5.000000 -0.100000
v -1.999629 5.000000 0.100000
v -1.999629 4.939368 -0.100000
v -1.999629 4.939368 0.100000
v -0.100000 5.000000 0.080000
v -0.100000 4.755000 0.080000
v -1.999629 5.000000 0.080000
v -1.999629 4.939368 0.080000
v -0.100000 4.755000 -0.082000
v -1.999629 4.939368 -0.082000
v -0.100000 5.000000 -0.082000
v -1.999629 5.000000 -0.082000
v -1.714684 4.911713 -0.100000
v -1.714684 5.000000 -0.100000
v -1.714684 5.000000 0.100000
v -1.714684 4.911713 0.100000
v -1.714684 4.911713 0.080000
v -1.714684 5.000000 0.080000
v -1.714684 4.911713 -0.082000
v -1.714684 5.000000 -0.082000
v -1.985381 4.937985 -0.100000
v -1.985381 5.000000 0.100000
v -1.985381 4.937985 0.080000
v -1.985381 5.000000 0.080000
v -1.985381 4.937985 -0.082000
v -1.985381 5.000000 -0.082000
v -1.985381 5.000000 -0.100000
v -1.985381 4.937985 0.100000
v -1.714684 4.930678 0.080000
v -1.714684 4.930678 -0.082000
v -1.985381 4.956951 0.080000
v -1.985381 4.956951 -0.082000
v -0.500000 0.000000 0.500000
v 0.500000 0.000000 0.500000
v -0.500000 0.000000 -0.500000
v 0.500000 0.000000 -0.500000
v -0.500000 0.100000 0.500000
v 0.500000 0.100000 0.500000
v -0.500000 0.100000 -0.500000
v 0.500000 0.100000 -0.500000
v -0.100000 0.100000 0.100000
v 0.100000 0.100000 0.100000
v -0.100000 0.100000 -0.100000
v 0.100000 0.100000 -0.100000
v -0.100000 5.000000 0.100000
v 0.100000 5.000000 0.100000
v -0.100000 5.000000 -0.100000
v 0.100000 5.000000 -0.100000
v -0.100000 4.755000 -0.100000
v 0.100000 4.755000 -0.100000
v 0.100000 4.755000 0.100000
v -0.100000 4.755000 0.100000
v -0.500000 0.000000 0.400000
v 0.500000 0.000000 0.400000
v -0.500000 0.100000 0.400000
v 0.500000 0.100000 0.400000
v -0.100000 0.100000 0.080000
v 0.100000 0.100000 0.080000
v -0.100000 5.000000 0.080000
v 0.100000 5.000000 0.080000
v -0.100000 4.755000 0.080000
v 0.100000 4.755000 0.080000
v 0.500000 0.000000 -0.410000
v 0.500000 0.100000 -0.410000
v 0.100000 0.100000 -0.082000
v 0.100000 5.000000 -0.082000
v -0.100000 4.755000 -0.082000
v -0.500000 0.000000 -0.410000
v -0.500000 0.100000 -0.410000
v -0.100000 0.100000 -0.082000
v -0.100000 5.000000 -0.082000
v 0.100000 4.755000 -0.082000
v 0.500000 0.000000 -0.410000
v 0.500000 0.000000 0.400000
v 0.100000 5.000000 0.100000
v -0.100000 5.000000 0.100000
v -0.100000 4.755000 0.100000
v 0.100000 4.755000 0.100000
v -0.100000 5.000000 1.999629
v 0.100000 5.000000 1.999629
v -0.100000 4.939368 1.999629
v 0.100000 4.939368 1.999629
v 0.080000 5.000000 0.100000
v 0.080000 4.755000 0.100000
v 0.080000 5.000000 1.999629
v 0.080000 4.939368 1.999629
v -0.082000 4.755000 0.100000
v -0.082000 4.939368 1.999629
v -0.082000 5.000000 0.100000
v -0.082000 5.000000 1.999629
v -0.100000 4.911713 1.714684
v -0.100000 5.000000 1.714684
v 0.100000 5.000000 1.714684
v 0.100000 4.911713 1.714684
v 0.080000 4.911713 1.714684
v 0.080000 5.000000 1.714684
v -0.082000 4.911713 1.714684
v -0.082000 5.000000 1.714684
v -0.100000 4.937985 1.985381
v 0.100000 5.000000 1.985381
v 0.080000 4.937985 1.985381
v 0.080000 5.000000 1.985381
v -0.082000 4.937985 1.985381
v -0.082000 5.000000 1.985381
v -0.100000 5.000000 1.985381
v 0.100000 4.937985 1.985381
v 0.080000 4.930678 1.714684
v -0.082000 4.930678 1.714684
v 0.080000 4.956951 1.985381
v -0.082000 4.956951 1.985381
vt 0.932979 0.737415
vt 0.932920 0.737427
vt 0.932968 0.737407
vt 0.932996 0.737176
vt 0.932993 0.737176
vt 0.932982 0.737172
vt 0.932993 0.737179
vt 0.932998 0.737187
vt 0.932973 0.737387
vt 0.933014 0.737393
vt 0.932994 0.737165
vt 0.932889 0.737399
vt 0.932842 0.737417
vt 0.932989 0.737172
vt 0.932994 0.737178
vt 0.932895 0.737443
vt 0.938041 0.734091
vt 0.933392 0.737009
vt 0.938211 0.743968
vt 0.931955 0.711325
vt 0.931922 0.736925
vt 0.937029 0.703853
vt 0.933012 0.737091
vt 0.935692 0.744786
vt 0.928702 0.722549
vt 0.931457 0.736731
vt 0.925354 0.733929
vt 0.932644 0.736691
vt 0.938516 0.723157
vt 0.933513 0.737213
vt 0.932691 0.737181
vt 0.933541 0.737072
vt 0.933457 0.737107
vt 0.932456 0.736945
vt 0.932919 0.737001
vt 0.932605 0.736625
vt 0.932090 0.736800
vt 0.931749 0.736747
vt 0.932685 0.736908
vt 0.932939 0.737452
vt 0.461918 0.355106
vt 0.505387 0.381090
vt 0.461918 0.381090
vt 0.932269 0.736808
vt 0.932775 0.737422
vt 0.933019 0.737150
vt 0.932563 0.736591
vt 0.933029 0.737137
vt 0.438285 0.188389
vt 0.648766 0.101902
vt 0.451970 0.206140
vt 0.657554 0.097827
vt 0.770394 0.165907
vt 0.770951 0.170633
vt 0.641176 0.086365
vt 0.649206 0.101795
vt 0.638477 0.316544
vt 0.619577 0.329500
vt 0.621955 0.316073
vt 0.647373 0.071035
vt 0.661247 0.215923
vt 0.644859 0.324612
vt 0.935436 0.699500
vt 0.917753 0.748699
vt 0.914391 0.725431
vt 0.672347 0.331093
vt 0.780736 0.240585
vt 0.786234 0.241881
vt 0.919740 0.035848
vt 0.665221 0.215610
vt 0.911196 0.756019
vt 0.943206 0.726120
vt 0.938387 0.735159
vt 0.917812 0.777071
vt 0.939425 0.750935
vt 0.917812 0.777071
vt 0.947071 0.659019
vt 0.927505 0.722334
vt 0.948803 0.658952
vt 0.947999 0.657675
vt 0.911108 0.738470
vt 0.949577 0.659575
vt 0.949484 0.659837
vt 0.918146 0.734344
vt 0.950102 0.657988
vt 0.946591 0.658385
vt 0.905750 0.746474
vt 0.931551 0.709210
vt 0.948480 0.658040
vt 0.896200 0.803207
vt 0.942893 0.758164
vt 0.830764 0.252380
vt 0.895001 0.383591
vt 0.443287 0.215422
vt 0.658632 0.205095
vt 0.666226 0.205288
vt 0.748279 0.204473
vt 0.427725 0.196779
vt 0.835712 0.253547
vt 0.919740 0.389424
vt 0.938866 0.693545
vt 0.950255 0.657414
vt 0.898568 0.752312
vt 0.901450 0.798076
vt 0.750341 0.201676
vt 0.658355 0.205138
vt 0.895447 0.810897
vt 0.087724 0.744017
vt 0.076883 0.748050
vt 0.084996 0.742718
vt 0.091894 0.661171
vt 0.095813 0.673554
vt 0.085310 0.669228
vt 0.100790 0.668543
vt 0.099332 0.657414
vt 0.084751 0.738322
vt 0.089273 0.738708
vt 0.853447 0.697942
vt 0.853574 0.697014
vt 0.853969 0.697386
vt 0.857808 0.692518
vt 0.858204 0.692891
vt 0.100292 0.674771
vt 0.097802 0.668836
vt 0.073470 0.738972
vt 0.858278 0.692018
vt 0.858674 0.692391
vt 0.882690 0.879183
vt 0.208956 0.691880
vt 0.894765 0.810414
vt 0.910524 0.741912
vt 0.866057 0.699371
vt 0.915761 0.736700
vt 0.210098 0.683444
vt 0.896419 0.801937
vt 0.906936 0.745772
vt 0.865641 0.699924
vt 0.905830 0.747275
vt 0.861491 0.704470
vt 0.881338 0.886836
vt 0.197395 0.758924
vt 0.212695 0.664889
vt 0.192201 0.784812
vt 0.195888 0.766443
vt 0.865725 0.699974
vt 0.866196 0.699475
vt 0.847118 0.680665
vt 0.842573 0.676469
vt 0.842833 0.676218
vt 0.860968 0.705025
vt 0.082650 0.754055
vt 0.505387 0.407242
vt 0.461918 0.381259
vt 0.505387 0.381259
vt 0.865465 0.700225
vt 0.857943 0.693141
vt 0.853918 0.688443
vt 0.846858 0.680916
vt 0.853658 0.688694
vt 0.939772 0.748700
vt 0.938271 0.734803
vt 0.938156 0.734447
vt 0.941644 0.725129
vt 0.940080 0.724143
vt 0.941332 0.753432
vt 0.939425 0.750935
vt 0.937868 0.710421
vt 0.505387 0.355106
vt 0.432953 0.177668
vt 0.824868 0.158870
vt 0.920142 0.751710
vt 0.920173 0.759280
vt 0.853051 0.697569
vt 0.872175 0.938867
vt 0.461918 0.407242
vn 0.0000 0.0000 -1.0000
vn -1.0000 0.0000 0.0000
vn -0.0000 0.0000 1.0000
vn 0.0000 1.0000 0.0000
vn -0.0966 -0.9953 0.0000
vn 1.0000 0.0000 0.0000
vn 0.0000 -1.0000 0.0000
vn 0.0000 -0.9953 0.0966
vn -0.8980 0.0000 0.4400
vn 0.0000 0.0408 0.9992
vn -0.8980 0.0000 -0.4400
usemtl Material.001
s off
f 31/1/1 7/2/1 5/3/1
f 8/4/2 11/5/2 12/6/2
f 26/7/3 8/4/3 32/8/3
f 31/1/4 16/9/4 30/10/4
f 32/8/5 12/6/5 27/11/5
f 27/11/5 14/12/5 29/13/5
f 28/14/4 6/15/4 26/7/4
f 12/6/2 16/9/2 14/12/2
f 14/12/2 5/3/2 7/2/2
f 29/13/5 7/2/5 25/16/5
f 30/10/4 11/5/4 28/14/4
f 15/17/4 22/18/4 9/19/4
f 13/20/5 17/21/5 3/22/5
f 9/19/4 19/23/4 1/24/4
f 10/25/5 23/26/5 13/20/5
f 4/27/5 21/28/5 10/25/5
f 2/29/4 24/30/4 15/17/4
f 1/24/3 20/31/3 4/27/3
f 2/29/1 17/32/1 18/33/1
f 24/30/4 28/14/4 22/18/4
f 23/34/5 25/16/5 17/35/5
f 22/18/4 26/7/4 19/23/4
f 21/36/2 34/37/2 23/38/2
f 20/39/5 27/11/5 21/28/5
f 18/33/4 30/10/4 24/30/4
f 19/23/3 32/8/3 20/31/3
f 18/33/1 25/40/1 31/1/1
f 33/41/5 36/42/5 34/43/5
f 29/13/3 34/44/3 36/45/3
f 27/46/1 33/47/1 21/36/1
f 29/13/6 35/48/6 27/46/6
f 39/49/7 77/50/7 72/51/7
f 68/52/4 48/53/4 69/54/4
f 40/55/6 68/52/6 67/56/6
f 37/57/2 59/58/2 57/59/2
f 39/49/1 44/60/1 40/55/1
f 38/61/3 41/62/3 37/57/3
f 53/63/1 52/64/1 54/65/1
f 59/66/4 45/67/4 61/68/4
f 43/69/4 48/53/4 44/60/4
f 42/70/4 45/67/4 41/62/4
f 70/71/4 51/72/4 75/73/4
f 87/74/3 49/75/3 93/76/3
f 45/77/2 65/78/2 61/79/2
f 48/80/6 76/81/6 69/82/6
f 46/83/3 56/84/3 45/77/3
f 47/85/1 54/65/1 48/80/1
f 62/86/6 55/87/6 46/83/6
f 61/79/2 71/88/2 74/89/2
f 50/90/4 63/91/4 49/75/4
f 59/66/4 74/92/4 73/93/4
f 57/59/2 73/94/2 72/51/2
f 78/95/6 42/70/6 38/61/6
f 60/96/4 46/97/4 42/70/4
f 57/59/7 38/61/7 37/57/7
f 72/51/2 43/98/2 39/49/2
f 73/93/4 47/99/4 43/100/4
f 74/89/2 53/101/2 47/102/2
f 69/82/6 66/103/6 62/86/6
f 64/104/4 75/73/4 63/91/4
f 67/56/6 60/96/6 78/95/6
f 60/96/4 69/54/4 62/105/4
f 72/51/7 58/106/7 57/59/7
f 64/107/6 55/87/6 66/103/6
f 109/108/2 85/109/2 83/110/2
f 86/111/3 89/112/3 90/113/3
f 104/114/6 86/111/6 110/115/6
f 109/108/4 94/116/4 108/117/4
f 110/118/8 90/119/8 105/120/8
f 105/120/8 92/121/8 107/122/8
f 106/123/4 84/124/4 104/114/4
f 90/113/3 94/116/3 92/125/3
f 92/125/3 83/110/3 85/109/3
f 107/122/8 85/126/8 103/127/8
f 108/117/4 89/112/4 106/123/4
f 93/128/4 100/129/4 87/130/4
f 91/131/8 95/132/8 81/133/8
f 87/130/4 97/134/4 79/135/4
f 88/136/8 101/137/8 91/131/8
f 82/138/8 99/139/8 88/136/8
f 80/140/4 102/141/4 93/128/4
f 79/135/6 98/142/6 82/138/6
f 80/140/2 95/143/2 96/144/2
f 100/129/4 108/117/4 106/123/4
f 101/145/8 103/127/8 95/146/8
f 100/129/4 104/114/4 97/134/4
f 99/147/3 112/148/3 101/149/3
f 98/150/8 105/120/8 99/139/8
f 102/141/4 109/108/4 108/117/4
f 97/134/6 110/115/6 98/142/6
f 96/144/2 103/151/2 109/108/2
f 111/152/8 114/153/8 112/154/8
f 107/122/6 112/155/6 114/156/6
f 105/157/2 111/158/2 99/147/2
f 107/122/1 113/159/1 105/157/1
f 9/160/3 75/161/3 15/162/3
f 15/162/3 51/163/3 2/164/3
f 2/164/3 53/101/3 3/22/3
f 3/22/3 71/88/3 13/20/3
f 13/20/3 65/78/3 10/25/3
f 10/25/3 56/84/3 4/27/3
f 4/27/3 49/75/3 1/24/3
f 1/24/3 63/165/3 9/160/3
f 93/76/4 49/75/4 80/166/4
f 49/75/9 81/133/9 80/166/9
f 81/133/7 56/84/7 91/131/7
f 91/131/3 55/87/3 88/136/3
f 88/136/10 55/87/10 82/138/10
f 55/87/11 79/135/11 82/138/11
f 79/135/7 50/90/7 87/74/7
f 87/74/1 50/90/1 49/75/1
f 49/75/3 56/84/3 81/133/3
f 91/131/3 56/84/3 55/87/3
f 55/87/1 50/90/1 79/135/1
f 31/1/1 25/40/1 7/2/1
f 8/4/2 6/15/2 11/5/2
f 26/7/3 6/15/3 8/4/3
f 31/1/4 5/3/4 16/9/4
f 32/8/5 8/4/5 12/6/5
f 27/11/5 12/6/5 14/12/5
f 28/14/4 11/5/4 6/15/4
f 12/6/2 11/5/2 16/9/2
f 14/12/2 16/9/2 5/3/2
f 29/13/5 14/12/5 7/2/5
f 30/10/4 16/9/4 11/5/4
f 15/17/4 24/30/4 22/18/4
f 13/20/5 23/26/5 17/21/5
f 9/19/4 22/18/4 19/23/4
f 10/25/5 21/28/5 23/26/5
f 4/27/5 20/39/5 21/28/5
f 2/29/4 18/33/4 24/30/4
f 1/24/3 19/23/3 20/31/3
f 2/29/1 3/167/1 17/32/1
f 24/30/4 30/10/4 28/14/4
f 23/34/5 29/13/5 25/16/5
f 22/18/4 28/14/4 26/7/4
f 21/36/2 33/47/2 34/37/2
f 20/39/5 32/8/5 27/11/5
f 18/33/4 31/1/4 30/10/4
f 19/23/3 26/7/3 32/8/3
f 18/33/1 17/32/1 25/40/1
f 33/41/5 35/168/5 36/42/5
f 29/13/3 23/34/3 34/44/3
f 27/46/1 35/48/1 33/47/1
f 29/13/6 36/45/6 35/48/6
f 39/49/7 40/55/7 77/50/7
f 68/52/4 44/60/4 48/53/4
f 40/55/6 44/60/6 68/52/6
f 37/57/2 41/62/2 59/58/2
f 39/49/1 43/169/1 44/60/1
f 38/61/3 42/70/3 41/62/3
f 53/63/1 51/72/1 52/64/1
f 59/66/4 41/62/4 45/67/4
f 43/69/4 47/170/4 48/53/4
f 42/70/4 46/97/4 45/67/4
f 70/71/4 52/64/4 51/72/4
f 45/77/2 56/84/2 65/78/2
f 48/80/6 54/65/6 76/81/6
f 46/83/3 55/87/3 56/84/3
f 47/85/1 53/63/1 54/65/1
f 62/86/6 66/103/6 55/87/6
f 61/79/2 65/78/2 71/88/2
f 50/90/4 64/104/4 63/91/4
f 59/66/4 61/68/4 74/92/4
f 57/59/2 59/58/2 73/94/2
f 78/95/6 60/96/6 42/70/6
f 60/96/4 62/105/4 46/97/4
f 57/59/7 58/106/7 38/61/7
f 72/51/2 73/94/2 43/98/2
f 73/93/4 74/92/4 47/99/4
f 74/89/2 71/88/2 53/101/2
f 69/82/6 76/81/6 66/103/6
f 64/104/4 70/71/4 75/73/4
f 67/56/6 68/52/6 60/96/6
f 60/96/4 68/52/4 69/54/4
f 72/51/7 77/50/7 58/106/7
f 52/171/6 70/172/6 54/65/6
f 70/172/6 64/107/6 76/81/6
f 54/65/6 70/172/6 76/81/6
f 64/107/6 50/90/6 55/87/6
f 66/103/6 76/81/6 64/107/6
f 109/108/2 103/151/2 85/109/2
f 86/111/3 84/124/3 89/112/3
f 104/114/6 84/124/6 86/111/6
f 109/108/4 83/110/4 94/116/4
f 110/118/8 86/173/8 90/119/8
f 105/120/8 90/119/8 92/121/8
f 106/123/4 89/112/4 84/124/4
f 90/113/3 89/112/3 94/116/3
f 92/125/3 94/116/3 83/110/3
f 107/122/8 92/121/8 85/126/8
f 108/117/4 94/116/4 89/112/4
f 93/128/4 102/141/4 100/129/4
f 91/131/8 101/137/8 95/132/8
f 87/130/4 100/129/4 97/134/4
f 88/136/8 99/139/8 101/137/8
f 82/138/8 98/150/8 99/139/8
f 80/140/4 96/144/4 102/141/4
f 79/135/6 97/134/6 98/142/6
f 80/140/2 81/174/2 95/143/2
f 100/129/4 102/141/4 108/117/4
f 101/145/8 107/122/8 103/127/8
f 100/129/4 106/123/4 104/114/4
f 99/147/3 111/158/3 112/148/3
f 98/150/8 110/118/8 105/120/8
f 102/141/4 96/144/4 109/108/4
f 97/134/6 104/114/6 110/115/6
f 96/144/2 95/143/2 103/151/2
f 111/152/8 113/175/8 114/153/8
f 107/122/6 101/145/6 112/155/6
f 105/157/2 113/159/2 111/158/2
f 107/122/1 114/156/1 113/159/1
f 9/160/3 63/165/3 75/161/3
f 15/162/3 75/161/3 51/163/3
f 2/164/3 51/163/3 53/101/3
f 3/22/3 53/101/3 71/88/3
f 13/20/3 71/88/3 65/78/3
f 10/25/3 65/78/3 56/84/3
f 4/27/3 56/84/3 49/75/3
f 1/24/3 49/75/3 63/165/3
