# Blender v2.80 (sub 75) OBJ File: ''
# www.blender.org
mtllib Lamp_Center.mtl
o Lamp_Center_Plane.001
v -0.500000 0.000000 -0.500000
v 0.500000 0.000000 -0.410000
v -0.500000 0.000000 -0.410000
v 0.500000 0.100000 -0.410000
v 0.100000 0.100000 -0.100000
v 0.100000 0.100000 -0.082000
v 0.500000 0.000000 -0.500000
v 0.500000 0.000000 -0.410000
v -0.500000 -0.000000 0.500000
v -0.500000 0.100000 0.400000
v -0.500000 -0.000000 0.400000
v 0.500000 0.100000 -0.500000
v 0.500000 -0.000000 0.500000
v -0.500000 0.100000 0.500000
v -0.100000 4.755000 -0.099999
v 0.100000 5.000000 -0.099999
v 0.100000 4.755000 -0.099999
v -0.100000 0.100000 0.100000
v -0.100000 0.100000 0.080000
v -0.500000 0.100000 -0.500000
v 0.500000 0.100000 0.500000
v 0.100000 5.000000 -0.081999
v -0.100000 5.000000 -0.099999
v -0.100000 5.000000 -0.081999
v 0.100000 4.755000 0.100001
v -0.100000 5.000000 0.100001
v -0.100000 4.755000 0.100001
v -1.985381 5.000000 -0.099999
v -1.999629 4.939368 -0.099999
v -1.999629 5.000000 -0.099999
v 1.985381 5.000000 0.100001
v 1.999629 4.939368 0.100001
v 1.999629 5.000000 0.100001
v -0.100000 4.755000 0.080001
v 0.100000 4.755000 -0.081999
v 0.100000 0.100000 0.100000
v -0.100000 0.100000 -0.100000
v 1.999629 4.939368 -0.099999
v 1.999629 5.000000 -0.081999
v 1.999629 4.939368 -0.081999
v -1.999629 4.939368 0.100001
v -1.999629 5.000000 0.080001
v -1.999629 4.939368 0.080001
v 1.985381 4.937985 -0.099999
v 1.985381 4.937985 -0.081999
v 1.999629 5.000000 0.080001
v 1.985381 5.000000 0.080001
v -1.985381 5.000000 0.100001
v -1.985381 4.937985 0.100001
v -1.999629 5.000000 -0.081999
v -1.985381 5.000000 -0.081999
v 1.985381 5.000000 -0.099999
v -1.985381 4.937985 0.080001
v 1.714684 4.911713 -0.099999
v 0.100000 5.000000 0.100001
v 1.714684 5.000000 0.080001
v 0.100000 5.000000 0.080001
v 1.714684 4.911713 -0.081999
v 1.714684 4.911713 0.100001
v 1.714684 5.000000 0.100001
v 1.714684 5.000000 -0.099999
v 1.985381 4.937985 0.100001
v 1.714684 4.911713 0.080001
v 1.985381 5.000000 -0.081999
v 1.714684 5.000000 -0.081999
v 0.100000 4.755000 0.080001
v -1.999629 4.939368 -0.081999
v -1.985381 4.937985 -0.081999
v -1.985381 5.000000 0.080001
v -1.999629 5.000000 0.100001
v 1.985381 4.937985 0.080001
v 1.999629 4.939368 0.080001
v 0.100000 0.100000 0.080000
v -0.100000 4.755000 -0.081999
v -0.100000 0.100000 -0.082000
v -0.100000 5.000000 0.080001
v -0.500000 0.100000 -0.410000
v 0.500000 -0.000000 0.400000
v 0.500000 0.100000 0.400000
v 1.999629 5.000000 -0.099999
v -1.985381 4.937985 -0.099999
v 1.985381 4.956951 -0.081999
v 0.500000 -0.000000 0.400000
v -1.714684 5.000000 0.080001
v -1.714684 4.911713 -0.099999
v -1.714684 5.000000 0.100001
v -1.714684 4.911713 -0.081999
v -1.714684 4.911713 0.080001
v -1.714684 5.000000 -0.081999
v -1.714684 4.911713 0.100001
v -1.714684 5.000000 -0.099999
v -1.714684 4.930678 -0.081999
v 1.714684 4.930678 -0.081999
v 1.985381 4.956951 0.080001
v 1.714684 4.930678 0.080001
v -1.714684 4.930678 0.080001
v -1.985381 4.956951 -0.081999
v -1.985381 4.956951 0.080001
vt 0.644698 0.430760
vt 0.723486 0.398386
vt 0.649821 0.437404
vt 0.726775 0.396860
vt 0.769014 0.422345
vt 0.769222 0.424114
vt 0.720645 0.392570
vt 0.723650 0.398346
vt 0.719634 0.478731
vt 0.712560 0.483581
vt 0.713450 0.478555
vt 0.722964 0.386832
vt 0.728158 0.441067
vt 0.722023 0.481751
vt 0.876734 0.805042
vt 0.868998 0.797753
vt 0.873250 0.795993
vt 0.732313 0.484177
vt 0.772885 0.450298
vt 0.774943 0.450783
vt 0.824917 0.373661
vt 0.729645 0.440949
vt 0.868586 0.798348
vt 0.872812 0.806264
vt 0.871735 0.806430
vt 0.859595 0.801320
vt 0.865233 0.808097
vt 0.860845 0.808908
vt 0.884970 0.878914
vt 0.885921 0.880007
vt 0.884934 0.879415
vt 0.853334 0.746092
vt 0.853294 0.745245
vt 0.853567 0.745788
vt 0.977409 0.796306
vt 0.877322 0.777497
vt 0.978086 0.794388
vt 0.973031 0.816423
vt 0.873796 0.794975
vt 0.973532 0.814546
vt 0.975696 0.805417
vt 0.877658 0.780263
vt 0.971646 0.823420
vt 0.858145 0.746842
vt 0.857312 0.746982
vt 0.857915 0.746399
vt 0.877241 0.881517
vt 0.878517 0.880552
vt 0.878194 0.881894
vt 0.858316 0.747041
vt 0.858610 0.746289
vt 0.853938 0.745885
vt 0.853843 0.746233
vt 0.877721 0.880092
vt 0.876714 0.881001
vt 0.884400 0.879582
vt 0.884308 0.879030
vt 0.857630 0.747404
vt 0.858300 0.747097
vt 0.486132 0.813689
vt 0.474531 0.799140
vt 0.484980 0.798513
vt 0.859125 0.753355
vt 0.859396 0.754895
vt 0.863389 0.800346
vt 0.852882 0.754225
vt 0.864127 0.799985
vt 0.859256 0.752465
vt 0.850893 0.754299
vt 0.852221 0.754267
vt 0.858252 0.753544
vt 0.858912 0.752610
vt 0.852673 0.745052
vt 0.843947 0.730507
vt 0.842986 0.731264
vt 0.857128 0.747344
vt 0.857923 0.753606
vt 0.876873 0.790110
vt 0.863515 0.750719
vt 0.877116 0.789136
vt 0.868493 0.798438
vt 0.467806 0.673456
vt 0.478255 0.672829
vt 0.878462 0.879958
vt 0.877934 0.880484
vt 0.853634 0.744295
vt 0.885188 0.880805
vt 0.853893 0.744988
vt 0.975018 0.807333
vt 0.877784 0.764143
vt 0.979563 0.786880
vt 0.866089 0.808007
vt 0.791612 0.454713
vt 0.815657 0.503828
vt 0.646571 0.440879
vt 0.727179 0.437013
vt 0.730021 0.437086
vt 0.760736 0.436781
vt 0.640745 0.433901
vt 0.793464 0.455150
vt 0.824917 0.506012
vt 0.877993 0.761291
vt 0.979962 0.784997
vt 0.857607 0.747148
vt 0.467059 0.659491
vt 0.477508 0.658864
vt 0.859512 0.752489
vt 0.859040 0.752824
vt 0.862883 0.750971
vt 0.864104 0.800127
vt 0.761508 0.435734
vt 0.727075 0.437030
vt 0.872064 0.806798
vt 0.876263 0.869099
vt 0.866241 0.807913
vt 0.675807 0.757765
vt 0.875401 0.869280
vt 0.675738 0.761499
vt 0.675667 0.782882
vt 0.873070 0.806605
vt 0.882803 0.867811
vt 0.873743 0.869646
vt 0.885304 0.867409
vt 0.883618 0.867672
vt 0.676784 0.660914
vt 0.676037 0.646949
vt 0.160718 0.665352
vt 0.041923 0.673742
vt 0.041866 0.666374
vt 0.676270 0.792198
vt 0.886212 0.879336
vt 0.491889 0.369721
vt 0.479525 0.390405
vt 0.479525 0.369721
vt 0.479525 0.390532
vt 0.500209 0.402896
vt 0.479525 0.402896
vt 0.676841 0.668282
vt 0.478311 0.680197
vt 0.867421 0.767540
vt 0.873299 0.775734
vt 0.872827 0.776069
vt 0.359400 0.673851
vt 0.160775 0.672720
vt 0.359456 0.681219
vt 0.844418 0.730172
vt 0.854105 0.743960
vt 0.867892 0.767205
vt 0.642703 0.426747
vt 0.789405 0.419710
vt 0.475361 0.814657
vt 0.877448 0.805749
vt 0.491889 0.390406
vt 0.500209 0.390532
vn 0.0000 -1.0000 -0.0000
vn -0.0000 1.0000 0.0000
vn 1.0000 0.0000 0.0000
vn -1.0000 0.0000 0.0000
vn 0.0000 0.0000 -1.0000
vn 0.0000 0.0000 1.0000
vn 0.0966 -0.9953 0.0000
vn -0.0966 -0.9953 0.0000
usemtl Material.005
s 1
f 1/1/1 2/2/1 3/3/1
f 4/4/2 5/5/2 6/6/2
f 7/7/3 4/4/3 8/8/3
f 9/9/4 10/10/4 11/11/4
f 1/1/5 12/12/5 7/7/5
f 13/13/6 14/14/6 9/9/6
f 15/15/5 16/16/5 17/17/5
f 10/18/2 18/19/2 19/20/2
f 20/21/2 5/5/2 12/12/2
f 21/22/2 18/19/2 14/14/2
f 22/23/2 23/24/2 24/25/2
f 25/26/6 26/27/6 27/28/6
f 28/29/5 29/30/5 30/31/5
f 31/32/6 32/33/6 33/34/6
f 18/35/4 34/36/4 19/37/4
f 5/38/3 35/39/3 6/40/3
f 36/41/6 27/42/6 18/35/6
f 37/43/5 17/17/5 5/38/5
f 38/44/3 39/45/3 40/46/3
f 41/47/4 42/48/4 43/49/4
f 44/50/7 40/46/7 45/51/7
f 31/32/2 46/52/2 47/53/2
f 48/54/6 41/47/6 49/55/6
f 28/29/2 50/56/2 51/57/2
f 52/58/5 38/44/5 44/59/5
f 49/60/8 43/61/8 53/62/8
f 16/16/5 54/63/5 17/64/5
f 55/65/2 56/66/2 57/67/2
f 17/17/7 58/68/7 35/39/7
f 55/65/6 59/69/6 60/70/6
f 61/71/5 44/59/5 54/63/5
f 60/70/2 47/53/2 56/66/2
f 54/72/7 45/51/7 58/68/7
f 60/70/6 62/73/6 31/32/6
f 63/74/7 62/73/7 59/75/7
f 56/66/2 64/76/2 65/77/2
f 66/78/7 59/79/7 25/80/7
f 57/67/2 65/77/2 22/81/2
f 53/62/8 67/82/8 68/83/8
f 69/84/2 70/85/2 48/54/2
f 47/53/2 39/45/2 64/76/2
f 71/86/7 32/33/7 62/73/7
f 43/49/4 50/56/4 67/87/4
f 72/88/3 33/34/3 32/33/3
f 73/89/3 25/80/3 36/41/3
f 19/37/4 74/90/4 75/91/4
f 55/65/2 76/92/2 26/27/2
f 10/18/2 75/93/2 77/94/2
f 11/11/4 77/95/4 3/3/4
f 78/96/3 21/22/3 13/13/3
f 79/97/2 36/98/2 21/22/2
f 11/11/1 13/13/1 9/9/1
f 3/3/4 20/99/4 1/1/4
f 77/94/2 37/100/2 20/101/2
f 75/91/4 15/102/4 37/103/4
f 67/87/4 30/31/4 29/30/4
f 64/76/2 80/104/2 52/58/2
f 68/83/8 29/105/8 81/106/8
f 22/81/2 61/71/2 16/16/2
f 65/77/2 52/58/2 61/71/2
f 71/86/4 82/107/4 45/108/4
f 35/39/7 63/109/7 66/78/7
f 51/57/2 42/48/2 69/84/2
f 45/51/7 72/88/7 71/86/7
f 40/46/3 46/52/3 72/88/3
f 6/40/3 66/78/3 73/89/3
f 57/110/2 24/25/2 76/92/2
f 8/8/3 79/97/3 78/96/3
f 79/97/2 6/6/2 73/111/2
f 3/3/1 83/112/1 11/11/1
f 24/113/2 84/114/2 76/115/2
f 74/90/8 85/116/8 15/102/8
f 76/115/2 86/117/2 26/27/2
f 34/36/8 87/118/8 74/90/8
f 27/42/8 88/119/8 34/36/8
f 23/120/2 89/121/2 24/113/2
f 26/27/6 90/122/6 27/28/6
f 23/120/5 85/123/5 91/124/5
f 89/121/2 69/84/2 84/114/2
f 87/125/8 81/106/8 85/126/8
f 84/114/2 48/54/2 86/117/2
f 88/127/4 92/128/4 87/129/4
f 90/130/8 53/62/8 88/119/8
f 91/124/2 51/57/2 89/121/2
f 86/117/6 49/55/6 90/122/6
f 91/124/5 81/131/5 28/29/5
f 93/132/7 94/133/7 95/134/7
f 96/135/8 97/136/8 92/137/8
f 68/83/6 92/138/6 97/139/6
f 58/140/3 95/141/3 63/142/3
f 53/143/5 96/144/5 88/127/5
f 68/83/3 98/145/3 53/143/3
f 71/86/5 95/146/5 94/147/5
f 45/108/6 93/148/6 58/140/6
f 1/1/1 7/7/1 2/2/1
f 4/4/2 12/12/2 5/5/2
f 7/7/3 12/12/3 4/4/3
f 9/9/4 14/14/4 10/10/4
f 1/1/5 20/149/5 12/12/5
f 13/13/6 21/22/6 14/14/6
f 15/15/5 23/24/5 16/16/5
f 10/18/2 14/14/2 18/19/2
f 20/21/2 37/150/2 5/5/2
f 21/22/2 36/98/2 18/19/2
f 22/23/2 16/16/2 23/24/2
f 25/26/6 55/65/6 26/27/6
f 28/29/5 81/131/5 29/30/5
f 31/32/6 62/73/6 32/33/6
f 18/35/4 27/42/4 34/36/4
f 5/38/3 17/17/3 35/39/3
f 36/41/6 25/80/6 27/42/6
f 37/43/5 15/15/5 17/17/5
f 38/44/3 80/104/3 39/45/3
f 41/47/4 70/85/4 42/48/4
f 44/50/7 38/44/7 40/46/7
f 31/32/2 33/34/2 46/52/2
f 48/54/6 70/85/6 41/47/6
f 28/29/2 30/31/2 50/56/2
f 52/58/5 80/104/5 38/44/5
f 49/60/8 41/151/8 43/61/8
f 16/16/5 61/71/5 54/63/5
f 55/65/2 60/70/2 56/66/2
f 17/17/7 54/72/7 58/68/7
f 55/65/6 25/26/6 59/69/6
f 61/71/5 52/58/5 44/59/5
f 60/70/2 31/32/2 47/53/2
f 54/72/7 44/50/7 45/51/7
f 60/70/6 59/69/6 62/73/6
f 63/74/7 71/86/7 62/73/7
f 56/66/2 47/53/2 64/76/2
f 66/78/7 63/109/7 59/79/7
f 57/67/2 56/66/2 65/77/2
f 53/62/8 43/61/8 67/82/8
f 69/84/2 42/48/2 70/85/2
f 47/53/2 46/52/2 39/45/2
f 71/86/7 72/88/7 32/33/7
f 43/49/4 42/48/4 50/56/4
f 72/88/3 46/52/3 33/34/3
f 73/89/3 66/78/3 25/80/3
f 19/37/4 34/36/4 74/90/4
f 55/65/2 57/110/2 76/92/2
f 10/18/2 19/20/2 75/93/2
f 11/11/4 10/10/4 77/95/4
f 78/96/3 79/97/3 21/22/3
f 79/97/2 73/111/2 36/98/2
f 11/11/1 83/112/1 13/13/1
f 3/3/4 77/95/4 20/99/4
f 77/94/2 75/93/2 37/100/2
f 75/91/4 74/90/4 15/102/4
f 67/87/4 50/56/4 30/31/4
f 64/76/2 39/45/2 80/104/2
f 68/83/8 67/82/8 29/105/8
f 22/81/2 65/77/2 61/71/2
f 65/77/2 64/76/2 52/58/2
f 71/86/4 94/147/4 82/107/4
f 35/39/7 58/68/7 63/109/7
f 51/57/2 50/56/2 42/48/2
f 45/51/7 40/46/7 72/88/7
f 40/46/3 39/45/3 46/52/3
f 6/40/3 35/39/3 66/78/3
f 57/110/2 22/23/2 24/25/2
f 8/8/3 4/4/3 79/97/3
f 79/97/2 4/4/2 6/6/2
f 3/3/1 2/2/1 83/112/1
f 24/113/2 89/121/2 84/114/2
f 74/90/8 87/118/8 85/116/8
f 76/115/2 84/114/2 86/117/2
f 34/36/8 88/119/8 87/118/8
f 27/42/8 90/130/8 88/119/8
f 23/120/2 91/124/2 89/121/2
f 26/27/6 86/117/6 90/122/6
f 23/120/5 15/152/5 85/123/5
f 89/121/2 51/57/2 69/84/2
f 87/125/8 68/83/8 81/106/8
f 84/114/2 69/84/2 48/54/2
f 88/127/4 96/144/4 92/128/4
f 90/130/8 49/60/8 53/62/8
f 91/124/2 28/29/2 51/57/2
f 86/117/6 48/54/6 49/55/6
f 91/124/5 85/123/5 81/131/5
f 93/132/7 82/153/7 94/133/7
f 96/135/8 98/154/8 97/136/8
f 68/83/6 87/125/6 92/138/6
f 58/140/3 93/148/3 95/141/3
f 53/143/5 98/145/5 96/144/5
f 68/83/3 97/139/3 98/145/3
f 71/86/5 63/74/5 95/146/5
f 45/108/6 82/107/6 93/148/6
