# Blender v2.80 (sub 75) OBJ File: 'Lamp_Side.blend'
# www.blender.org
mtllib Lamp_Side.mtl
o Plane
v -0.500000 0.000000 0.500000
v 0.500000 0.000000 0.500000
v -0.500000 0.000000 -0.500000
v 0.500000 0.000000 -0.500000
v -0.500000 0.100000 0.500000
v 0.500000 0.100000 0.500000
v -0.500000 0.100000 -0.500000
v 0.500000 0.100000 -0.500000
v -0.100000 0.100000 0.100000
v 0.100000 0.100000 0.100000
v -0.100000 0.100000 -0.100000
v 0.100000 0.100000 -0.100000
v -0.100000 5.000000 0.100000
v 0.100000 5.000000 0.100000
v -0.100000 5.000000 -0.100000
v 0.100000 5.000000 -0.100000
v -0.100000 4.755000 -0.100000
v 0.100000 4.755000 -0.100000
v 0.100000 4.755000 0.100000
v -0.100000 4.755000 0.100000
v -1.999629 5.000000 -0.100000
v -1.999629 5.000000 0.100000
v -1.999629 4.939368 -0.100000
v -1.999629 4.939368 0.100000
v -0.500000 0.000000 0.400000
v 0.500000 0.000000 0.400000
v -0.500000 0.100000 0.400000
v 0.500000 0.100000 0.400000
v -0.100000 0.100000 0.080000
v 0.100000 0.100000 0.080000
v -0.100000 5.000000 0.080000
v 0.100000 5.000000 0.080000
v -0.100000 4.755000 0.080000
v 0.100000 4.755000 0.080000
v -1.999629 5.000000 0.080000
v -1.999629 4.939368 0.080000
v 0.500000 0.000000 -0.410000
v 0.500000 0.100000 -0.410000
v 0.100000 0.100000 -0.082000
v 0.100000 5.000000 -0.082000
v -0.100000 4.755000 -0.082000
v -1.999629 4.939368 -0.082000
v -0.500000 0.000000 -0.410000
v -0.500000 0.100000 -0.410000
v -0.100000 0.100000 -0.082000
v -0.100000 5.000000 -0.082000
v 0.100000 4.755000 -0.082000
v -1.999629 5.000000 -0.082000
v -1.714684 4.911713 -0.100000
v -1.714684 5.000000 -0.100000
v -1.714684 5.000000 0.100000
v -1.714684 4.911713 0.100000
v -1.714684 4.911713 0.080000
v -1.714684 5.000000 0.080000
v -1.714684 4.911713 -0.082000
v -1.714684 5.000000 -0.082000
v -1.985381 4.937985 -0.100000
v -1.985381 5.000000 0.100000
v -1.985381 4.937985 0.080000
v -1.985381 5.000000 0.080000
v -1.985381 4.937985 -0.082000
v -1.985381 5.000000 -0.082000
v -1.985381 5.000000 -0.100000
v -1.985381 4.937985 0.100000
v -1.714684 4.930678 0.080000
v -1.714684 4.930678 -0.082000
v -1.985381 4.956951 0.080000
v -1.985381 4.956951 -0.082000
v 0.500000 0.000000 -0.410000
v 0.500000 0.000000 0.400000
vt 0.431204 0.199054
vt 0.638366 0.113931
vt 0.444673 0.216524
vt 0.647015 0.109919
vt 0.758075 0.176926
vt 0.758623 0.181578
vt 0.630895 0.098639
vt 0.638798 0.113825
vt 0.628238 0.325187
vt 0.609636 0.337939
vt 0.611977 0.324723
vt 0.636994 0.083550
vt 0.650650 0.226153
vt 0.634520 0.333128
vt 0.586309 0.851245
vt 0.590588 0.802961
vt 0.611439 0.810060
vt 0.661574 0.339507
vt 0.768254 0.250426
vt 0.773665 0.251702
vt 0.905065 0.048919
vt 0.654561 0.225845
vt 0.588770 0.798187
vt 0.557296 0.831708
vt 0.554512 0.828355
vt 0.603375 0.772370
vt 0.550114 0.782972
vt 0.560043 0.755735
vt 0.119699 0.673149
vt 0.110976 0.675094
vt 0.117220 0.671384
vt 0.978316 0.731150
vt 0.602568 0.732939
vt 0.978209 0.724430
vt 0.980019 0.804847
vt 0.611997 0.805457
vt 0.979914 0.798217
vt 0.978994 0.764273
vt 0.602697 0.739247
vt 0.981436 0.838229
vt 0.131101 0.621511
vt 0.131988 0.631704
vt 0.126080 0.625698
vt 0.136939 0.628659
vt 0.135469 0.620148
vt 0.118076 0.667851
vt 0.121230 0.669060
vt 0.190222 0.750084
vt 0.185933 0.744209
vt 0.190085 0.744109
vt 0.184823 0.695809
vt 0.188975 0.695709
vt 0.135244 0.633245
vt 0.134223 0.628632
vt 0.109200 0.668478
vt 0.979103 0.771001
vt 0.602025 0.703262
vt 0.977700 0.697610
vt 0.585509 0.787542
vt 0.549551 0.788063
vt 0.817493 0.262035
vt 0.880716 0.391177
vt 0.436127 0.225660
vt 0.648076 0.215496
vt 0.655550 0.215686
vt 0.736309 0.214884
vt 0.420811 0.207311
vt 0.822363 0.263184
vt 0.905065 0.396918
vt 0.601963 0.696953
vt 0.977629 0.690881
vt 0.184700 0.690431
vt 0.188852 0.690331
vt 0.604690 0.777629
vt 0.586720 0.791403
vt 0.738338 0.212131
vt 0.647803 0.215539
vt 0.534845 0.825488
vt 0.198581 0.654745
vt 0.547819 0.789224
vt 0.268236 0.702006
vt 0.200419 0.649329
vt 0.268305 0.707978
vt 0.268986 0.742203
vt 0.532605 0.831755
vt 0.184191 0.695589
vt 0.203859 0.638849
vt 0.178225 0.710923
vt 0.182292 0.700613
vt 0.267874 0.693803
vt 0.267751 0.688426
vt 0.063110 0.688558
vt 0.015884 0.690183
vt 0.015953 0.687350
vt 0.269123 0.748179
vt 0.113513 0.678822
vt 0.457920 0.375615
vt 0.512306 0.408124
vt 0.457920 0.408124
vt 0.267805 0.696636
vt 0.188906 0.698542
vt 0.141816 0.694501
vt 0.063042 0.691391
vt 0.141748 0.697334
vt 0.586814 0.791373
vt 0.425957 0.188502
vt 0.811689 0.170000
vt 0.186070 0.750184
vt 0.522945 0.859075
vt 0.512306 0.375615
vt 0.590660 0.802863
vt 0.588863 0.798155
vn 0.0000 -1.0000 0.0000
vn 0.0000 1.0000 0.0000
vn 1.0000 0.0000 0.0000
vn -1.0000 0.0000 0.0000
vn 0.0000 0.0000 -1.0000
vn 0.0000 0.0000 1.0000
vn -0.0966 -0.9953 0.0000
usemtl Material.001
s off
f 3/1/1 69/2/1 43/3/1
f 38/4/2 12/5/2 39/6/2
f 4/7/3 38/4/3 37/8/3
f 1/9/4 27/10/4 25/11/4
f 3/1/5 8/12/5 4/7/5
f 2/13/6 5/14/6 1/9/6
f 17/15/5 16/16/5 18/17/5
f 27/18/2 9/19/2 29/20/2
f 7/21/2 12/5/2 8/12/2
f 6/22/2 9/19/2 5/14/2
f 40/23/2 15/24/2 46/25/2
f 19/26/6 13/27/6 20/28/6
f 63/29/5 23/30/5 21/31/5
f 9/32/4 33/33/4 29/34/4
f 12/35/3 47/36/3 39/37/3
f 10/38/6 20/39/6 9/32/6
f 11/40/5 18/17/5 12/35/5
f 24/41/4 35/42/4 36/43/4
f 58/44/6 24/41/6 64/45/6
f 63/29/2 48/46/2 62/47/2
f 64/48/7 36/49/7 59/50/7
f 59/50/7 42/51/7 61/52/7
f 60/53/2 22/54/2 58/44/2
f 36/43/4 48/46/4 42/55/4
f 30/56/3 19/26/3 10/38/3
f 29/34/4 41/57/4 45/58/4
f 14/59/2 31/60/2 13/27/2
f 27/18/2 45/61/2 44/62/2
f 25/11/4 44/63/4 43/3/4
f 70/64/3 6/22/3 2/13/3
f 28/65/2 10/66/2 6/22/2
f 25/11/1 2/13/1 1/9/1
f 43/3/4 7/67/4 3/1/4
f 44/62/2 11/68/2 7/69/2
f 45/58/4 17/70/4 11/71/4
f 42/55/4 21/31/4 23/30/4
f 61/52/7 23/72/7 57/73/7
f 62/47/2 35/42/2 60/53/2
f 39/37/3 34/74/3 30/56/3
f 32/75/2 46/25/2 31/60/2
f 37/8/3 28/65/3 70/64/3
f 28/65/2 39/6/2 30/76/2
f 43/3/1 26/77/1 25/11/1
f 46/78/2 54/79/2 31/80/2
f 41/57/7 49/81/7 17/70/7
f 31/80/2 51/82/2 13/27/2
f 33/33/7 55/83/7 41/57/7
f 20/39/7 53/84/7 33/33/7
f 15/85/2 56/86/2 46/78/2
f 13/27/6 52/87/6 20/28/6
f 15/85/5 49/88/5 50/89/5
f 56/86/2 60/53/2 54/79/2
f 55/90/7 57/73/7 49/91/7
f 54/79/2 58/44/2 51/82/2
f 53/92/4 66/93/4 55/94/4
f 52/95/7 59/50/7 53/84/7
f 50/89/2 62/47/2 56/86/2
f 51/82/6 64/45/6 52/87/6
f 50/89/5 57/96/5 63/29/5
f 65/97/7 68/98/7 66/99/7
f 61/52/6 66/100/6 68/101/6
f 59/102/5 65/103/5 53/92/5
f 61/52/3 67/104/3 59/102/3
f 32/105/3 19/26/3 34/74/3
f 3/1/1 4/7/1 69/2/1
f 38/4/2 8/12/2 12/5/2
f 4/7/3 8/12/3 38/4/3
f 1/9/4 5/14/4 27/10/4
f 3/1/5 7/106/5 8/12/5
f 2/13/6 6/22/6 5/14/6
f 17/15/5 15/24/5 16/16/5
f 27/18/2 5/14/2 9/19/2
f 7/21/2 11/107/2 12/5/2
f 6/22/2 10/66/2 9/19/2
f 40/23/2 16/16/2 15/24/2
f 19/26/6 14/59/6 13/27/6
f 63/29/5 57/96/5 23/30/5
f 9/32/4 20/39/4 33/33/4
f 12/35/3 18/17/3 47/36/3
f 10/38/6 19/26/6 20/39/6
f 11/40/5 17/15/5 18/17/5
f 24/41/4 22/54/4 35/42/4
f 58/44/6 22/54/6 24/41/6
f 63/29/2 21/31/2 48/46/2
f 64/48/7 24/108/7 36/49/7
f 59/50/7 36/49/7 42/51/7
f 60/53/2 35/42/2 22/54/2
f 36/43/4 35/42/4 48/46/4
f 30/56/3 34/74/3 19/26/3
f 29/34/4 33/33/4 41/57/4
f 14/59/2 32/75/2 31/60/2
f 27/18/2 29/20/2 45/61/2
f 25/11/4 27/10/4 44/63/4
f 70/64/3 28/65/3 6/22/3
f 28/65/2 30/76/2 10/66/2
f 25/11/1 26/77/1 2/13/1
f 43/3/4 44/63/4 7/67/4
f 44/62/2 45/61/2 11/68/2
f 45/58/4 41/57/4 17/70/4
f 42/55/4 48/46/4 21/31/4
f 61/52/7 42/51/7 23/72/7
f 62/47/2 48/46/2 35/42/2
f 39/37/3 47/36/3 34/74/3
f 32/75/2 40/23/2 46/25/2
f 37/8/3 38/4/3 28/65/3
f 28/65/2 38/4/2 39/6/2
f 43/3/1 69/2/1 26/77/1
f 46/78/2 56/86/2 54/79/2
f 41/57/7 55/83/7 49/81/7
f 31/80/2 54/79/2 51/82/2
f 33/33/7 53/84/7 55/83/7
f 20/39/7 52/95/7 53/84/7
f 15/85/2 50/89/2 56/86/2
f 13/27/6 51/82/6 52/87/6
f 15/85/5 17/109/5 49/88/5
f 56/86/2 62/47/2 60/53/2
f 55/90/7 61/52/7 57/73/7
f 54/79/2 60/53/2 58/44/2
f 53/92/4 65/103/4 66/93/4
f 52/95/7 64/48/7 59/50/7
f 50/89/2 63/29/2 62/47/2
f 51/82/6 58/44/6 64/45/6
f 50/89/5 49/88/5 57/96/5
f 65/97/7 67/110/7 68/98/7
f 61/52/6 55/90/6 66/100/6
f 59/102/5 67/104/5 65/103/5
f 61/52/3 68/101/3 67/104/3
f 16/111/3 40/112/3 18/17/3
f 40/112/3 32/105/3 47/36/3
f 18/17/3 40/112/3 47/36/3
f 32/105/3 14/59/3 19/26/3
f 34/74/3 47/36/3 32/105/3
