# Blender v2.80 (sub 75) OBJ File: 'Road.blend'
# www.blender.org
mtllib Road.mtl
o Cube_Cube.001
v -6.000000 -0.000000 0.396945
v 6.000000 0.200000 0.397003
v -0.402787 0.200000 0.397003
v -0.402787 -0.000000 0.396945
v 0.397562 0.200000 0.397003
v 0.397562 -0.000000 0.396945
v -6.000000 0.200000 0.397003
v 6.000000 -0.000000 0.396945
v -6.000000 -0.000000 2.291145
v 6.000000 0.200000 2.300413
v -0.402787 0.200000 2.291145
v -0.402787 -0.000000 2.291145
v 0.397562 0.200000 2.300413
v 0.397562 -0.000000 2.291145
v -6.000000 0.200000 2.291145
v 6.000000 -0.000000 2.291145
v -6.000000 -0.000000 2.899022
v 6.000000 0.200000 2.899022
v -0.402787 0.200000 2.899022
v -0.402787 -0.000000 2.899022
v 0.397562 0.200000 2.899022
v 0.397562 -0.000000 2.899022
v -6.000000 0.200000 2.899022
v 6.000000 -0.000000 2.899022
v -6.000000 -0.000000 4.907777
v 6.000000 0.200000 4.898331
v -0.402787 0.200000 4.907777
v -0.402787 -0.000000 4.907777
v 0.397562 0.200000 4.898331
v 0.397562 -0.000000 4.907777
v -6.000000 0.200000 4.907777
v 6.000000 -0.000000 4.907777
v -6.000000 -0.000000 5.508793
v 6.000000 0.200000 5.499347
v -0.402787 0.200000 5.508793
v -0.402787 -0.000000 5.508793
v 0.397562 0.200000 5.499347
v 0.397562 -0.000000 5.508793
v -6.000000 0.200000 5.508793
v 6.000000 -0.000000 5.508793
v -6.000000 -0.000000 -0.396945
v 6.000000 0.200000 -0.397003
v -0.402787 0.200000 -0.397003
v -0.402787 -0.000000 -0.396945
v 0.397562 0.200000 -0.397003
v 0.397562 -0.000000 -0.396945
v -6.000000 0.200000 -0.397003
v 6.000000 -0.000000 -0.396945
v -6.000000 -0.000000 -2.291145
v 6.000000 0.200000 -2.300413
v -0.402787 0.200000 -2.291145
v -0.402787 -0.000000 -2.291145
v 0.397562 0.200000 -2.300413
v 0.397562 -0.000000 -2.291145
v -6.000000 0.200000 -2.291145
v 6.000000 -0.000000 -2.291145
v -6.000000 -0.000000 -2.899022
v 6.000000 0.200000 -2.899022
v -0.402787 0.200000 -2.899022
v 0.397562 0.200000 -2.899022
v 0.397562 -0.000000 -2.899022
v -6.000000 0.200000 -2.899022
v 6.000000 -0.000000 -2.899022
v -6.000000 -0.000000 -4.907777
v 6.000000 0.200000 -4.898331
v -0.402787 0.200000 -4.907777
v 0.397562 0.200000 -4.898331
v 0.397562 -0.000000 -4.907777
v -6.000000 0.200000 -4.907777
v 6.000000 -0.000000 -4.907777
v -6.000000 -0.000000 -5.508793
v 6.000000 0.200000 -5.499347
v -0.402787 0.200000 -5.508793
v -0.402787 -0.000000 -5.508793
v 0.397562 0.200000 -5.499347
v 0.397562 -0.000000 -5.508793
v -6.000000 0.200000 -5.508793
v 6.000000 -0.000000 -5.508793
v -6.000000 0.200000 0.000000
v 6.000000 -0.000000 0.000000
v -6.000000 -0.000000 0.000000
v 6.000000 0.200000 0.000000
v -0.402787 0.200000 0.000000
v -0.402787 -0.000000 0.000000
v 0.397562 0.200000 0.000000
v 0.397562 -0.000000 0.000000
v -0.402787 -0.000000 -2.899022
v -0.402787 -0.000000 -4.907777
vt 0.164898 0.529680
vt 0.247427 0.522168
vt 0.247335 0.530837
vt 0.746511 0.248602
vt 0.763513 0.282905
vt 0.746501 0.282900
vt 0.266627 0.247196
vt 0.250153 0.009118
vt 0.267025 0.009056
vt 0.763435 0.522841
vt 0.746418 0.522836
vt 0.502254 0.717553
vt 0.519219 0.751754
vt 0.502254 0.751754
vt 0.264558 0.522312
vt 0.249334 0.281254
vt 0.266347 0.281409
vt 0.746524 0.008565
vt 0.763520 0.248606
vt 0.250094 0.000614
vt 0.266997 0.000543
vt 0.138642 0.519558
vt 0.137822 0.528514
vt 0.844690 0.282925
vt 0.249708 0.247071
vt 0.169331 0.010105
vt 0.844636 0.522854
vt 0.600161 0.717553
vt 0.600557 0.751754
vt 0.168241 0.280159
vt 0.763532 0.008565
vt 0.844697 0.248625
vt 0.169527 0.001570
vt 0.048485 0.505762
vt 0.045141 0.515435
vt 0.870744 0.282930
vt 0.168489 0.245773
vt 0.144073 0.010994
vt 0.870693 0.522859
vt 0.626138 0.717553
vt 0.626138 0.751754
vt 0.165176 0.520882
vt 0.142101 0.279717
vt 0.844700 0.008557
vt 0.870748 0.248628
vt 0.143437 0.002393
vt 0.027190 0.497517
vt 0.019692 0.502369
vt 0.956837 0.282940
vt 0.143073 0.245251
vt 0.059189 0.021904
vt 0.956801 0.522870
vt 0.711574 0.751754
vt 0.054024 0.277372
vt 0.870749 0.008556
vt 0.956840 0.248638
vt 0.055904 0.012893
vt 0.982598 0.282943
vt 0.056503 0.240683
vt 0.038929 0.029191
vt 0.982565 0.522874
vt 0.711977 0.717553
vt 0.737257 0.751754
vt 0.027360 0.277580
vt 0.956832 0.008551
vt 0.982598 0.248638
vt 0.031958 0.024513
vt 0.264507 0.530947
vt 0.017136 0.277628
vt 0.363249 0.531214
vt 0.281668 0.522406
vt 0.363269 0.522603
vt 0.729488 0.282894
vt 0.283928 0.009027
vt 0.729402 0.522831
vt 0.485289 0.751754
vt 0.283359 0.281535
vt 0.729502 0.248598
vt 0.283907 0.000498
vt 0.389413 0.522663
vt 0.389401 0.531263
vt 0.648324 0.282853
vt 0.365167 0.008817
vt 0.283563 0.247292
vt 0.648181 0.522820
vt 0.404347 0.717553
vt 0.485289 0.717553
vt 0.364313 0.282098
vt 0.648338 0.248558
vt 0.729517 0.008565
vt 0.364754 0.000278
vt 0.475760 0.522727
vt 0.475753 0.531323
vt 0.622276 0.282839
vt 0.390735 0.008788
vt 0.364906 0.247869
vt 0.622117 0.522808
vt 0.403951 0.751754
vt 0.378371 0.717553
vt 0.390350 0.282228
vt 0.622293 0.248547
vt 0.648354 0.008589
vt 0.390723 0.000238
vt 0.501591 0.522751
vt 0.501584 0.531346
vt 0.536243 0.282797
vt 0.476254 0.008661
vt 0.390497 0.247973
vt 0.535944 0.522788
vt 0.292935 0.751754
vt 0.378371 0.751754
vt 0.476260 0.282666
vt 0.536209 0.248505
vt 0.622315 0.008592
vt 0.510517 0.282804
vt 0.501974 0.008644
vt 0.476080 0.248409
vt 0.510166 0.522762
vt 0.267252 0.751754
vt 0.292531 0.717553
vt 0.501955 0.282807
vt 0.510441 0.248520
vt 0.536264 0.008644
vt 0.476649 0.000104
vt 0.281632 0.531028
vt 0.501854 0.248527
vt 0.510532 0.008646
vt 0.017399 0.238680
vt 0.027297 0.239048
vt 0.519219 0.717553
vt 0.737660 0.717553
vt 0.982588 0.008549
vt 0.266848 0.717553
vt 0.502372 0.000084
vn -1.0000 -0.0000 0.0000
vn 0.0000 -1.0000 0.0000
vn 0.0000 1.0000 0.0000
vn 1.0000 0.0000 0.0000
vn 0.0000 0.0000 1.0000
vn 0.0000 0.0000 -1.0000
vn 0.0000 0.0472 -0.9989
vn 0.0000 0.0472 0.9989
vn 0.0118 0.0472 -0.9988
vn 0.0118 0.0472 0.9988
usemtl Material.001
s off
f 9/1/1 7/2/1 1/3/1
f 86/4/2 4/5/2 84/6/2
f 85/7/3 2/8/3 82/9/3
f 84/6/2 1/10/2 81/11/2
f 83/12/3 5/13/3 85/14/3
f 79/15/3 3/16/3 83/17/3
f 80/18/2 6/19/2 86/4/2
f 82/9/4 8/20/4 80/21/4
f 23/22/1 9/1/1 17/23/1
f 6/19/2 12/24/2 4/5/2
f 5/25/3 10/26/3 2/8/3
f 4/5/2 9/27/2 1/10/2
f 5/13/3 11/28/3 13/29/3
f 7/2/3 11/30/3 3/16/3
f 8/31/2 14/32/2 6/19/2
f 2/8/4 16/33/4 8/20/4
f 31/34/1 17/23/1 25/35/1
f 14/32/2 20/36/2 12/24/2
f 13/37/3 18/38/3 10/26/3
f 12/24/2 17/39/2 9/27/2
f 13/29/3 19/40/3 21/41/3
f 15/42/3 19/43/3 11/30/3
f 16/44/2 22/45/2 14/32/2
f 10/26/4 24/46/4 16/33/4
f 39/47/1 25/35/1 33/48/1
f 22/45/2 28/49/2 20/36/2
f 21/50/3 26/51/3 18/38/3
f 20/36/2 25/52/2 17/39/2
f 19/40/3 29/53/3 21/41/3
f 23/22/3 27/54/3 19/43/3
f 24/55/2 30/56/2 22/45/2
f 24/46/4 26/51/4 32/57/4
f 30/56/2 36/58/2 28/49/2
f 29/59/3 34/60/3 26/51/3
f 28/49/2 33/61/2 25/52/2
f 27/62/3 37/63/3 29/53/3
f 31/34/3 35/64/3 27/54/3
f 32/65/2 38/66/2 30/56/2
f 32/57/4 34/60/4 40/67/4
f 1/3/1 79/15/1 81/68/1
f 39/47/5 36/69/5 35/64/5
f 49/70/1 47/71/1 55/72/1
f 44/73/2 86/4/2 84/6/2
f 42/74/3 85/7/3 82/9/3
f 41/75/2 84/6/2 81/11/2
f 45/76/3 83/12/3 85/14/3
f 43/77/3 79/15/3 83/17/3
f 46/78/2 80/18/2 86/4/2
f 48/79/4 82/9/4 80/21/4
f 49/70/1 62/80/1 57/81/1
f 52/82/2 46/78/2 44/73/2
f 50/83/3 45/84/3 42/74/3
f 49/85/2 44/73/2 41/75/2
f 45/76/3 51/86/3 43/87/3
f 51/88/3 47/71/3 43/77/3
f 54/89/2 48/90/2 46/78/2
f 56/91/4 42/74/4 48/79/4
f 57/81/1 69/92/1 64/93/1
f 87/94/2 54/89/2 52/82/2
f 58/95/3 53/96/3 50/83/3
f 57/97/2 52/82/2 49/85/2
f 53/98/3 59/99/3 51/86/3
f 59/100/3 55/72/3 51/88/3
f 61/101/2 56/102/2 54/89/2
f 63/103/4 50/83/4 56/91/4
f 64/93/1 77/104/1 71/105/1
f 88/106/2 61/101/2 87/94/2
f 65/107/3 60/108/3 58/95/3
f 64/109/2 87/94/2 57/97/2
f 67/110/3 59/99/3 60/111/3
f 66/112/3 62/80/3 59/100/3
f 68/113/2 63/114/2 61/101/2
f 63/103/4 65/107/4 58/95/4
f 74/115/2 68/113/2 88/106/2
f 72/116/3 67/117/3 65/107/3
f 71/118/2 88/106/2 64/109/2
f 75/119/3 66/120/3 67/110/3
f 73/121/3 69/92/3 66/112/3
f 76/122/2 70/123/2 68/113/2
f 70/124/4 72/116/4 65/107/4
f 41/125/1 79/15/1 47/71/1
f 74/115/6 77/104/6 73/121/6
f 75/126/7 78/127/7 76/122/7
f 73/121/6 76/122/6 74/115/6
f 38/128/5 35/64/5 36/69/5
f 38/128/8 34/60/8 37/129/8
f 9/1/1 15/42/1 7/2/1
f 86/4/2 6/19/2 4/5/2
f 85/7/3 5/25/3 2/8/3
f 84/6/2 4/5/2 1/10/2
f 83/12/3 3/130/3 5/13/3
f 79/15/3 7/2/3 3/16/3
f 80/18/2 8/31/2 6/19/2
f 82/9/4 2/8/4 8/20/4
f 23/22/1 15/42/1 9/1/1
f 6/19/2 14/32/2 12/24/2
f 5/25/3 13/37/3 10/26/3
f 4/5/2 12/24/2 9/27/2
f 5/13/3 3/130/3 11/28/3
f 7/2/3 15/42/3 11/30/3
f 8/31/2 16/44/2 14/32/2
f 2/8/4 10/26/4 16/33/4
f 31/34/1 23/22/1 17/23/1
f 14/32/2 22/45/2 20/36/2
f 13/37/3 21/50/3 18/38/3
f 12/24/2 20/36/2 17/39/2
f 13/29/3 11/28/3 19/40/3
f 15/42/3 23/22/3 19/43/3
f 16/44/2 24/55/2 22/45/2
f 10/26/4 18/38/4 24/46/4
f 39/47/1 31/34/1 25/35/1
f 22/45/2 30/56/2 28/49/2
f 21/50/3 29/59/3 26/51/3
f 20/36/2 28/49/2 25/52/2
f 19/40/3 27/62/3 29/53/3
f 23/22/3 31/34/3 27/54/3
f 24/55/2 32/65/2 30/56/2
f 24/46/4 18/38/4 26/51/4
f 30/56/2 38/66/2 36/58/2
f 29/59/3 37/129/3 34/60/3
f 28/49/2 36/58/2 33/61/2
f 27/62/3 35/131/3 37/63/3
f 31/34/3 39/47/3 35/64/3
f 32/65/2 40/132/2 38/66/2
f 32/57/4 26/51/4 34/60/4
f 1/3/1 7/2/1 79/15/1
f 39/47/5 33/48/5 36/69/5
f 49/70/1 41/125/1 47/71/1
f 44/73/2 46/78/2 86/4/2
f 42/74/3 45/84/3 85/7/3
f 41/75/2 44/73/2 84/6/2
f 45/76/3 43/87/3 83/12/3
f 43/77/3 47/71/3 79/15/3
f 46/78/2 48/90/2 80/18/2
f 48/79/4 42/74/4 82/9/4
f 49/70/1 55/72/1 62/80/1
f 52/82/2 54/89/2 46/78/2
f 50/83/3 53/96/3 45/84/3
f 49/85/2 52/82/2 44/73/2
f 45/76/3 53/98/3 51/86/3
f 51/88/3 55/72/3 47/71/3
f 54/89/2 56/102/2 48/90/2
f 56/91/4 50/83/4 42/74/4
f 57/81/1 62/80/1 69/92/1
f 87/94/2 61/101/2 54/89/2
f 58/95/3 60/108/3 53/96/3
f 57/97/2 87/94/2 52/82/2
f 53/98/3 60/111/3 59/99/3
f 59/100/3 62/80/3 55/72/3
f 61/101/2 63/114/2 56/102/2
f 63/103/4 58/95/4 50/83/4
f 64/93/1 69/92/1 77/104/1
f 88/106/2 68/113/2 61/101/2
f 65/107/3 67/117/3 60/108/3
f 64/109/2 88/106/2 87/94/2
f 67/110/3 66/120/3 59/99/3
f 66/112/3 69/92/3 62/80/3
f 68/113/2 70/123/2 63/114/2
f 63/103/4 70/124/4 65/107/4
f 74/115/2 76/122/2 68/113/2
f 72/116/3 75/126/3 67/117/3
f 71/118/2 74/115/2 88/106/2
f 75/119/3 73/133/3 66/120/3
f 73/121/3 77/104/3 69/92/3
f 76/122/2 78/127/2 70/123/2
f 70/124/4 78/134/4 72/116/4
f 41/125/1 81/68/1 79/15/1
f 74/115/6 71/118/6 77/104/6
f 75/126/7 72/116/7 78/127/7
f 73/121/9 75/126/9 76/122/9
f 38/128/10 37/129/10 35/64/10
f 38/128/8 40/67/8 34/60/8
