# Blender v2.80 (sub 75) OBJ File: 'sidewalk.blend'
# www.blender.org
mtllib sidewalk.mtl
o Cube.001_Cube.066
v 4.000000 0.000000 4.000000
v 4.000000 0.000000 -4.000000
v 10.000000 0.000000 4.000000
v 10.000000 0.400000 4.000000
v 10.000000 0.000000 -4.000000
v 10.000000 0.400000 -4.000000
v 9.730674 0.000000 -4.000000
v 9.730674 0.400000 -4.000000
v 9.730674 0.000000 4.000000
v 9.730674 0.400000 4.000000
v 9.999517 0.504259 4.000000
v 9.927706 0.600000 4.000000
v 9.802485 0.600000 4.000000
v 9.730674 0.504259 4.000000
v 9.730674 0.504259 -4.000000
v 9.802485 0.600000 -4.000000
v 9.927706 0.600000 -4.000000
v 9.999517 0.504259 -4.000000
v 4.132751 0.400000 4.000000
v 4.000000 0.223013 4.000000
v 4.038882 0.348162 4.000000
v 4.000000 0.223013 -4.000000
v 4.132751 0.400000 -4.000000
v 4.038882 0.348162 -4.000000
vt 0.841978 0.009575
vt 0.841978 0.748274
vt 0.050157 0.748274
vt 0.050157 0.009575
vt 0.891931 0.082659
vt 0.926775 0.082660
vt 0.926751 0.779526
vt 0.891908 0.779525
vt 0.994025 0.780726
vt 0.938637 0.764908
vt 0.952295 0.762232
vt 0.967464 0.758740
vt 0.980959 0.762523
vt 0.881568 0.765792
vt 0.859495 0.765792
vt 0.847108 0.760661
vt 0.881568 0.009575
vt 0.050171 0.797990
vt 0.050171 0.775917
vt 0.841992 0.775917
vt 0.841992 0.797990
vt 0.994025 0.082440
vt 0.982416 0.099790
vt 0.969007 0.103824
vt 0.953897 0.100546
vt 0.940091 0.098077
vt 0.992688 0.855669
vt 0.925414 0.854468
vt 0.926530 0.007744
vt 0.993780 0.007524
vt 0.841985 0.762096
vt 0.050164 0.762096
vt 0.010566 0.009575
vt 0.045026 0.760661
vt 0.032640 0.765792
vt 0.010567 0.765792
vn 0.0000 1.0000 0.0000
vn 1.0000 0.0000 0.0000
vn 0.0000 0.0000 1.0000
vn 0.0000 0.0000 -1.0000
vn -1.0000 0.0000 0.0000
vn -0.8000 0.6000 0.0000
vn 0.8000 0.6000 0.0000
vn 1.0000 0.0046 0.0000
vn -0.4834 0.8754 0.0000
vn -0.9550 0.2967 0.0000
usemtl Material.022
s off
f 8/1/1 23/2/1 19/3/1 10/4/1
f 5/5/2 6/6/2 4/7/2 3/8/2
f 10/9/3 4/7/3 11/10/3 12/11/3 13/12/3 14/13/3
f 2/14/4 22/15/4 24/16/4 23/2/4 8/1/4 7/17/4
f 1/18/5 20/19/5 22/20/5 2/21/5
f 6/6/4 8/22/4 15/23/4 16/24/4 17/25/4 18/26/4
f 10/9/3 9/27/3 3/28/3 4/7/3
f 6/6/4 5/29/4 7/30/4 8/22/4
f 8/22/5 10/9/5 14/13/5 15/23/5
f 16/24/1 13/12/1 12/11/1 17/25/1
f 15/23/6 14/13/6 13/12/6 16/24/6
f 11/10/7 18/26/7 17/25/7 12/11/7
f 4/7/8 6/6/8 18/26/8 11/10/8
f 19/3/9 23/2/9 24/31/9 21/32/9
f 21/32/10 24/31/10 22/20/10 20/19/10
f 9/33/3 10/4/3 19/3/3 21/34/3 20/35/3 1/36/3
