# Blender v2.80 (sub 75) OBJ File: ''
# www.blender.org
mtllib woodenbox.mtl
o Wooden_Box_Cube.004_Cube.006
v -0.659215 0.117261 -0.776479
v 0.664577 0.115060 -0.664576
v 0.659218 0.117261 -0.776479
v -0.776477 0.117261 -0.659218
v -0.664574 1.437896 -0.664575
v -0.776477 1.435695 -0.659218
v -0.668689 -0.000001 -0.668691
v -0.664574 0.115060 0.664575
v -0.668689 -0.000001 0.668690
v -0.659215 1.435695 -0.776479
v -0.664574 0.115060 -0.664576
v -0.664574 1.437896 0.664575
v -0.776477 1.435695 0.659216
v 0.668692 1.552957 0.668690
v -0.668689 1.552957 0.668690
v -0.776477 -0.000001 0.776478
v -0.776477 0.117261 0.659216
v -0.776477 1.552957 0.776478
v -0.776477 1.552957 -0.776479
v -0.776477 -0.000001 -0.776479
v 0.776480 0.117261 -0.659218
v 0.776480 1.552957 -0.776479
v 0.776480 1.435695 -0.659218
v 0.776480 0.117261 0.659216
v 0.776480 -0.000001 -0.776479
v 0.776480 1.552957 0.776478
v 0.776480 1.435695 0.659216
v 0.776480 -0.000001 0.776478
v -0.659215 1.435695 0.776478
v -0.659215 0.117261 0.776478
v 0.659218 1.435695 -0.776479
v 0.659218 0.117261 0.776478
v 0.659218 1.435695 0.776478
v -0.668689 1.552957 -0.668691
v 0.668692 -0.000001 -0.668691
v 0.668692 1.552957 -0.668691
v 0.668692 -0.000001 0.668690
v 0.664577 1.437896 -0.664575
v 0.664577 0.115060 0.664575
v 0.664577 1.437896 0.664575
vt 0.393483 0.591357
vt 0.676812 0.565596
vt 0.675816 0.589571
vt 0.676125 0.638451
vt 0.393473 0.664231
vt 0.393793 0.640237
vt 0.391459 0.592057
vt 0.676812 0.565596
vt 0.677849 0.590246
vt 0.393475 0.590015
vt 0.676127 0.564236
vt 0.675807 0.588230
vt 0.676125 0.638451
vt 0.392797 0.664212
vt 0.393793 0.640237
vt 0.391467 0.593398
vt 0.676820 0.566937
vt 0.677857 0.591587
vt 0.393793 0.640237
vt 0.701077 0.613182
vt 0.676125 0.638451
vt 0.675816 0.589571
vt 0.368532 0.616626
vt 0.393483 0.591357
vt 0.701077 0.613182
vt 0.701077 0.613182
vt 0.675816 0.589571
vt 0.368532 0.616626
vt 0.393483 0.591357
vt 0.393801 0.641578
vt 0.701086 0.614523
vt 0.676134 0.639792
vt 0.393801 0.641578
vt 0.701086 0.614523
vt 0.676134 0.639792
vt 0.393801 0.641578
vt 0.701086 0.614523
vt 0.676134 0.639792
vt 0.393801 0.641578
vt 0.701086 0.614523
vt 0.676134 0.639792
vt 0.368523 0.615285
vt 0.368532 0.616626
vt 0.675816 0.589571
vt 0.393483 0.591357
vt 0.393801 0.641578
vt 0.676134 0.639792
vt 0.675816 0.589571
vt 0.368532 0.616626
vt 0.393483 0.591357
vt 0.393801 0.641578
vt 0.676134 0.639792
vt 0.393801 0.641578
vt 0.701086 0.614523
vt 0.676134 0.639792
vt 0.368523 0.615285
vt 0.677849 0.590246
vt 0.368523 0.615285
vt 0.391459 0.592057
vt 0.391760 0.639562
vt 0.678150 0.637751
vt 0.391760 0.639562
vt 0.701086 0.614523
vt 0.678150 0.637751
vt 0.677857 0.591587
vt 0.368532 0.616626
vt 0.391467 0.593398
vt 0.677858 0.591587
vt 0.391467 0.593398
vt 0.677857 0.591587
vt 0.368532 0.616626
vt 0.391467 0.593398
vt 0.673337 0.974772
vt 0.388704 0.691491
vt 0.673337 0.691491
vt 0.673337 0.974772
vt 0.388704 0.691491
vt 0.673337 0.691491
vt 0.673337 0.974772
vt 0.388703 0.691491
vt 0.673337 0.691491
vt 0.673337 0.974772
vt 0.388703 0.691491
vt 0.673337 0.691491
vt 0.388703 0.976124
vt 0.673337 0.976124
vt 0.388703 0.976124
vt 0.673337 0.691491
vt 0.673337 0.976124
vt 0.676812 0.565596
vt 0.676136 0.565577
vt 0.392797 0.664212
vt 0.392805 0.665553
vt 0.393482 0.665572
vt 0.392797 0.664212
vt 0.392805 0.665553
vt 0.676135 0.565577
vt 0.676820 0.566937
vt 0.393482 0.665572
vt 0.392805 0.665553
vt 0.676820 0.566937
vt 0.392805 0.665553
vt 0.676820 0.566937
vt 0.676135 0.565577
vt 0.393482 0.665572
vt 0.392184 0.567396
vt 0.676748 0.662439
vt 0.392852 0.566028
vt 0.677425 0.662412
vt 0.392193 0.568737
vt 0.388703 0.974772
vt 0.388704 0.974772
vt 0.388703 0.974772
vt 0.388703 0.974772
vt 0.388704 0.691491
vt 0.392184 0.567396
vt 0.392860 0.567369
vt 0.392184 0.567396
vt 0.677424 0.662412
vt 0.677433 0.663753
vt 0.676757 0.663780
vt 0.677433 0.663753
vt 0.392860 0.567369
vt 0.392193 0.568737
vt 0.676757 0.663780
vt 0.677433 0.663753
vt 0.392193 0.568737
vt 0.677425 0.662412
vt 0.677433 0.663753
vt 0.392193 0.568737
vt 0.392860 0.567369
vt 0.676757 0.663780
vn 0.0000 0.9998 0.0197
vn 0.0478 -0.0000 0.9989
vn 0.9994 -0.0357 -0.0000
vn 0.9989 0.0000 0.0478
vn 0.0197 -0.9998 -0.0000
vn 0.0000 0.0357 -0.9994
vn -1.0000 0.0000 0.0000
vn 1.0000 -0.0000 0.0000
vn -0.0000 -0.0000 1.0000
vn 0.0000 0.0000 -1.0000
vn 0.0000 -1.0000 -0.0000
vn -0.0000 1.0000 -0.0000
vn 0.9994 0.0357 0.0000
vn -0.0478 -0.0000 0.9989
vn 0.0000 -0.9998 0.0197
vn 0.0000 -0.0357 0.9994
vn -0.0197 0.9998 0.0000
vn -0.9989 0.0000 0.0478
vn 0.0000 0.0357 0.9994
vn -0.0197 -0.9998 0.0000
vn -0.9989 0.0000 -0.0478
vn -0.9994 -0.0357 -0.0000
vn -0.0478 0.0000 -0.9989
vn 0.0000 0.9998 -0.0197
vn -0.9994 0.0357 0.0000
vn 0.0197 0.9998 0.0000
vn 0.0000 -0.9998 -0.0197
vn 0.0000 -0.0357 -0.9994
vn 0.0478 0.0000 -0.9989
vn 0.9989 0.0000 -0.0478
usemtl room2.007
s 1
f 1/1/1 2/2/1 3/3/1
f 4/4/2 5/5/2 6/6/2
f 7/7/3 8/8/3 9/9/3
f 10/10/4 11/11/4 1/12/4
f 6/13/5 12/14/5 13/15/5
f 14/16/6 12/17/6 15/18/6
f 4/19/7 16/20/7 17/21/7
f 17/22/7 18/23/7 13/24/7
f 13/15/7 19/25/7 6/13/7
f 6/6/7 20/26/7 4/4/7
f 21/27/8 22/28/8 23/29/8
f 24/30/8 25/31/8 21/32/8
f 23/33/8 26/34/8 27/35/8
f 27/36/8 28/37/8 24/38/8
f 29/39/9 16/40/9 30/41/9
f 1/12/10 19/42/10 10/10/10
f 3/3/10 20/43/10 1/1/10
f 10/44/10 22/28/10 31/45/10
f 31/46/10 25/31/10 3/47/10
f 32/48/9 26/49/9 33/50/9
f 30/51/9 28/37/9 32/52/9
f 33/53/9 18/54/9 29/55/9
f 9/9/11 20/56/11 7/7/11
f 34/57/12 18/58/12 15/59/12
f 7/60/11 25/31/11 35/61/11
f 36/62/12 19/63/12 34/64/12
f 35/65/11 28/66/11 37/67/11
f 14/68/12 22/28/12 36/69/12
f 37/70/11 16/71/11 9/72/11
f 15/18/12 26/49/12 14/16/12
f 12/73/7 11/74/7 8/75/7
f 5/76/10 2/77/10 11/78/10
f 38/79/8 39/80/8 2/81/8
f 40/82/9 8/83/9 39/84/9
f 2/85/11 8/75/11 11/86/11
f 5/87/12 40/88/12 38/89/12
f 15/59/13 5/90/13 34/57/13
f 23/29/14 2/91/14 21/27/14
f 31/45/15 5/90/15 10/44/15
f 35/61/16 11/92/16 7/60/16
f 21/32/17 39/93/17 24/30/17
f 3/47/18 38/94/18 31/46/18
f 34/64/19 38/95/19 36/62/19
f 27/35/20 38/96/20 23/33/20
f 33/50/21 39/97/21 32/48/21
f 37/67/22 2/98/22 35/65/22
f 24/38/23 40/99/23 27/36/23
f 32/52/24 8/100/24 30/51/24
f 36/69/25 40/101/25 14/68/25
f 17/21/26 11/92/26 4/19/26
f 29/55/27 40/102/27 33/53/27
f 9/72/28 39/103/28 37/70/28
f 13/24/29 8/104/29 17/22/29
f 30/41/30 12/105/30 29/39/30
f 1/1/1 11/106/1 2/2/1
f 4/4/2 11/107/2 5/5/2
f 7/7/3 11/106/3 8/8/3
f 10/10/4 5/108/4 11/11/4
f 6/13/5 5/109/5 12/14/5
f 14/16/6 40/110/6 12/17/6
f 4/19/7 20/56/7 16/20/7
f 17/22/7 16/40/7 18/23/7
f 13/15/7 18/58/7 19/25/7
f 6/6/7 19/42/7 20/26/7
f 21/27/8 25/31/8 22/28/8
f 24/30/8 28/66/8 25/31/8
f 23/33/8 22/28/8 26/34/8
f 27/36/8 26/49/8 28/37/8
f 29/39/9 18/23/9 16/40/9
f 1/12/10 20/26/10 19/42/10
f 3/3/10 25/31/10 20/43/10
f 10/44/10 19/63/10 22/28/10
f 31/46/10 22/28/10 25/31/10
f 32/48/9 28/37/9 26/49/9
f 30/51/9 16/71/9 28/37/9
f 33/53/9 26/49/9 18/54/9
f 9/9/11 16/20/11 20/56/11
f 34/57/12 19/25/12 18/58/12
f 7/60/11 20/43/11 25/31/11
f 36/62/12 22/28/12 19/63/12
f 35/65/11 25/31/11 28/66/11
f 14/68/12 26/34/12 22/28/12
f 37/70/11 28/37/11 16/71/11
f 15/18/12 18/54/12 26/49/12
f 12/73/7 5/111/7 11/74/7
f 5/76/10 38/112/10 2/77/10
f 38/79/8 40/113/8 39/80/8
f 40/82/9 12/114/9 8/83/9
f 2/85/11 39/80/11 8/75/11
f 5/87/12 12/115/12 40/88/12
f 15/59/13 12/116/13 5/90/13
f 23/29/14 38/117/14 2/91/14
f 31/45/15 38/118/15 5/90/15
f 35/61/16 2/119/16 11/92/16
f 21/32/17 2/120/17 39/93/17
f 3/47/18 2/121/18 38/94/18
f 34/64/19 5/109/19 38/95/19
f 27/35/20 40/122/20 38/96/20
f 33/50/21 40/123/21 39/97/21
f 37/67/22 39/124/22 2/98/22
f 24/38/23 39/125/23 40/99/23
f 32/52/24 39/126/24 8/100/24
f 36/69/25 38/127/25 40/101/25
f 17/21/26 8/128/26 11/92/26
f 29/55/27 12/129/27 40/102/27
f 9/72/28 8/130/28 39/103/28
f 13/24/29 12/131/29 8/104/29
f 30/41/30 8/132/30 12/105/30
