# Blender v2.80 (sub 75) OBJ File: 'Arrow_Start.blend'
# www.blender.org
mtllib Arrow_End.mtl
o Cube_Cube.001
v -1.000000 0.001000 0.300000
v -1.000000 0.501000 0.300000
v -1.000000 0.001000 -0.300000
v -1.000000 0.501000 -0.300000
v 1.000000 0.001000 0.300000
v 1.000000 0.501000 0.300000
v 1.000000 0.001000 -0.300000
v 1.000000 0.501000 -0.300000
vt 0.625000 0.000000
vt 0.375000 0.250000
vt 0.375000 0.000000
vt 0.625000 0.250000
vt 0.375000 0.500000
vt 0.625000 0.500000
vt 0.375000 0.750000
vt 0.625000 0.750000
vt 0.375000 1.000000
vt 0.125000 0.750000
vt 0.125000 0.500000
vt 0.875000 0.500000
vt 0.625000 1.000000
vt 0.875000 0.750000
vn -1.0000 0.0000 0.0000
vn 0.0000 0.0000 -1.0000
vn 1.0000 0.0000 0.0000
vn 0.0000 0.0000 1.0000
vn 0.0000 -1.0000 0.0000
vn 0.0000 1.0000 0.0000
usemtl None
s off
f 2/1/1 3/2/1 1/3/1
f 4/4/2 7/5/2 3/2/2
f 8/6/3 5/7/3 7/5/3
f 6/8/4 1/9/4 5/7/4
f 7/5/5 1/10/5 3/11/5
f 4/12/6 6/8/6 8/6/6
f 2/1/1 4/4/1 3/2/1
f 4/4/2 8/6/2 7/5/2
f 8/6/3 6/8/3 5/7/3
f 6/8/4 2/13/4 1/9/4
f 7/5/5 5/7/5 1/10/5
f 4/12/6 2/14/6 6/8/6
o Cube.001_Cube.002
v -1.000000 0.001000 -0.600000
v -1.000000 0.501000 -0.600000
v -1.000000 0.001000 -1.200000
v -1.000000 0.501000 -1.200000
v 1.000000 0.001000 -0.600000
v 1.000000 0.501000 -0.600000
v 1.000000 0.001000 -1.200000
v 1.000000 0.501000 -1.200000
vt 0.625000 0.000000
vt 0.375000 0.250000
vt 0.375000 0.000000
vt 0.625000 0.250000
vt 0.375000 0.500000
vt 0.625000 0.500000
vt 0.375000 0.750000
vt 0.625000 0.750000
vt 0.375000 1.000000
vt 0.125000 0.750000
vt 0.125000 0.500000
vt 0.875000 0.500000
vt 0.625000 1.000000
vt 0.875000 0.750000
vn -1.0000 0.0000 0.0000
vn 0.0000 0.0000 -1.0000
vn 1.0000 0.0000 0.0000
vn 0.0000 0.0000 1.0000
vn 0.0000 -1.0000 0.0000
vn 0.0000 1.0000 0.0000
usemtl None
s off
f 10/15/7 11/16/7 9/17/7
f 12/18/8 15/19/8 11/16/8
f 16/20/9 13/21/9 15/19/9
f 14/22/10 9/23/10 13/21/10
f 15/19/11 9/24/11 11/25/11
f 12/26/12 14/22/12 16/20/12
f 10/15/7 12/18/7 11/16/7
f 12/18/8 16/20/8 15/19/8
f 16/20/9 14/22/9 13/21/9
f 14/22/10 10/27/10 9/23/10
f 15/19/11 13/21/11 9/24/11
f 12/26/12 10/28/12 14/22/12
o Cube.002_Cube.003
v -1.000000 0.001000 -1.510000
v -1.000000 0.501000 -1.510000
v -1.000000 0.001000 -2.110000
v -1.000000 0.501000 -2.110000
v 1.000000 0.001000 -1.510000
v 1.000000 0.501000 -1.510000
v 1.000000 0.001000 -2.110000
v 1.000000 0.501000 -2.110000
vt 0.625000 0.000000
vt 0.375000 0.250000
vt 0.375000 0.000000
vt 0.625000 0.250000
vt 0.375000 0.500000
vt 0.625000 0.500000
vt 0.375000 0.750000
vt 0.625000 0.750000
vt 0.375000 1.000000
vt 0.125000 0.750000
vt 0.125000 0.500000
vt 0.875000 0.500000
vt 0.625000 1.000000
vt 0.875000 0.750000
vn -1.0000 0.0000 0.0000
vn 0.0000 0.0000 -1.0000
vn 1.0000 0.0000 0.0000
vn 0.0000 0.0000 1.0000
vn 0.0000 -1.0000 0.0000
vn 0.0000 1.0000 0.0000
usemtl None
s off
f 18/29/13 19/30/13 17/31/13
f 20/32/14 23/33/14 19/30/14
f 24/34/15 21/35/15 23/33/15
f 22/36/16 17/37/16 21/35/16
f 23/33/17 17/38/17 19/39/17
f 20/40/18 22/36/18 24/34/18
f 18/29/13 20/32/13 19/30/13
f 20/32/14 24/34/14 23/33/14
f 24/34/15 22/36/15 21/35/15
f 22/36/16 18/41/16 17/37/16
f 23/33/17 21/35/17 17/38/17
f 20/40/18 18/42/18 22/36/18
o Cube.003_Cube.004
v -0.800000 0.001000 -2.480000
v -0.800000 0.501000 -2.480000
v -1.000000 0.001000 -2.480000
v -1.000000 0.501000 -2.480000
v 0.800000 0.001000 -2.480000
v 0.800000 0.501000 -2.480000
v 1.000000 0.001000 -2.480000
v 1.000000 0.501000 -2.480000
v 0.000000 0.001000 -3.080000
v 0.000000 0.501000 -3.080000
v 0.000000 0.001000 -2.770000
v 0.000000 0.501000 -2.770000
vt 0.625000 0.000000
vt 0.375000 0.250000
vt 0.375000 0.000000
vt 0.625000 0.375000
vt 0.375000 0.500000
vt 0.375000 0.375000
vt 0.625000 0.500000
vt 0.375000 0.750000
vt 0.625000 0.875000
vt 0.375000 1.000000
vt 0.375000 0.875000
vt 0.250000 0.500000
vt 0.250000 0.750000
vt 0.750000 0.500000
vt 0.875000 0.750000
vt 0.750000 0.750000
vt 0.625000 0.750000
vt 0.125000 0.750000
vt 0.125000 0.500000
vt 0.625000 0.250000
vt 0.625000 1.000000
vt 0.875000 0.500000
vn 0.0000 0.0000 1.0000
vn 0.5145 0.0000 -0.8575
vn 0.3408 0.0000 0.9401
vn 0.0000 -1.0000 0.0000
vn 0.0000 1.0000 0.0000
vn -0.3408 0.0000 0.9401
vn -0.5145 0.0000 -0.8575
usemtl None
s off
f 26/43/19 27/44/19 25/45/19
f 34/46/20 31/47/20 33/48/20
f 32/49/19 29/50/19 31/47/19
f 36/51/21 25/52/21 35/53/21
f 33/54/22 29/50/22 35/55/22
f 34/56/23 26/57/23 36/58/23
f 34/56/23 30/59/23 32/49/23
f 33/54/22 25/60/22 27/61/22
f 30/59/24 35/53/24 29/50/24
f 28/62/25 33/48/25 27/44/25
f 26/43/19 28/62/19 27/44/19
f 34/46/20 32/49/20 31/47/20
f 32/49/19 30/59/19 29/50/19
f 36/51/21 26/63/21 25/52/21
f 33/54/22 31/47/22 29/50/22
f 34/56/23 28/64/23 26/57/23
f 34/56/23 36/58/23 30/59/23
f 33/54/22 35/55/22 25/60/22
f 30/59/24 36/51/24 35/53/24
f 28/62/25 34/46/25 33/48/25
