# Blender v2.80 (sub 75) OBJ File: 'arrow.blend'
# www.blender.org
mtllib arrow.mtl
o Cylinder.001_Cylinder.002
v 0.004532 3.316566 0.018061
v 0.004532 0.000584 0.021104
v 0.013316 3.316566 0.014422
v 0.015468 -0.004740 0.016574
v 0.016955 3.316566 0.005638
v 0.019998 -0.004740 0.005638
v 0.013316 3.316566 -0.003146
v 0.015468 -0.004740 -0.005298
v 0.004532 3.316566 -0.006784
v 0.004532 0.000584 -0.009828
v -0.004252 3.316566 -0.003146
v -0.006404 -0.004740 -0.005298
v -0.007890 3.316566 0.005638
v -0.010934 -0.004740 0.005638
v -0.004252 3.316566 0.014422
v -0.006404 -0.004740 0.016574
v 0.004532 0.000584 0.005638
v 0.004532 3.332923 0.005638
v 0.015216 3.298045 0.016322
v 0.019641 3.298045 0.005638
v 0.015216 3.298045 -0.005046
v 0.004532 3.298045 -0.009471
v -0.006152 3.298045 -0.005046
v -0.010577 3.298045 0.005638
v -0.006152 3.298045 0.016322
v 0.004532 3.298045 0.020747
v 0.004532 3.280314 0.021564
v -0.006729 3.280314 0.016900
v -0.011394 3.280314 0.005638
v -0.006729 3.280314 -0.005623
v 0.004532 3.280314 -0.010288
v 0.015794 3.280314 -0.005623
v 0.020458 3.280314 0.005638
v 0.015794 3.280314 0.016900
v 0.004532 3.289169 0.021330
v 0.015628 3.289169 0.016734
v 0.020224 3.289169 0.005638
v 0.015628 3.289169 -0.005457
v 0.004532 3.289169 -0.010053
v -0.006563 3.289169 -0.005457
v -0.011159 3.289169 0.005638
v -0.006563 3.289169 0.016734
v 0.004532 3.285830 0.023142
v 0.004532 3.283403 0.023275
v -0.007939 3.283403 0.018110
v -0.013105 3.283403 0.005638
v -0.007939 3.283403 -0.006833
v 0.004532 3.283403 -0.011999
v 0.017004 3.283403 -0.006833
v 0.022169 3.283403 0.005638
v 0.017004 3.283403 0.018110
v 0.016909 3.285830 0.018015
v 0.022036 3.285830 0.005638
v 0.016909 3.285830 -0.006739
v 0.004532 3.285830 -0.011866
v -0.007845 3.285830 -0.006739
v -0.012972 3.285830 0.005638
v -0.007845 3.285830 0.018015
v 0.002541 0.055756 0.036241
v 0.002541 0.037362 0.018479
v 0.002541 0.885782 0.039887
v 0.002541 1.096925 0.018479
v 0.006901 0.885782 0.039887
v 0.006901 0.055756 0.036241
v 0.006901 0.037362 0.018479
v 0.006901 1.096925 0.018479
v 0.002541 0.648994 0.054773
v 0.002541 0.350914 0.059694
v 0.002541 0.350914 0.018479
v 0.002541 0.648994 0.018479
v 0.006901 0.648994 0.054773
v 0.006901 0.350914 0.059694
v 0.006901 0.350914 0.018479
v 0.006901 0.648994 0.018479
v 0.002541 0.146257 0.053429
v 0.006901 0.146257 0.053429
v 0.002541 0.146257 0.018479
v 0.006901 0.146257 0.018479
v 0.002854 3.316566 -0.006089
v 0.002443 -0.004740 -0.008963
v 0.002854 3.316566 0.017366
v 0.002443 -0.004740 0.020239
v 0.001578 -0.004740 0.005638
v 0.002159 3.329798 0.005638
v 0.002491 3.298045 -0.008626
v 0.002491 3.298045 0.019902
v 0.002381 3.280314 0.020673
v 0.002381 3.280314 -0.009397
v 0.002413 3.289169 -0.009175
v 0.002413 3.289169 0.020452
v 0.002150 3.283403 0.022289
v 0.002150 3.283403 -0.011012
v 0.002168 3.285830 -0.010886
v 0.002168 3.285830 0.022163
v 0.006500 3.316566 0.017246
v 0.006982 -0.004740 0.020089
v 0.006500 3.316566 -0.005969
v 0.006982 -0.004740 -0.008813
v 0.007997 -0.004740 0.005638
v 0.007315 3.329259 0.005638
v 0.006925 3.298045 0.019756
v 0.006925 3.298045 -0.008480
v 0.007055 3.280314 -0.009243
v 0.007055 3.280314 0.020519
v 0.007018 3.289169 -0.009024
v 0.007018 3.289169 0.020300
v 0.007326 3.283403 -0.010842
v 0.007326 3.283403 0.022118
v 0.007305 3.285830 -0.010717
v 0.007305 3.285830 0.021994
v 0.004532 0.009107 0.021106
v 0.015469 0.009046 0.016575
v 0.020000 0.009046 0.005638
v 0.015469 0.009046 -0.005299
v 0.004532 0.009107 -0.009830
v -0.006405 0.009046 -0.005299
v -0.010935 0.009046 0.005638
v -0.006405 0.009046 0.016575
v 0.002443 0.009046 0.020240
v 0.002443 0.009046 -0.008964
v 0.006982 0.009046 -0.008815
v 0.006982 0.009045 0.020091
v 0.004532 0.004830 0.021105
v 0.002443 0.004764 0.020240
v 0.002443 0.004764 -0.008964
v 0.006982 0.004764 -0.008814
v 0.006982 0.004763 0.020090
v 0.015469 0.004764 0.016575
v 0.019999 0.004764 0.005638
v 0.015469 0.004764 -0.005299
v 0.004532 0.004831 -0.009829
v -0.006405 0.004764 -0.005299
v -0.010935 0.004764 0.005638
v -0.006405 0.004764 0.016575
v 0.014094 0.006906 0.015192
v 0.018051 0.006906 0.005638
v 0.014094 0.006906 -0.003916
v 0.004540 0.006962 -0.007873
v -0.005014 0.006906 -0.003916
v -0.008972 0.006906 0.005638
v -0.005014 0.006906 0.015192
v 0.004540 0.006962 0.019150
v 0.002715 0.006906 0.018394
v 0.002715 0.006906 -0.007117
v 0.006680 0.006906 -0.006987
v 0.006680 0.006906 0.018263
v 0.023088 0.055756 -0.018090
v 0.015870 0.037362 -0.003540
v 0.024570 0.885782 -0.021076
v 0.015870 1.096925 -0.003540
v 0.020998 0.885782 -0.024606
v 0.019516 0.055756 -0.021620
v 0.012298 0.037362 -0.007070
v 0.012298 1.096925 -0.007070
v 0.030619 0.648994 -0.033270
v 0.032619 0.350914 -0.037301
v 0.015870 0.350914 -0.003540
v 0.015870 0.648994 -0.003540
v 0.027047 0.648994 -0.036800
v 0.029047 0.350914 -0.040831
v 0.012298 0.350914 -0.007070
v 0.012298 0.648994 -0.007070
v 0.030073 0.146257 -0.032169
v 0.026501 0.146257 -0.035699
v 0.015870 0.146257 -0.003540
v 0.012298 0.146257 -0.007070
v -0.009195 0.055756 -0.018505
v -0.001977 0.037362 -0.003955
v -0.010677 0.885782 -0.021491
v -0.001977 1.096925 -0.003955
v -0.014249 0.885782 -0.017961
v -0.012767 0.055756 -0.014975
v -0.005549 0.037362 -0.000425
v -0.005549 1.096925 -0.000425
v -0.016726 0.648994 -0.033685
v -0.018726 0.350914 -0.037716
v -0.001977 0.350914 -0.003955
v -0.001977 0.648994 -0.003955
v -0.020298 0.648994 -0.030155
v -0.022298 0.350914 -0.034186
v -0.005549 0.350914 -0.000425
v -0.005549 0.648994 -0.000425
v -0.016180 0.146257 -0.032584
v -0.019752 0.146257 -0.029054
v -0.001977 0.146257 -0.003955
v -0.005549 0.146257 -0.000425
vt 0.465131 0.482819
vt 0.467060 0.482820
vt 0.467131 0.485388
vt 0.465400 0.485161
vt 0.414845 0.163798
vt 0.413311 0.162396
vt 0.416301 0.160126
vt 0.419872 0.160689
vt 0.425075 0.167346
vt 0.420108 0.166255
vt 0.421713 0.162839
vt 0.424981 0.163842
vt 0.429972 0.166441
vt 0.428444 0.163215
vt 0.435120 0.164248
vt 0.430424 0.161079
vt 0.443124 0.164351
vt 0.441922 0.163183
vt 0.444859 0.161161
vt 0.448198 0.161522
vt 0.425361 0.154521
vt 0.425197 0.159209
vt 0.453279 0.167913
vt 0.448268 0.167057
vt 0.449969 0.163631
vt 0.453164 0.164590
vt 0.458206 0.167198
vt 0.456577 0.163981
vt 0.459459 0.503340
vt 0.452454 0.509180
vt 0.452392 0.501373
vt 0.456511 0.501097
vt 0.453379 0.159911
vt 0.433875 0.160691
vt 0.453527 0.155393
vt 0.461674 0.161656
vt 0.458469 0.161873
vt 0.452487 0.511316
vt 0.444349 0.504023
vt 0.445237 0.503547
vt 0.429515 0.503647
vt 0.422455 0.509329
vt 0.422424 0.501678
vt 0.426632 0.501425
vt 0.415231 0.503798
vt 0.418087 0.501528
vt 0.411283 0.494062
vt 0.416396 0.492865
vt 0.422418 0.492482
vt 0.428522 0.492937
vt 0.433528 0.494149
vt 0.434984 0.494578
vt 0.430566 0.504202
vt 0.441273 0.494032
vt 0.446469 0.492793
vt 0.448139 0.501232
vt 0.452343 0.492394
vt 0.458305 0.492814
vt 0.463404 0.494021
vt 0.464618 0.494374
vt 0.460338 0.503797
vt 0.409680 0.482359
vt 0.415768 0.482567
vt 0.415732 0.484493
vt 0.409377 0.484786
vt 0.464596 0.488895
vt 0.458905 0.487996
vt 0.459060 0.486029
vt 0.465210 0.486708
vt 0.422548 0.482585
vt 0.422525 0.484453
vt 0.452403 0.487755
vt 0.452422 0.485814
vt 0.429392 0.482572
vt 0.429353 0.484647
vt 0.445914 0.488075
vt 0.445793 0.485959
vt 0.435319 0.482635
vt 0.437673 0.482649
vt 0.437684 0.485340
vt 0.435574 0.485042
vt 0.463208 0.164745
vt 0.415858 0.488013
vt 0.422501 0.487726
vt 0.429150 0.487989
vt 0.434761 0.488899
vt 0.440036 0.494384
vt 0.438710 0.489107
vt 0.440104 0.488844
vt 0.409796 0.494478
vt 0.408433 0.489054
vt 0.410120 0.488737
vt 0.409547 0.486419
vt 0.407537 0.486702
vt 0.407227 0.485047
vt 0.459107 0.484735
vt 0.452411 0.484552
vt 0.445752 0.484645
vt 0.439509 0.486603
vt 0.437858 0.486835
vt 0.437572 0.485240
vt 0.439331 0.485027
vt 0.435376 0.486642
vt 0.429308 0.485973
vt 0.422530 0.485741
vt 0.415757 0.485840
vt 0.452425 0.482720
vt 0.459156 0.482709
vt 0.445759 0.482766
vt 0.439623 0.482664
vt 0.440010 0.091654
vt 0.439275 0.110381
vt 0.438205 0.135186
vt 0.413889 0.098453
vt 0.443537 0.091700
vt 0.469335 0.099675
vt 0.443248 0.135328
vt 0.443411 0.110447
vt 0.441012 0.063392
vt 0.440909 0.053998
vt 0.444326 0.053979
vt 0.443768 0.063348
vt 0.441012 0.063392
vt 0.440909 0.053998
vt 0.444326 0.053979
vt 0.443768 0.063348
vt 0.439995 0.039859
vt 0.446079 0.040209
vt 0.440639 0.073957
vt 0.443688 0.073982
vt 0.443537 0.091700
vt 0.469335 0.099675
vt 0.443248 0.135328
vt 0.443411 0.110447
vt 0.438205 0.135186
vt 0.439275 0.110381
vt 0.459141 0.046021
vt 0.473435 0.066289
vt 0.411146 0.064903
vt 0.426361 0.045118
vt 0.440010 0.091654
vt 0.413889 0.098453
vt 0.466830 0.486954
vt 0.465966 0.489172
vt 0.464386 0.163670
vt 0.436417 0.489246
vt 0.437345 0.486960
vt 0.407297 0.482328
vt 0.414164 0.504369
vt 0.422484 0.511888
vt 0.436635 0.162961
vt 0.413261 0.167580
vt 0.419225 0.169449
vt 0.436542 0.167932
vt 0.439245 0.167637
vt 0.441521 0.167916
vt 0.447378 0.169873
vt 0.464671 0.168189
vt 0.466829 0.167942
vt 0.459024 0.169973
vt 0.453232 0.170926
vt 0.430754 0.169588
vt 0.425033 0.169759
vt 0.410448 0.167218
vt 0.419572 0.167804
vt 0.414201 0.165664
vt 0.437488 0.165281
vt 0.435685 0.166061
vt 0.447812 0.168412
vt 0.442474 0.166114
vt 0.465196 0.165803
vt 0.463790 0.166447
vt 0.458622 0.168537
vt 0.453250 0.169400
vt 0.441009 0.165406
vt 0.430450 0.167972
vt 0.425053 0.168511
vt 0.412341 0.164797
vt 0.439995 0.039859
vt 0.446079 0.040209
vt 0.440639 0.073957
vt 0.443688 0.073982
vt 0.459141 0.046021
vt 0.473435 0.066289
vt 0.411146 0.064903
vt 0.426361 0.045118
vt 0.440010 0.091654
vt 0.439275 0.110381
vt 0.438205 0.135186
vt 0.413889 0.098453
vt 0.443537 0.091700
vt 0.469335 0.099675
vt 0.443248 0.135328
vt 0.443411 0.110447
vt 0.441012 0.063392
vt 0.440909 0.053998
vt 0.444326 0.053979
vt 0.443768 0.063348
vt 0.439995 0.039859
vt 0.446079 0.040209
vt 0.440639 0.073957
vt 0.443688 0.073982
vt 0.459141 0.046021
vt 0.473435 0.066289
vt 0.411146 0.064903
vt 0.426361 0.045118
vn -0.3406 -0.4556 0.8224
vn 0.3825 -0.0001 0.9239
vn 0.9239 -0.0001 0.3827
vn 0.9239 -0.0001 -0.3827
vn 0.3827 -0.0001 -0.9239
vn -0.3825 -0.0001 -0.9239
vn -0.8750 -0.4832 -0.0297
vn -0.9239 -0.0001 -0.3827
vn -0.9239 -0.0001 0.3827
vn -0.5742 0.6274 0.5260
vn 0.0000 -1.0000 -0.0000
vn -0.8750 -0.4832 0.0297
vn 0.9043 -0.4262 -0.0260
vn -0.5240 0.5312 -0.6658
vn 0.5761 0.6315 -0.5189
vn 0.5761 0.6315 0.5189
vn 0.3793 0.1328 0.9157
vn 0.9157 0.1328 0.3793
vn 0.9157 0.1328 -0.3793
vn 0.3793 0.1328 -0.9157
vn -0.3793 0.1328 -0.9157
vn -0.9157 0.1328 -0.3793
vn -0.9157 0.1328 0.3793
vn -0.3793 0.1328 0.9157
vn 0.3407 -0.4556 0.8224
vn -0.3421 0.4482 0.8259
vn 0.8224 -0.4556 0.3406
vn -0.8259 0.4483 0.3421
vn 0.8224 -0.4556 -0.3406
vn -0.8259 0.4483 -0.3421
vn 0.3407 -0.4556 -0.8224
vn -0.3827 -0.0001 0.9239
vn 0.9222 0.0605 0.3820
vn 0.9222 0.0605 -0.3820
vn 0.3820 0.0605 -0.9222
vn -0.3820 0.0605 -0.9222
vn -0.9222 0.0605 -0.3820
vn -0.9222 0.0605 0.3820
vn -0.3820 0.0605 0.9222
vn 0.3820 0.0605 0.9222
vn 0.3821 0.0507 0.9227
vn -0.3822 0.0507 0.9227
vn -0.9227 0.0507 0.3821
vn -0.9227 0.0507 -0.3821
vn -0.3822 0.0507 -0.9227
vn 0.3822 0.0507 -0.9227
vn 0.9227 0.0507 -0.3822
vn 0.9227 0.0507 0.3822
vn 0.3421 0.4483 0.8258
vn 0.8259 0.4483 0.3421
vn -0.8224 -0.4556 0.3407
vn 0.8259 0.4483 -0.3421
vn -0.8224 -0.4556 -0.3407
vn 0.3421 0.4483 -0.8259
vn -0.3407 -0.4557 -0.8224
vn -0.3421 0.4483 -0.8259
vn -1.0000 0.0000 0.0000
vn 1.0000 -0.0000 -0.0000
vn 0.6936 -0.1627 -0.7018
vn 0.0000 -0.1866 0.9824
vn 0.0000 0.1009 0.9949
vn 0.0000 -0.6946 0.7193
vn 0.0000 0.0627 0.9980
vn 0.0000 0.0165 0.9999
vn -0.8958 0.0000 -0.4444
vn 0.7002 0.0877 -0.7085
vn 0.8958 -0.0000 0.4444
vn 0.0000 -0.0306 0.9995
vn -0.3421 0.4482 -0.8259
vn -0.3407 -0.4556 -0.8224
vn -0.3825 -0.0001 0.9239
vn -0.5742 0.6274 -0.5260
vn 0.9043 -0.4262 0.0260
vn -0.5240 0.5312 0.6658
vn -0.3827 -0.0001 -0.9239
vn -0.3406 -0.4556 0.8225
vn 0.3421 0.4483 -0.8258
vn 0.3421 0.4482 0.8259
vn 0.3821 0.0507 -0.9227
vn 0.3823 0.0507 0.9227
vn 0.3406 -0.4556 -0.8224
vn 0.5253 0.5336 0.6629
vn 0.5253 0.5336 -0.6628
vn 0.3825 -0.0001 -0.9239
vn 0.3827 -0.0001 0.9239
vn 0.2927 0.6441 0.7068
vn 0.3079 0.6424 -0.7018
vn -0.2924 0.6453 -0.7058
vn -0.3101 0.6431 0.7002
vn -0.2924 0.6453 0.7058
vn -0.7051 0.6461 0.2921
vn -0.7051 0.6461 -0.2921
vn -0.3102 0.6431 -0.7001
vn 0.2927 0.6441 -0.7067
vn 0.7074 0.6432 -0.2930
vn 0.7074 0.6432 0.2930
vn 0.3080 0.6424 0.7018
vn 0.2777 -0.6466 0.7105
vn 0.7070 -0.6438 0.2928
vn 0.7070 -0.6438 -0.2928
vn 0.2926 -0.6447 -0.7063
vn -0.2747 -0.6482 -0.7102
vn -0.7047 -0.6467 -0.2919
vn -0.7047 -0.6467 0.2919
vn -0.2922 -0.6459 0.7053
vn -0.2748 -0.6482 0.7102
vn -0.2922 -0.6459 -0.7053
vn 0.2778 -0.6465 -0.7105
vn 0.2926 -0.6447 0.7063
vn 0.5387 -0.6425 -0.5450
vn 0.7019 0.0545 -0.7102
vn 0.7029 0.0143 -0.7112
vn 0.7027 -0.0266 -0.7110
vn 0.8958 0.0000 -0.4444
vn -0.8958 -0.0000 0.4444
vn -0.6936 -0.1627 -0.7018
vn -0.7002 0.0877 -0.7085
vn -0.5387 -0.6425 -0.5450
vn -0.7019 0.0545 -0.7102
vn -0.7029 0.0143 -0.7112
vn -0.7027 -0.0266 -0.7110
usemtl None
s off
f 87/1/1 27/2/1 44/3/1 91/4/1
f 127/5/2 123/6/2 2/7/2 96/8/2
f 129/9/3 128/10/3 4/11/3 6/12/3
f 130/13/4 129/9/4 6/12/4 8/14/4
f 126/15/5 130/13/5 8/14/5 98/16/5
f 125/17/6 131/18/6 10/19/6 80/20/6
f 96/8/7 2/7/7 17/21/7 99/22/7
f 133/23/8 132/24/8 12/25/8 14/26/8
f 134/27/9 133/23/9 14/26/9 16/28/9
f 81/29/10 84/30/10 13/31/10 15/32/10
f 80/20/11 83/33/11 14/26/11 12/25/11
f 99/22/12 17/21/12 10/34/12 98/16/12
f 83/33/13 17/35/13 2/36/13 82/37/13
f 84/30/14 18/38/14 9/39/14 79/40/14
f 97/41/15 100/42/15 5/43/15 7/44/15
f 100/42/16 95/45/16 3/46/16 5/43/16
f 95/45/17 101/47/17 19/48/17 3/46/17
f 3/46/18 19/48/18 20/49/18 5/43/18
f 5/43/19 20/49/19 21/50/19 7/44/19
f 97/41/20 102/51/20 22/52/20 9/53/20
f 79/40/21 85/54/21 23/55/21 11/56/21
f 11/56/22 23/55/22 24/57/22 13/31/22
f 13/31/23 24/57/23 25/58/23 15/32/23
f 81/29/24 86/59/24 26/60/24 1/61/24
f 104/62/25 34/63/25 51/64/25 108/65/25
f 90/66/26 42/67/26 58/68/26 94/69/26
f 34/63/27 33/70/27 50/71/27 51/64/27
f 42/67/28 41/72/28 57/73/28 58/68/28
f 33/70/29 32/74/29 49/75/29 50/71/29
f 41/72/30 40/76/30 56/77/30 57/73/30
f 103/78/31 31/79/31 48/80/31 107/81/31
f 124/82/32 134/27/32 16/28/32 82/37/32
f 20/49/33 19/48/33 36/83/33 37/84/33
f 21/50/34 20/49/34 37/84/34 38/85/34
f 102/51/35 21/50/35 38/85/35 105/86/35
f 85/54/36 22/87/36 39/88/36 89/89/36
f 24/57/37 23/55/37 40/76/37 41/72/37
f 25/58/38 24/57/38 41/72/38 42/67/38
f 86/59/39 25/58/39 42/67/39 90/66/39
f 101/47/40 26/90/40 35/91/40 106/92/40
f 110/93/41 43/94/41 44/95/41 108/65/41
f 94/69/42 58/68/42 45/96/42 91/4/42
f 58/68/43 57/73/43 46/97/43 45/96/43
f 57/73/44 56/77/44 47/98/44 46/97/44
f 93/99/45 55/100/45 48/101/45 92/102/45
f 109/103/46 54/104/46 49/75/46 107/81/46
f 54/104/47 53/105/47 50/71/47 49/75/47
f 53/105/48 52/106/48 51/64/48 50/71/48
f 106/92/49 35/91/49 43/94/49 110/93/49
f 37/84/50 36/83/50 52/106/50 53/105/50
f 29/107/51 28/108/51 45/96/51 46/97/51
f 38/85/52 37/84/52 53/105/52 54/104/52
f 30/109/53 29/107/53 46/97/53 47/98/53
f 105/86/54 38/85/54 54/104/54 109/103/54
f 88/110/55 30/109/55 47/98/55 92/102/55
f 89/89/56 39/88/56 55/100/56 93/99/56
f 67/111/57 61/112/57 62/113/57 70/114/57
f 71/115/58 74/116/58 66/117/58 63/118/58
f 163/119/59 147/120/59 152/121/59 164/122/59
f 75/123/60 59/124/60 64/125/60 76/126/60
f 62/113/61 61/112/61 63/118/61 66/117/61
f 59/124/62 60/127/62 65/128/62 64/125/62
f 61/112/63 67/111/63 71/115/63 63/118/63
f 67/111/64 68/129/64 72/130/64 71/115/64
f 159/131/65 162/132/65 154/133/65 151/134/65
f 150/135/66 149/136/66 151/134/66 154/133/66
f 76/126/58 78/137/58 73/138/58 72/130/58
f 72/130/58 73/138/58 74/116/58 71/115/58
f 75/123/57 68/129/57 69/139/57 77/140/57
f 68/129/57 67/111/57 70/114/57 69/139/57
f 59/124/57 75/123/57 77/140/57 60/127/57
f 64/125/58 65/128/58 78/137/58 76/126/58
f 155/141/67 149/136/67 150/135/67 158/142/67
f 68/129/68 75/123/68 76/126/68 72/130/68
f 40/76/69 89/89/69 93/99/69 56/77/69
f 31/79/70 88/110/70 92/102/70 48/101/70
f 56/77/45 93/99/45 92/102/45 47/98/45
f 43/143/42 94/69/42 91/4/42 44/3/42
f 26/60/39 86/59/39 90/66/39 35/144/39
f 23/55/36 85/54/36 89/89/36 40/76/36
f 123/145/71 124/82/71 82/37/71 2/36/71
f 35/144/26 90/66/26 94/69/26 43/143/26
f 15/32/24 25/58/24 86/59/24 81/29/24
f 9/39/21 22/87/21 85/54/21 79/40/21
f 13/31/72 84/30/72 79/40/72 11/56/72
f 14/26/11 83/33/11 82/37/11 16/28/11
f 10/19/73 17/35/73 83/33/73 80/20/73
f 1/61/74 18/38/74 84/30/74 81/29/74
f 132/24/75 125/17/75 80/20/75 12/25/75
f 28/108/76 87/1/76 91/4/76 45/96/76
f 39/146/77 105/86/77 109/103/77 55/147/77
f 36/83/78 106/92/78 110/93/78 52/106/78
f 55/147/79 109/103/79 107/81/79 48/80/79
f 52/106/80 110/93/80 108/65/80 51/64/80
f 19/48/40 101/47/40 106/92/40 36/83/40
f 22/52/35 102/51/35 105/86/35 39/146/35
f 32/74/81 103/78/81 107/81/81 49/75/81
f 27/148/25 104/62/25 108/65/25 44/95/25
f 7/44/20 21/50/20 102/51/20 97/41/20
f 1/149/17 26/90/17 101/47/17 95/45/17
f 18/150/82 1/149/82 95/45/82 100/42/82
f 9/53/83 18/150/83 100/42/83 97/41/83
f 6/12/11 99/22/11 98/16/11 8/14/11
f 4/11/11 96/8/11 99/22/11 6/12/11
f 131/151/84 126/15/84 98/16/84 10/34/84
f 128/10/85 127/5/85 96/8/85 4/11/85
f 34/63/85 104/62/85 122/152/85 112/153/85
f 31/79/5 103/78/5 121/154/5 115/155/5
f 30/109/75 88/110/75 120/156/75 116/157/75
f 27/2/32 87/1/32 119/158/32 111/159/32
f 87/1/32 28/108/32 118/160/32 119/158/32
f 28/108/9 29/107/9 117/161/9 118/160/9
f 29/107/8 30/109/8 116/157/8 117/161/8
f 88/110/75 31/79/75 115/155/75 120/156/75
f 103/78/5 32/74/5 114/162/5 121/154/5
f 32/74/4 33/70/4 113/163/4 114/162/4
f 33/70/3 34/63/3 112/153/3 113/163/3
f 104/62/85 27/148/85 111/164/85 122/152/85
f 135/165/86 146/166/86 127/5/86 128/10/86
f 138/167/87 145/168/87 126/15/87 131/151/87
f 139/169/88 144/170/88 125/17/88 132/24/88
f 142/171/89 143/172/89 124/82/89 123/145/89
f 143/172/90 141/173/90 134/27/90 124/82/90
f 141/173/91 140/174/91 133/23/91 134/27/91
f 140/174/92 139/169/92 132/24/92 133/23/92
f 144/170/93 138/175/93 131/18/93 125/17/93
f 145/168/94 137/176/94 130/13/94 126/15/94
f 137/176/95 136/177/95 129/9/95 130/13/95
f 136/177/96 135/165/96 128/10/96 129/9/96
f 146/166/97 142/178/97 123/6/97 127/5/97
f 122/152/98 111/164/98 142/178/98 146/166/98
f 113/163/99 112/153/99 135/165/99 136/177/99
f 114/162/100 113/163/100 136/177/100 137/176/100
f 121/154/101 114/162/101 137/176/101 145/168/101
f 120/156/102 115/155/102 138/175/102 144/170/102
f 117/161/103 116/157/103 139/169/103 140/174/103
f 118/160/104 117/161/104 140/174/104 141/173/104
f 119/158/105 118/160/105 141/173/105 143/172/105
f 111/159/106 119/158/106 143/172/106 142/171/106
f 116/157/107 120/156/107 144/170/107 139/169/107
f 115/155/108 121/154/108 145/168/108 138/167/108
f 112/153/109 122/152/109 146/166/109 135/165/109
f 147/120/110 148/179/110 153/180/110 152/121/110
f 149/136/111 155/141/111 159/131/111 151/134/111
f 155/141/112 156/181/112 160/182/112 159/131/112
f 164/122/65 166/183/65 161/184/65 160/182/65
f 160/182/65 161/184/65 162/132/65 159/131/65
f 163/119/67 156/181/67 157/185/67 165/186/67
f 156/181/67 155/141/67 158/142/67 157/185/67
f 147/120/67 163/119/67 165/186/67 148/179/67
f 152/121/65 153/180/65 166/183/65 164/122/65
f 156/181/113 163/119/113 164/122/113 160/182/113
f 175/187/114 169/188/114 170/189/114 178/190/114
f 179/191/115 182/192/115 174/193/115 171/194/115
f 183/195/116 167/196/116 172/197/116 184/198/116
f 170/189/117 169/188/117 171/194/117 174/193/117
f 167/196/118 168/199/118 173/200/118 172/197/118
f 169/188/119 175/187/119 179/191/119 171/194/119
f 175/187/120 176/201/120 180/202/120 179/191/120
f 184/198/115 186/203/115 181/204/115 180/202/115
f 180/202/115 181/204/115 182/192/115 179/191/115
f 183/195/114 176/201/114 177/205/114 185/206/114
f 176/201/114 175/187/114 178/190/114 177/205/114
f 167/196/114 183/195/114 185/206/114 168/199/114
f 172/197/115 173/200/115 186/203/115 184/198/115
f 176/201/121 183/195/121 184/198/121 180/202/121
