# Blender v2.82 (sub 7) OBJ File: 'areana three.blend'
# www.blender.org
mtllib areana three.mtl
o Plane
v 1.389833 1.045511 -4.305156
v -2.183287 1.045511 -4.305155
v 1.389833 1.045511 -2.831248
v -2.183286 1.045511 -2.831247
v 1.246564 1.045511 -4.305156
v -2.010633 1.045511 -4.305155
v -2.010633 1.045511 -2.831247
v 1.246565 1.045511 -2.831248
v 1.389833 1.045511 -3.002162
v 1.389833 1.045511 -4.130527
v -2.183287 1.045511 -4.130526
v -2.183286 1.045511 -3.002161
v 1.246564 1.045511 -4.130527
v 1.246565 1.045511 -3.002162
v -2.010633 1.045511 -4.130526
v -2.010633 1.045511 -3.002161
v 1.389833 0.069836 -4.130527
v 1.389833 0.069836 -4.305156
v -2.010633 0.069836 -4.305155
v -2.183287 0.069836 -4.305155
v -2.183286 0.069836 -3.002161
v -2.183286 0.069836 -2.831247
v 1.246565 0.069836 -2.831248
v 1.389833 0.069836 -2.831248
v 1.246564 0.069836 -4.305156
v -2.010633 0.069836 -2.831247
v 1.246565 0.069836 -3.002162
v -2.010633 0.069836 -3.002161
v 1.389833 0.069836 -3.002162
v -2.183287 0.069836 -4.130526
v 1.246564 0.069836 -4.130527
v -2.010633 0.069836 -4.130526
v 1.389833 1.171304 -4.130527
v 1.389833 1.171304 -4.305156
v -2.010633 1.171304 -4.305155
v -2.183287 1.171304 -4.305155
v -2.183286 1.171304 -3.002161
v -2.183286 1.171304 -2.831247
v 1.246565 1.171304 -2.831248
v 1.389833 1.171304 -2.831248
v 1.246564 1.171304 -4.305156
v -2.010633 1.171304 -2.831247
v 1.246565 1.171304 -3.002162
v -2.010633 1.171304 -3.002161
v 1.389833 1.171304 -3.002162
v -2.183287 1.171304 -4.130526
v 1.246564 1.171304 -4.130527
v -2.010633 1.171304 -4.130526
v 1.389833 2.358968 -4.130527
v 1.389833 2.358968 -4.305156
v -2.010633 2.358968 -4.305155
v -2.183287 2.358968 -4.305155
v -2.183286 1.748442 -3.002161
v -2.183286 1.748442 -2.831247
v 1.246565 1.748442 -2.831248
v 1.389833 1.748442 -2.831248
v 1.246564 2.358968 -4.305156
v -2.010633 1.748442 -2.831247
v 1.246565 1.748442 -3.002162
v -2.010633 1.748442 -3.002161
v 1.389833 1.748442 -3.002162
v -2.183287 2.358968 -4.130526
v 1.246564 2.358968 -4.130527
v -2.010633 2.358968 -4.130526
v -2.183286 1.899066 -3.002161
v -2.183286 1.899066 -2.831247
v 1.246565 1.899066 -2.831248
v 1.389833 1.899066 -2.831248
v -2.010633 1.899066 -2.831247
v 1.246565 1.899066 -3.002162
v -2.010633 1.899066 -3.002161
v 1.389833 1.899066 -3.002162
v 1.246564 1.745927 -4.130527
v 1.389833 1.745927 -4.130527
v -2.183287 1.745927 -4.130526
v -2.010633 1.745927 -4.130526
v 1.246564 1.893790 -4.130527
v 1.389833 1.893790 -4.130527
v -2.183287 1.893790 -4.130526
v -2.010633 1.893790 -4.130526
v -2.183287 1.362845 -4.305155
v 1.389833 1.362845 -4.305156
v 1.246564 1.745927 -4.305156
v 1.389833 1.745927 -4.305156
v -2.010633 1.362845 -4.305155
v -2.183287 1.745927 -4.305155
v -2.010633 1.745927 -4.305155
v 1.246564 1.554386 -4.305156
v 1.389833 1.554386 -4.305156
v 1.389833 1.893790 -4.305156
v -2.183287 1.893790 -4.305155
v -2.010633 1.893790 -4.305155
v -2.183287 1.554386 -4.305155
v 1.246564 1.893790 -4.305156
v -2.010633 1.554386 -4.305155
v 1.246564 1.362845 -4.305156
v 1.389833 1.554386 -4.130527
v 1.389833 1.362845 -4.130527
v 1.246564 1.362845 -4.130527
v 1.246564 1.554386 -4.130527
v -2.183287 1.554386 -4.130526
v -2.183287 1.362845 -4.130526
v -2.010633 1.554386 -4.130526
v -2.010633 1.362845 -4.130526
v 1.389833 2.048850 -4.305156
v 1.389833 2.203909 -4.305156
v -2.183287 2.048850 -4.305155
v -2.183287 2.203909 -4.305155
v -2.010633 2.048850 -4.305155
v -2.010633 2.203909 -4.305155
v -2.010633 2.203909 -4.130526
v -2.010633 2.048850 -4.130526
v 1.389833 2.203909 -4.130527
v 1.389833 2.048850 -4.130527
v 1.246564 2.203909 -4.305156
v 1.246564 2.048850 -4.305156
v 1.246564 2.048850 -4.130527
v 1.246564 2.203909 -4.130527
v -2.183287 2.203909 -4.130526
v -2.183287 2.048850 -4.130526
v -2.010633 0.513334 -4.130526
v -2.010633 0.668550 -4.130526
v -2.183287 0.668550 -4.130526
v -2.183287 0.513334 -4.130526
v -2.183287 0.513334 -4.305155
v -2.183287 0.668550 -4.305155
v -2.010633 0.668550 -4.305155
v -2.010633 0.513334 -4.305155
v -2.010633 0.513334 -2.831247
v -2.010633 0.668550 -2.831247
v -2.183286 0.668550 -2.831247
v -2.183286 0.513334 -2.831247
v -2.183286 0.513334 -3.002161
v -2.183286 0.668550 -3.002161
v -2.010633 0.668550 -3.002161
v -2.010633 0.513334 -3.002161
v 1.246564 0.513334 -4.130527
v 1.246564 0.668550 -4.130527
v 1.246564 0.668550 -4.305156
v 1.246564 0.513334 -4.305156
v 1.389833 0.513334 -4.305156
v 1.389833 0.668550 -4.305156
v 1.389833 0.668550 -4.130527
v 1.389833 0.513334 -4.130527
v 1.246565 0.513334 -3.002162
v 1.246565 0.668550 -3.002162
v 1.389833 0.668550 -3.002162
v 1.389833 0.513334 -3.002162
v 1.246565 0.513334 -2.831248
v 1.246565 0.668550 -2.831248
v 1.389833 0.668550 -2.831248
v 1.389833 0.513334 -2.831248
vt 0.296195 0.487598
vt 0.332981 0.504639
vt 0.296195 0.504639
vt 0.218894 0.294201
vt 0.232875 0.257416
vt 0.232875 0.294201
vt 0.296195 0.453709
vt 0.283920 0.436860
vt 0.296195 0.436860
vt 0.541220 0.382799
vt 0.528945 0.064948
vt 0.541220 0.064948
vt 0.187873 0.294201
vt 0.170832 0.306477
vt 0.170832 0.294201
vt 0.221037 0.122829
vt 0.237716 0.086044
vt 0.237716 0.122829
vt 0.190378 0.122829
vt 0.176397 0.135105
vt 0.176397 0.122829
vt 0.170832 0.122829
vt 0.187510 0.086044
vt 0.187510 0.122829
vt 0.204358 0.122829
vt 0.187510 0.135105
vt 0.201853 0.294201
vt 0.218895 0.257416
vt 0.190378 0.086044
vt 0.221037 0.122829
vt 0.237885 0.086044
vt 0.237885 0.122829
vt 0.296195 0.470750
vt 0.332981 0.487598
vt 0.332981 0.453709
vt 0.204358 0.086044
vt 0.221037 0.070897
vt 0.237885 0.027619
vt 0.237885 0.070897
vt 0.207056 0.070897
vt 0.221037 0.027619
vt 0.221037 0.070897
vt 0.207056 0.122829
vt 0.221037 0.086044
vt 0.201853 0.242269
vt 0.218895 0.198991
vt 0.218894 0.242269
vt 0.348128 0.470750
vt 0.391406 0.487598
vt 0.348128 0.487598
vt 0.187873 0.257416
vt 0.512266 0.064948
vt 0.528945 0.382799
vt 0.512266 0.382799
vt 0.402155 0.064948
vt 0.402155 0.382799
vt 0.512266 0.396780
vt 0.402155 0.396780
vt 0.402155 0.048099
vt 0.201853 0.306477
vt 0.221037 0.135105
vt 0.221037 0.135105
vt 0.283920 0.470750
vt 0.283920 0.487598
vt 0.170832 0.135105
vt 0.204358 0.135105
vt 0.190378 0.135105
vt 0.207056 0.135105
vt 0.402155 0.409055
vt 0.512266 0.409055
vt 0.187873 0.306477
vt 0.283920 0.453709
vt 0.249048 0.088686
vt 0.261324 0.406537
vt 0.249048 0.406537
vt 0.218894 0.306477
vt 0.512266 0.035824
vt 0.402155 0.035824
vt 0.204358 0.191424
vt 0.190378 0.191424
vt 0.207056 0.191424
vt 0.372440 0.416260
vt 0.357308 0.098410
vt 0.372440 0.098410
vt 0.201853 0.407243
vt 0.187873 0.422374
vt 0.187873 0.407243
vt 0.183154 0.470750
vt 0.168022 0.453709
vt 0.183154 0.453709
vt 0.325136 0.098410
vt 0.340267 0.416260
vt 0.325136 0.416260
vt 0.232875 0.407243
vt 0.218894 0.422374
vt 0.218894 0.407243
vt 0.187510 0.191424
vt 0.176397 0.191424
vt 0.168022 0.436860
vt 0.183154 0.436860
vt 0.201853 0.422374
vt 0.237716 0.135105
vt 0.221037 0.191424
vt 0.237885 0.135105
vt 0.221037 0.191424
vt 0.183154 0.487598
vt 0.168022 0.470750
vt 0.170832 0.191424
vt 0.373034 0.028224
vt 0.356369 0.042952
vt 0.356330 0.028253
vt 0.387758 0.059821
vt 0.373053 0.042945
vt 0.387768 0.042954
vt 0.356367 0.059788
vt 0.246286 0.042939
vt 0.356327 0.074485
vt 0.373043 0.059812
vt 0.373013 0.074518
vt 0.373026 0.028220
vt 0.356370 0.042947
vt 0.356329 0.028250
vt 0.356328 0.071617
vt 0.373046 0.056934
vt 0.373021 0.071645
vt 0.387763 0.056934
vt 0.373047 0.042936
vt 0.387763 0.042936
vt 0.315747 0.406537
vt 0.297056 0.088686
vt 0.315747 0.088686
vt 0.187873 0.325168
vt 0.170832 0.343860
vt 0.170832 0.325168
vt 0.246286 0.056928
vt 0.356364 0.056918
vt 0.246220 0.028510
vt 0.246286 0.042939
vt 0.246220 0.028510
vt 0.246286 0.059798
vt 0.340267 0.081562
vt 0.340267 0.098410
vt 0.357309 0.416260
vt 0.340267 0.430241
vt 0.357309 0.430241
vt 0.246537 0.487598
vt 0.227846 0.470750
vt 0.246537 0.470750
vt 0.218894 0.343860
vt 0.201853 0.362551
vt 0.201853 0.343860
vt 0.246537 0.453709
vt 0.227846 0.436860
vt 0.246537 0.436860
vt 0.232875 0.343860
vt 0.218894 0.362551
vt 0.315748 0.406537
vt 0.297056 0.088686
vt 0.315747 0.088686
vt 0.227846 0.453709
vt 0.187873 0.362551
vt 0.187873 0.343860
vt 0.261324 0.088686
vt 0.280015 0.406537
vt 0.261324 0.406537
vt 0.227846 0.487598
vt 0.213416 0.470750
vt 0.201853 0.376980
vt 0.201853 0.325168
vt 0.265228 0.504639
vt 0.265228 0.487598
vt 0.213416 0.453709
vt 0.187873 0.376980
vt 0.170832 0.376980
vt 0.170832 0.362551
vt 0.265228 0.453709
vt 0.265228 0.470750
vt 0.261323 0.088686
vt 0.280015 0.406537
vt 0.198285 0.504639
vt 0.198285 0.487598
vt 0.232875 0.306477
vt 0.218894 0.325168
vt 0.232875 0.325168
vt 0.265228 0.436860
vt 0.213416 0.487598
vt 0.198285 0.470750
vt 0.218894 0.376980
vt 0.201853 0.392112
vt 0.218894 0.392112
vt 0.198285 0.436860
vt 0.213416 0.436860
vt 0.198285 0.453709
vt 0.232875 0.376980
vt 0.232875 0.392112
vt 0.264884 0.088686
vt 0.280015 0.406536
vt 0.264884 0.406536
vt 0.227846 0.504639
vt 0.213416 0.504639
vt 0.187873 0.392112
vt 0.312188 0.406536
vt 0.297056 0.088686
vt 0.312188 0.088686
vt 0.170832 0.407243
vt 0.297056 0.406537
vt 0.280015 0.088686
vt 0.280015 0.088686
vt 0.348128 0.453709
vt 0.391406 0.470750
vt 0.332981 0.470750
vt 0.170832 0.070897
vt 0.187510 0.027619
vt 0.187510 0.070897
vt 0.348127 0.436860
vt 0.391406 0.453709
vt 0.204358 0.070897
vt 0.221037 0.027619
vt 0.221037 0.086044
vt 0.232875 0.198991
vt 0.232875 0.242269
vt 0.204358 0.027619
vt 0.201853 0.257416
vt 0.187873 0.242269
vt 0.201853 0.198991
vt 0.237716 0.027619
vt 0.237716 0.070897
vt 0.170832 0.242269
vt 0.187873 0.198991
vt 0.246218 0.060245
vt 0.356329 0.043397
vt 0.356329 0.060245
vt 0.190378 0.070897
vt 0.207056 0.027619
vt 0.207056 0.086044
vt 0.176397 0.070897
vt 0.190378 0.027619
vt 0.348127 0.504639
vt 0.170832 0.086044
vt 0.170832 0.257416
vt 0.391406 0.504639
vt 0.356329 0.028250
vt 0.246218 0.043397
vt 0.246218 0.028250
vt 0.246218 0.075392
vt 0.246218 0.043397
vt 0.356329 0.057378
vt 0.246218 0.057378
vt 0.246218 0.028250
vt 0.356329 0.043397
vt 0.356329 0.072525
vt 0.246218 0.072525
vt 0.176397 0.086044
vt 0.332981 0.436860
vt 0.512266 0.048099
vt 0.283920 0.504639
vt 0.232875 0.422374
vt 0.237716 0.191424
vt 0.237885 0.191424
vt 0.168022 0.487598
vt 0.246220 0.071357
vt 0.246220 0.074226
vt 0.357308 0.081562
vt 0.232875 0.362551
vt 0.297056 0.406537
vt 0.246537 0.504639
vt 0.280015 0.088686
vt 0.183154 0.504639
vt 0.297057 0.406536
vt 0.170832 0.392112
vt 0.170832 0.027619
vt 0.391406 0.436860
vt 0.170832 0.198991
vt 0.176397 0.027619
vt 0.356329 0.075392
vt 0.356329 0.028250
vn -1.0000 0.0000 0.0000
vn 0.0000 0.0000 -1.0000
vn 0.0000 0.0000 1.0000
vn 1.0000 0.0000 0.0000
vn 0.0000 1.0000 0.0000
vn 0.0000 -1.0000 0.0047
vn 0.0000 -1.0000 0.0000
usemtl room3
s off
f 6/1/1 122/2/1 15/3/1
f 10/4/2 138/5/2 13/6/2
f 11/7/2 48/8/2 15/9/2
f 8/10/3 42/11/3 7/12/3
f 5/13/4 47/14/4 13/15/4
f 8/16/4 146/17/4 14/18/4
f 9/19/3 43/20/3 14/21/3
f 16/22/1 130/23/1 7/24/1
f 4/25/2 42/26/2 7/24/2
f 1/27/1 143/28/1 10/4/1
f 14/21/3 147/29/3 9/19/3
f 12/30/3 135/31/3 16/32/3
f 2/33/3 127/34/3 6/1/3
f 15/9/2 123/35/2 11/7/2
f 7/24/2 131/36/2 4/25/2
f 133/37/3 28/38/3 136/39/3
f 152/40/2 23/41/2 149/42/2
f 3/43/2 150/44/2 8/16/2
f 141/45/1 17/46/1 144/47/1
f 125/48/3 19/49/3 128/50/3
f 13/15/4 139/51/4 5/13/4
f 44/52/5 39/53/5 43/54/5
f 48/55/5 43/54/5 47/56/5
f 47/56/5 45/57/5 33/58/5
f 46/59/5 44/52/5 48/55/5
f 10/4/1 34/60/1 1/27/1
f 14/18/4 39/61/4 8/16/4
f 16/32/3 37/62/3 12/30/3
f 6/1/3 36/63/3 2/33/3
f 15/3/1 35/64/1 6/1/1
f 7/24/1 44/65/1 16/22/1
f 12/30/4 38/66/4 4/25/4
f 3/43/1 45/67/1 9/19/1
f 8/16/2 40/68/2 3/43/2
f 10/69/4 45/57/4 9/70/4
f 1/27/3 41/71/3 5/13/3
f 2/33/4 46/72/4 11/7/4
f 6/73/2 41/74/2 5/75/2
f 13/6/2 33/76/2 10/4/2
f 12/77/1 46/59/1 11/78/1
f 37/62/4 54/79/4 38/66/4
f 40/68/1 61/80/1 45/67/1
f 39/61/2 56/81/2 40/68/2
f 118/82/3 64/83/3 111/84/3
f 106/85/3 57/86/3 115/87/3
f 108/88/4 62/89/4 119/90/4
f 110/91/2 57/92/2 115/93/2
f 118/94/2 49/95/2 113/96/2
f 38/66/2 58/97/2 42/26/2
f 45/67/3 59/98/3 43/20/3
f 119/90/2 64/99/2 111/100/2
f 113/96/1 50/101/1 106/85/1
f 43/102/4 55/103/4 39/61/4
f 44/104/3 53/105/3 37/62/3
f 110/106/3 52/107/3 108/88/3
f 42/26/1 60/108/1 44/65/1
f 58/109/1 71/110/1 60/111/1
f 54/112/2 69/113/2 58/114/2
f 65/115/6 80/116/6 71/110/6
f 53/117/4 66/118/4 54/119/4
f 56/120/1 72/121/1 61/122/1
f 59/123/4 67/124/4 55/125/4
f 55/126/2 68/127/2 56/128/2
f 47/129/3 104/130/3 48/131/3
f 96/132/4 100/133/4 99/134/4
f 59/123/4 77/135/4 70/136/4
f 60/111/1 80/116/1 76/137/1
f 70/136/6 78/138/6 72/121/6
f 61/122/1 78/138/1 74/139/1
f 53/117/4 79/140/4 65/115/4
f 65/115/7 69/113/7 66/118/7
f 67/124/7 72/121/7 68/127/7
f 64/83/7 52/141/7 51/142/7
f 51/142/5 63/143/5 57/92/5
f 63/143/7 50/144/7 49/145/7
f 95/146/3 86/147/3 93/148/3
f 97/149/1 84/150/1 89/151/1
f 101/152/2 76/153/2 103/154/2
f 100/155/2 74/156/2 97/149/2
f 95/157/2 83/158/2 88/159/2
f 93/148/4 75/160/4 101/152/4
f 89/151/3 83/161/3 88/162/3
f 100/163/3 76/164/3 103/165/3
f 87/166/3 91/167/3 86/147/3
f 74/156/1 90/168/1 84/150/1
f 82/169/3 88/162/3 96/132/3
f 34/60/3 96/132/3 41/71/3
f 104/170/1 95/146/1 85/171/1
f 86/147/4 79/172/4 75/160/4
f 84/150/3 94/173/3 83/161/3
f 83/161/4 77/174/4 73/175/4
f 36/63/4 102/176/4 46/72/4
f 81/177/4 101/152/4 102/176/4
f 35/178/2 96/179/2 41/74/2
f 112/180/1 110/106/1 109/181/1
f 47/182/2 98/183/2 33/76/2
f 99/184/2 97/149/2 98/183/2
f 46/72/2 104/185/2 48/8/2
f 102/176/2 103/154/2 104/185/2
f 33/76/1 82/169/1 34/60/1
f 98/183/1 89/151/1 82/169/1
f 35/64/3 81/177/3 36/63/3
f 85/171/3 93/148/3 81/177/3
f 92/186/3 107/187/3 91/167/3
f 109/181/3 108/88/3 107/187/3
f 78/188/1 105/189/1 90/168/1
f 114/190/1 106/85/1 105/189/1
f 79/172/2 112/191/2 80/192/2
f 120/193/2 111/100/2 112/191/2
f 77/194/2 114/190/2 78/188/2
f 117/195/2 113/96/2 114/190/2
f 92/196/2 116/197/2 94/198/2
f 92/186/1 76/199/1 80/200/1
f 91/167/4 120/193/4 79/172/4
f 107/187/4 119/90/4 120/193/4
f 90/168/3 116/201/3 94/173/3
f 105/189/3 115/87/3 116/201/3
f 77/202/3 112/203/3 80/204/3
f 118/205/4 116/201/4 115/87/4
f 96/179/5 104/130/5 99/206/5
f 83/158/5 76/164/5 73/207/5
f 112/203/5 116/197/5 109/208/5
f 124/209/4 20/210/4 125/48/4
f 11/7/4 126/211/4 2/33/4
f 136/212/1 26/213/1 129/214/1
f 121/215/2 30/216/2 124/209/2
f 132/217/4 21/218/4 133/37/4
f 4/25/4 134/219/4 12/30/4
f 144/47/2 31/220/2 137/221/2
f 129/214/2 22/222/2 132/217/2
f 5/13/3 142/223/3 1/27/3
f 140/224/3 18/225/3 141/45/3
f 149/42/4 27/226/4 145/227/4
f 137/228/4 25/229/4 140/224/4
f 135/230/7 123/231/7 122/232/7
f 148/233/1 24/234/1 152/40/1
f 9/19/1 151/235/1 3/43/1
f 145/236/3 29/237/3 148/233/3
f 125/48/4 123/35/4 124/209/4
f 121/238/1 127/34/1 128/50/1
f 128/50/3 126/211/3 125/48/3
f 133/37/4 131/36/4 132/217/4
f 129/214/1 135/239/1 136/212/1
f 132/217/2 130/23/2 129/214/2
f 141/45/3 139/51/3 140/224/3
f 144/47/1 142/223/1 141/45/1
f 140/224/4 138/240/4 137/228/4
f 149/42/2 151/235/2 152/40/2
f 152/40/1 147/29/1 148/233/1
f 145/227/4 150/44/4 149/42/4
f 128/50/1 32/241/1 121/238/1
f 124/242/4 134/243/4 133/244/4
f 122/232/1 136/245/1 135/230/1
f 143/246/7 146/247/7 138/248/7
f 144/249/1 147/250/1 143/246/1
f 138/248/4 145/251/4 137/252/4
f 6/1/1 127/34/1 122/2/1
f 10/4/2 143/28/2 138/5/2
f 11/7/2 46/72/2 48/8/2
f 8/10/3 39/53/3 42/11/3
f 5/13/4 41/71/4 47/14/4
f 8/16/4 150/44/4 146/17/4
f 9/19/3 45/67/3 43/20/3
f 16/22/1 135/239/1 130/23/1
f 4/25/2 38/66/2 42/26/2
f 1/27/1 142/223/1 143/28/1
f 14/21/3 146/253/3 147/29/3
f 12/30/3 134/219/3 135/31/3
f 2/33/3 126/211/3 127/34/3
f 15/9/2 122/254/2 123/35/2
f 7/24/2 130/23/2 131/36/2
f 133/37/3 21/218/3 28/38/3
f 152/40/2 24/234/2 23/41/2
f 3/43/2 151/235/2 150/44/2
f 141/45/1 18/225/1 17/46/1
f 125/48/3 20/210/3 19/49/3
f 13/15/4 138/240/4 139/51/4
f 44/52/5 42/11/5 39/53/5
f 48/55/5 44/52/5 43/54/5
f 47/56/5 43/54/5 45/57/5
f 46/59/5 37/255/5 44/52/5
f 10/4/1 33/76/1 34/60/1
f 14/18/4 43/102/4 39/61/4
f 16/32/3 44/104/3 37/62/3
f 6/1/3 35/64/3 36/63/3
f 15/3/1 48/256/1 35/64/1
f 7/24/1 42/26/1 44/65/1
f 12/30/4 37/62/4 38/66/4
f 3/43/1 40/68/1 45/67/1
f 8/16/2 39/61/2 40/68/2
f 10/69/4 33/58/4 45/57/4
f 1/27/3 34/60/3 41/71/3
f 2/33/4 36/63/4 46/72/4
f 6/73/2 35/178/2 41/74/2
f 13/6/2 47/182/2 33/76/2
f 12/77/1 37/255/1 46/59/1
f 37/62/4 53/105/4 54/79/4
f 40/68/1 56/81/1 61/80/1
f 39/61/2 55/103/2 56/81/2
f 118/82/3 63/143/3 64/83/3
f 106/85/3 50/101/3 57/86/3
f 108/88/4 52/107/4 62/89/4
f 110/91/2 51/142/2 57/92/2
f 118/94/2 63/257/2 49/95/2
f 38/66/2 54/79/2 58/97/2
f 45/67/3 61/80/3 59/98/3
f 119/90/2 62/89/2 64/99/2
f 113/96/1 49/95/1 50/101/1
f 43/102/4 59/258/4 55/103/4
f 44/104/3 60/259/3 53/105/3
f 110/106/3 51/260/3 52/107/3
f 42/26/1 58/97/1 60/108/1
f 58/109/1 69/113/1 71/110/1
f 54/112/2 66/118/2 69/113/2
f 65/115/6 79/140/6 80/116/6
f 53/117/4 65/115/4 66/118/4
f 56/120/1 68/127/1 72/121/1
f 59/123/4 70/136/4 67/124/4
f 55/126/2 67/124/2 68/127/2
f 47/129/3 99/206/3 104/130/3
f 96/132/4 88/162/4 100/133/4
f 59/123/4 73/261/4 77/135/4
f 60/111/1 71/110/1 80/116/1
f 70/136/6 77/135/6 78/138/6
f 61/122/1 72/121/1 78/138/1
f 53/117/4 75/262/4 79/140/4
f 65/115/7 71/110/7 69/113/7
f 67/124/7 70/136/7 72/121/7
f 64/83/7 62/263/7 52/141/7
f 51/142/5 64/83/5 63/143/5
f 63/143/7 57/92/7 50/144/7
f 95/146/3 87/166/3 86/147/3
f 97/149/1 74/156/1 84/150/1
f 101/152/2 75/160/2 76/153/2
f 100/155/2 73/264/2 74/156/2
f 95/157/2 87/265/2 83/158/2
f 93/148/4 86/147/4 75/160/4
f 89/151/3 84/150/3 83/161/3
f 100/163/3 73/207/3 76/164/3
f 87/166/3 92/186/3 91/167/3
f 74/156/1 78/188/1 90/168/1
f 82/169/3 89/151/3 88/162/3
f 34/60/3 82/169/3 96/132/3
f 104/170/1 103/266/1 95/146/1
f 86/147/4 91/167/4 79/172/4
f 84/150/3 90/168/3 94/173/3
f 83/161/4 94/173/4 77/174/4
f 36/63/4 81/177/4 102/176/4
f 81/177/4 93/148/4 101/152/4
f 35/178/2 85/267/2 96/179/2
f 112/180/1 111/268/1 110/106/1
f 47/182/2 99/184/2 98/183/2
f 99/184/2 100/155/2 97/149/2
f 46/72/2 102/176/2 104/185/2
f 102/176/2 101/152/2 103/154/2
f 33/76/1 98/183/1 82/169/1
f 98/183/1 97/149/1 89/151/1
f 35/64/3 85/171/3 81/177/3
f 85/171/3 95/146/3 93/148/3
f 92/186/3 109/181/3 107/187/3
f 109/181/3 110/106/3 108/88/3
f 78/188/1 114/190/1 105/189/1
f 114/190/1 113/96/1 106/85/1
f 79/172/2 120/193/2 112/191/2
f 120/193/2 119/90/2 111/100/2
f 77/194/2 117/195/2 114/190/2
f 117/195/2 118/94/2 113/96/2
f 92/196/2 109/208/2 116/197/2
f 92/186/1 87/166/1 76/199/1
f 91/167/4 107/187/4 120/193/4
f 107/187/4 108/88/4 119/90/4
f 90/168/3 105/189/3 116/201/3
f 105/189/3 106/85/3 115/87/3
f 77/202/3 117/269/3 112/203/3
f 118/205/4 117/270/4 116/201/4
f 96/179/5 85/267/5 104/130/5
f 83/158/5 87/265/5 76/164/5
f 112/203/5 117/269/5 116/197/5
f 124/209/4 30/216/4 20/210/4
f 11/7/4 123/35/4 126/211/4
f 136/212/1 28/271/1 26/213/1
f 121/215/2 32/272/2 30/216/2
f 132/217/4 22/222/4 21/218/4
f 4/25/4 131/36/4 134/219/4
f 144/47/2 17/46/2 31/220/2
f 129/214/2 26/213/2 22/222/2
f 5/13/3 139/51/3 142/223/3
f 140/224/3 25/229/3 18/225/3
f 149/42/4 23/41/4 27/226/4
f 137/228/4 31/273/4 25/229/4
f 135/230/7 134/243/7 123/231/7
f 148/233/1 29/237/1 24/234/1
f 9/19/1 147/29/1 151/235/1
f 145/236/3 27/274/3 29/237/3
f 125/48/4 126/211/4 123/35/4
f 121/238/1 122/2/1 127/34/1
f 128/50/3 127/34/3 126/211/3
f 133/37/4 134/219/4 131/36/4
f 129/214/1 130/23/1 135/239/1
f 132/217/2 131/36/2 130/23/2
f 141/45/3 142/223/3 139/51/3
f 144/47/1 143/28/1 142/223/1
f 140/224/4 139/51/4 138/240/4
f 149/42/2 150/44/2 151/235/2
f 152/40/1 151/235/1 147/29/1
f 145/227/4 146/17/4 150/44/4
f 128/50/1 19/49/1 32/241/1
f 124/242/4 123/231/4 134/243/4
f 122/232/1 121/275/1 136/245/1
f 143/246/7 147/250/7 146/247/7
f 144/249/1 148/276/1 147/250/1
f 138/248/4 146/247/4 145/251/4
