# Blender v2.80 (sub 75) OBJ File: 'wall.blend'
# www.blender.org
mtllib wall.mtl
o Cylinder.001_Cylinder.008
v 0.000000 0.000000 -11.600066
v 0.000000 10.000000 -11.322433
v 10.186444 0.000000 -5.800033
v 9.942643 10.000000 -5.661216
v 10.186443 0.000000 5.800034
v 9.942642 10.000000 5.661217
v -0.000001 0.000000 11.600066
v -0.000001 10.000000 11.322433
v -10.186444 0.000000 5.800032
v -9.942643 10.000000 5.661215
v -10.186444 0.000000 -5.800032
v -9.942643 10.000000 -5.661215
v 10.186444 10.000000 -5.800033
v 0.000000 10.000000 -11.600066
v 10.186443 10.000000 5.800034
v -0.000001 10.000000 11.600066
v -10.186444 10.000000 5.800032
v -10.186444 10.000000 -5.800032
v 9.942643 0.000000 -5.661216
v 0.000000 0.000000 -11.322433
v 9.942642 0.000000 5.661217
v -0.000001 0.000000 11.322433
v -9.942643 0.000000 5.661215
v -9.942643 0.000000 -5.661215
v -4.736097 0.000000 -0.722503
v -5.206547 0.000000 -0.728643
v -4.736097 10.000000 -0.722503
v -5.206547 10.000000 -0.728643
v -5.296951 0.000000 -8.584048
v -4.889493 0.000000 -8.816050
v -4.889493 10.000000 -8.816050
v -5.296951 10.000000 -8.584048
v -5.175050 10.000000 -8.375824
v -4.767593 10.000000 -8.607824
v -4.767593 0.000000 -8.607824
v -5.175050 0.000000 -8.375824
v 7.658881 0.000000 7.239196
v 7.658881 10.000000 7.239196
v 8.176475 10.000000 6.666851
v 8.176475 0.000000 6.666851
v 10.186443 0.000000 -0.790269
v 10.186443 10.000000 -0.790269
v 9.942642 10.000000 -0.771355
v 9.942642 0.000000 -0.771355
v 8.153343 10.000000 -0.771355
v 8.153343 0.000000 -0.771355
vt 1.000000 0.500000
vt 1.000000 1.000000
vt 0.833333 1.000000
vt 0.833333 0.500000
vt 0.761354 0.500000
vt 0.761354 1.000000
vt 0.666667 1.000000
vt 0.666667 0.500000
vt 0.625312 0.500000
vt 0.625312 1.000000
vt 0.500000 1.000000
vt 0.500000 0.500000
vt 0.333333 1.000000
vt 0.333333 0.500000
vt 0.250000 0.484256
vt 0.152721 0.428092
vt 0.152721 0.428092
vt 0.250000 0.484256
vt 0.166667 1.000000
vt 0.166667 0.500000
vt 0.086667 1.000000
vt 0.086667 0.500000
vt 0.047128 0.367128
vt 0.144407 0.423292
vt 0.141920 0.427600
vt 0.042154 0.370000
vt 0.452872 0.367128
vt 0.457846 0.370000
vt 0.250000 0.490000
vt 0.452872 0.265959
vt 0.452872 0.132872
vt 0.457846 0.130000
vt 0.457846 0.266350
vt 0.416834 0.112066
vt 0.250000 0.015744
vt 0.250000 0.010000
vt 0.406273 0.100224
vt 0.047128 0.132872
vt 0.042154 0.130000
vt 0.047128 0.367128
vt 0.144407 0.423292
vt 0.150234 0.432400
vt 0.250000 0.015744
vt 0.047128 0.132872
vt 0.452872 0.367128
vt 0.452872 0.265959
vt 0.452872 0.132872
vt 0.416834 0.112066
vt 0.144407 0.423292
vt 0.144407 0.423292
vt 0.152721 0.428092
vt 0.152721 0.428092
vt 0.080000 1.000000
vt 0.080000 0.500000
vt -0.000000 1.000000
vt -0.000000 0.500000
vt 0.000000 0.000000
vt 0.000000 0.000000
vt 0.000000 0.000000
vt 0.000000 0.000000
vt 0.000000 0.000000
vt 0.000000 0.000000
vt 0.000000 0.000000
vt 0.000000 0.000000
vt 0.452872 0.132872
vt 0.452872 0.265959
vt 0.452872 0.265959
vt 0.452872 0.139601
vn 0.4948 0.0000 -0.8690
vn 1.0000 0.0000 0.0000
vn 0.4948 0.0000 0.8690
vn -0.4948 0.0000 0.8690
vn -1.0000 0.0000 0.0000
vn -0.4948 0.0000 -0.8690
vn 0.0000 1.0000 0.0000
vn -0.0131 0.0000 0.9999
vn -1.0000 0.0000 -0.0041
vn 0.0000 -1.0000 0.0000
vn 1.0000 0.0000 -0.0040
vn -1.0000 0.0000 0.0031
vn 0.0000 0.0000 -1.0000
usemtl Material.020
s off
f 1/1/1 14/2/1 13/3/1 3/4/1
f 41/5/2 42/6/2 15/7/2 5/8/2
f 37/9/3 38/10/3 16/11/3 7/12/3
f 7/12/4 16/11/4 17/13/4 9/14/4
f 2/15/3 34/16/3 35/17/3 20/18/3
f 9/14/5 17/13/5 18/19/5 11/20/5
f 11/20/6 18/19/6 32/21/6 29/22/6
f 12/23/7 33/24/7 32/25/7 18/26/7
f 2/15/7 4/27/7 13/28/7 14/29/7
f 43/30/7 6/31/7 15/32/7 42/33/7
f 39/34/7 8/35/7 16/36/7 38/37/7
f 8/35/7 10/38/7 17/39/7 16/36/7
f 10/38/7 12/23/7 18/26/7 17/39/7
f 33/24/3 12/23/3 24/40/3 36/41/3
f 34/16/7 2/15/7 14/29/7 31/42/7
f 10/38/1 8/35/1 22/43/1 23/44/1
f 43/30/5 4/27/5 19/45/5 44/46/5
f 12/23/2 10/38/2 23/44/2 24/40/2
f 39/34/6 6/31/6 21/47/6 40/48/6
f 4/27/4 2/15/4 20/18/4 19/45/4
f 28/49/8 26/50/8 25/51/8 27/52/8
f 34/16/7 31/42/7 32/25/7 33/24/7
f 31/53/6 30/54/6 29/22/6 32/21/6
f 33/24/9 36/41/9 26/50/9 28/49/9
f 30/54/6 31/53/6 14/55/6 1/56/6
f 36/57/10 35/58/10 25/59/10 26/60/10
f 34/16/7 33/24/7 28/49/7 27/52/7
f 35/17/11 34/16/11 27/52/11 25/51/11
f 8/35/6 39/34/6 40/48/6 22/43/6
f 6/31/7 39/34/7 38/37/7 15/32/7
f 5/8/3 15/7/3 38/10/3 37/9/3
f 44/61/10 21/62/10 40/63/10 46/64/10
f 4/27/7 43/30/7 42/33/7 13/28/7
f 3/4/2 13/3/2 42/6/2 41/5/2
f 39/65/12 45/66/12 46/67/12 40/68/12
f 43/30/13 44/46/13 46/67/13 45/66/13
f 6/31/7 43/30/7 45/66/7 39/65/7
