# Blender v2.80 (sub 75) OBJ File: 'drum.blend'
# www.blender.org
mtllib drum.mtl
o Cylinder
v 0.000000 0.000000 -0.500000
v 0.000000 1.371976 -0.500000
v 0.353553 0.000000 -0.353553
v 0.353553 1.371976 -0.353553
v 0.500000 0.000000 0.000000
v 0.500000 1.371976 0.000000
v 0.353553 0.000000 0.353553
v 0.353553 1.371976 0.353553
v -0.000000 0.000000 0.500000
v -0.000000 1.371976 0.500000
v -0.353553 0.000000 0.353553
v -0.353553 1.371976 0.353553
v -0.500000 0.000000 -0.000000
v -0.500000 1.371976 -0.000000
v -0.353553 0.000000 -0.353553
v -0.353553 1.371976 -0.353553
v 0.000000 1.362390 -0.500000
v 0.353553 1.362390 -0.353553
v 0.500000 1.362390 0.000000
v 0.353553 1.362390 0.353553
v -0.000000 1.362390 0.500000
v -0.353553 1.362390 0.353553
v -0.500000 1.362390 -0.000000
v -0.353553 1.362390 -0.353553
v 0.238784 1.418599 -0.245954
v 0.238784 1.133045 -0.245954
v 0.000000 1.360065 -0.545610
v 0.196965 1.418599 -0.346912
v 0.196965 1.133045 -0.346912
v 0.096007 1.418599 -0.388730
v 0.096007 1.133045 -0.388730
v 0.353553 0.074616 -0.353553
v 0.500000 0.074616 0.000000
v 0.385804 1.360065 -0.385804
v 0.545610 1.360065 0.000000
v 0.385804 1.360065 0.385804
v -0.000000 1.360065 0.545610
v -0.385804 1.360065 0.385804
v -0.545610 1.360065 -0.000000
v -0.385804 1.360065 -0.385804
v 0.353553 1.429456 -0.353553
v 0.000000 1.429456 -0.500000
v 0.000000 1.431782 -0.545610
v 0.500000 1.429456 0.000000
v 0.353553 1.429456 0.353553
v -0.000000 1.429456 0.500000
v -0.353553 1.429456 0.353553
v -0.500000 1.429456 -0.000000
v -0.353553 1.429456 -0.353553
v 0.545610 1.431782 0.000000
v 0.385804 1.431782 0.385804
v -0.000000 1.431782 0.545610
v -0.385804 1.431782 0.385804
v 0.385804 1.431782 -0.385804
v -0.545610 1.431782 -0.000000
v -0.385804 1.431782 -0.385804
v 0.196965 1.133045 -0.144995
v 0.196965 1.418599 -0.144995
v 0.096007 1.133045 -0.103177
v 0.096007 1.418599 -0.103177
v -0.004951 1.133045 -0.144995
v -0.004951 1.418599 -0.144995
v -0.046770 1.133045 -0.245954
v -0.046770 1.418599 -0.245954
v -0.004951 1.133045 -0.346912
v -0.004951 1.418599 -0.346912
v 0.353553 0.074616 0.353553
v -0.000000 0.074616 0.500000
v -0.353553 0.074616 0.353553
v -0.500000 0.074616 -0.000000
v -0.353553 0.074616 -0.353553
v 0.000000 0.074616 -0.500000
v 0.000000 -0.003082 -0.539585
v 0.381544 -0.003082 -0.381544
v 0.381544 0.077698 -0.381544
v 0.539585 -0.003082 0.000000
v 0.539585 0.077698 0.000000
v 0.381544 -0.003082 0.381544
v 0.381544 0.077698 0.381544
v -0.000000 -0.003082 0.539585
v -0.000000 0.077698 0.539585
v -0.381544 -0.003082 0.381544
v -0.381544 0.077698 0.381544
v -0.539585 -0.003082 -0.000000
v -0.539585 0.077698 -0.000000
v -0.381544 -0.003082 -0.381544
v -0.381544 0.077698 -0.381544
v 0.000000 0.077698 -0.539585
vt 0.234266 0.274779
vt 0.150580 0.284641
vt 0.154566 0.275279
vt 0.346556 0.115549
vt 0.249734 0.043036
vt 0.257081 0.026070
vt 0.088418 0.223072
vt 0.097857 0.219270
vt 0.155019 0.501821
vt 0.107869 0.544715
vt 0.109614 0.481134
vt 0.130541 0.331565
vt 0.250278 0.314374
vt 0.257080 0.331566
vt 0.087992 0.135580
vt 0.097354 0.139564
vt 0.162877 0.259453
vt 0.270732 0.214778
vt 0.226057 0.259453
vt 0.329590 0.234742
vt 0.346556 0.242088
vt 0.149553 0.073414
vt 0.153356 0.082852
vt 0.055385 0.454962
vt 0.141142 0.399949
vt 0.077007 0.464745
vt 0.319892 0.731509
vt 0.396292 0.985055
vt 0.320861 0.985343
vt 0.244461 0.731797
vt 0.245430 0.985631
vt 0.169030 0.732085
vt 0.169999 0.985919
vt 0.093599 0.732373
vt 0.094568 0.986207
vt 0.018168 0.732661
vt 0.019137 0.986495
vt 0.546185 0.730645
vt 0.622585 0.984191
vt 0.547154 0.984479
vt 0.470754 0.730933
vt 0.471723 0.984767
vt 0.395323 0.731221
vt 0.142481 0.302742
vt 0.069892 0.230144
vt 0.069891 0.127481
vt 0.142481 0.054889
vt 0.237042 0.072993
vt 0.245141 0.054893
vt 0.299207 0.134560
vt 0.317733 0.127488
vt 0.299632 0.222052
vt 0.317732 0.230150
vt 0.238069 0.284217
vt 0.118203 0.151599
vt 0.270732 0.151599
vt 0.055282 0.564287
vt 0.077489 0.555914
vt 0.290269 0.218067
vt 0.041067 0.115543
vt 0.058261 0.235281
vt 0.041069 0.242083
vt 0.233057 0.082356
vt 0.289769 0.138363
vt 0.246704 0.653146
vt 0.319231 0.564561
vt 0.330703 0.569157
vt 0.137344 0.043257
vt 0.130542 0.026066
vt 0.137889 0.314599
vt 0.245141 0.302743
vt 0.058033 0.122890
vt 0.329364 0.122351
vt 0.043921 0.569150
vt 0.132513 0.641670
vt 0.127918 0.653142
vt 0.289024 0.551112
vt 0.233473 0.619577
vt 0.229994 0.610914
vt 0.162877 0.106924
vt 0.226057 0.106924
vt 0.242103 0.377860
vt 0.297135 0.463609
vt 0.232320 0.399483
vt 0.153432 0.528495
vt 0.152501 0.592028
vt 0.173976 0.545381
vt 0.217153 0.589987
vt 0.319341 0.455236
vt 0.297609 0.554777
vt 0.241843 0.641784
vt 0.197061 0.544217
vt 0.260946 0.544535
vt 0.142297 0.620048
vt 0.086150 0.552434
vt 0.085592 0.468410
vt 0.214358 0.527023
vt 0.260946 0.482243
vt 0.145962 0.611462
vt 0.215726 0.500662
vt 0.216701 0.438205
vt 0.172439 0.484944
vt 0.144621 0.408612
vt 0.228656 0.408069
vt 0.195298 0.484192
vt 0.154549 0.437862
vt 0.132773 0.377741
vt 0.127912 0.366379
vt 0.043913 0.450366
vt 0.246699 0.366389
vt 0.288473 0.467089
vt 0.330703 0.450373
vt 0.118203 0.214778
vt 0.621616 0.730357
vn -0.0211 -0.9985 0.0509
vn 0.9239 0.0000 -0.3827
vn -0.0509 -0.9985 0.0211
vn 0.3827 0.0000 -0.9239
vn -0.3827 0.0000 0.9239
vn -0.0509 -0.9985 -0.0211
vn 0.0000 1.0000 -0.0000
vn 0.3827 0.0000 0.9239
vn -0.0211 -0.9985 -0.0509
vn -0.3827 0.0000 -0.9239
vn -0.9239 0.0000 -0.3827
vn -0.9239 0.0000 0.3827
vn 0.9239 0.0000 0.3827
vn 0.0211 -0.9985 0.0509
vn 0.0509 -0.9985 0.0211
vn 0.0509 -0.9985 -0.0211
vn 0.0776 0.9965 -0.0321
vn 0.0211 -0.9985 -0.0509
vn -0.0211 0.9985 0.0509
vn 0.0211 0.9985 0.0509
vn -0.0509 0.9985 -0.0211
vn 0.0211 0.9985 -0.0509
vn 0.0509 0.9985 -0.0211
vn -0.0211 0.9985 -0.0509
vn -0.0509 0.9985 0.0211
vn 0.0509 0.9985 0.0211
vn 0.0321 0.9965 0.0776
vn 0.0776 -0.9965 -0.0321
vn 0.0776 0.9965 0.0321
vn -0.0321 -0.9965 0.0776
vn 0.0321 -0.9965 0.0776
vn -0.0776 -0.9965 -0.0321
vn -0.0776 0.9965 0.0321
vn -0.0776 0.9965 -0.0321
vn -0.0321 -0.9965 -0.0776
vn 0.0321 0.9965 -0.0776
vn -0.0776 -0.9965 0.0321
vn 0.0776 -0.9965 0.0321
vn -0.0321 0.9965 -0.0776
vn -0.0321 0.9965 0.0776
vn 0.0321 -0.9965 -0.0776
usemtl Material.001
s off
f 17/1/1 34/2/1 18/3/1
f 14/4/2 47/5/2 12/6/2
f 18/3/3 35/7/3 19/8/3
f 30/9/4 29/10/4 31/11/4
f 4/12/5 42/13/5 2/14/5
f 19/8/6 36/15/6 20/16/6
f 2/17/7 6/18/7 4/19/7
f 2/14/8 49/20/8 16/21/8
f 20/16/9 37/22/9 21/23/9
f 75/24/2 76/25/2 74/26/2
f 24/27/10 72/28/10 71/29/10
f 23/30/11 71/29/11 70/31/11
f 22/32/12 70/31/12 69/33/12
f 21/34/5 69/33/5 68/35/5
f 20/36/8 68/35/8 67/37/8
f 19/38/13 67/39/13 33/40/13
f 18/41/2 33/40/2 32/42/2
f 17/43/4 32/42/4 72/28/4
f 54/44/2 35/7/2 34/2/2
f 50/45/13 36/15/13 35/7/13
f 51/46/8 37/22/8 36/15/8
f 52/47/5 38/48/5 37/22/5
f 53/49/12 39/50/12 38/48/12
f 55/51/11 40/52/11 39/50/11
f 56/53/10 27/54/10 40/52/10
f 6/18/7 14/55/7 8/56/7
f 88/57/4 74/26/4 73/58/4
f 24/59/14 27/54/14 17/1/14
f 24/59/15 39/50/15 40/52/15
f 8/60/11 44/61/11 6/62/11
f 22/63/16 39/50/16 23/64/16
f 70/65/17 83/66/17 69/67/17
f 12/6/4 46/68/4 10/69/4
f 21/23/18 38/48/18 22/63/18
f 41/70/19 43/71/19 42/13/19
f 42/13/20 56/53/20 49/20/20
f 45/72/21 50/45/21 44/61/21
f 46/68/22 53/49/22 52/47/22
f 48/73/23 53/49/23 47/5/23
f 45/72/24 52/47/24 51/46/24
f 44/61/25 54/44/25 41/70/25
f 49/20/26 55/51/26 48/73/26
f 72/74/27 87/75/27 71/76/27
f 11/77/28 84/78/28 13/79/28
f 8/56/7 12/80/7 10/81/7
f 10/69/10 45/72/10 8/60/10
f 6/62/12 41/70/12 4/12/12
f 79/82/8 80/83/8 78/84/8
f 16/21/13 48/73/13 14/4/13
f 28/85/2 26/86/2 29/10/2
f 43/71/4 34/2/4 27/54/4
f 25/87/13 57/88/13 26/86/13
f 81/89/5 82/90/5 80/83/5
f 71/76/29 85/91/29 70/65/29
f 58/92/8 59/93/8 57/88/8
f 85/91/11 86/94/11 84/78/11
f 1/95/30 74/26/30 3/96/30
f 60/97/5 61/98/5 59/93/5
f 83/66/12 84/78/12 82/90/12
f 15/99/31 73/58/31 1/95/31
f 62/100/12 63/101/12 61/98/12
f 66/102/7 58/92/7 25/87/7
f 5/103/32 78/84/32 7/104/32
f 64/105/11 65/106/11 63/101/11
f 77/107/13 78/84/13 76/25/13
f 33/108/33 75/24/33 32/109/33
f 66/102/10 31/11/10 65/106/10
f 87/75/10 73/58/10 86/94/10
f 67/110/34 77/107/34 33/108/34
f 7/104/35 80/83/35 9/111/35
f 69/67/36 81/89/36 68/112/36
f 3/96/37 76/25/37 5/103/37
f 13/79/38 86/94/38 15/99/38
f 68/112/39 79/82/39 67/110/39
f 32/109/40 88/57/40 72/74/40
f 9/111/41 82/90/41 11/77/41
f 58/92/7 62/100/7 60/97/7
f 25/87/7 30/9/7 66/102/7
f 17/1/1 27/54/1 34/2/1
f 14/4/2 48/73/2 47/5/2
f 18/3/3 34/2/3 35/7/3
f 30/9/4 28/85/4 29/10/4
f 4/12/5 41/70/5 42/13/5
f 19/8/6 35/7/6 36/15/6
f 2/17/7 16/113/7 6/18/7
f 2/14/8 42/13/8 49/20/8
f 20/16/9 36/15/9 37/22/9
f 75/24/2 77/107/2 76/25/2
f 24/27/10 17/43/10 72/28/10
f 23/30/11 24/27/11 71/29/11
f 22/32/12 23/30/12 70/31/12
f 21/34/5 22/32/5 69/33/5
f 20/36/8 21/34/8 68/35/8
f 19/38/13 20/114/13 67/39/13
f 18/41/2 19/38/2 33/40/2
f 17/43/4 18/41/4 32/42/4
f 54/44/2 50/45/2 35/7/2
f 50/45/13 51/46/13 36/15/13
f 51/46/8 52/47/8 37/22/8
f 52/47/5 53/49/5 38/48/5
f 53/49/12 55/51/12 39/50/12
f 55/51/11 56/53/11 40/52/11
f 56/53/10 43/71/10 27/54/10
f 6/18/7 16/113/7 14/55/7
f 88/57/4 75/24/4 74/26/4
f 24/59/14 40/52/14 27/54/14
f 24/59/15 23/64/15 39/50/15
f 8/60/11 45/72/11 44/61/11
f 22/63/16 38/48/16 39/50/16
f 70/65/17 85/91/17 83/66/17
f 12/6/4 47/5/4 46/68/4
f 21/23/18 37/22/18 38/48/18
f 41/70/19 54/44/19 43/71/19
f 42/13/20 43/71/20 56/53/20
f 45/72/21 51/46/21 50/45/21
f 46/68/22 47/5/22 53/49/22
f 48/73/23 55/51/23 53/49/23
f 45/72/24 46/68/24 52/47/24
f 44/61/25 50/45/25 54/44/25
f 49/20/26 56/53/26 55/51/26
f 72/74/27 88/57/27 87/75/27
f 11/77/28 82/90/28 84/78/28
f 8/56/7 14/55/7 12/80/7
f 10/69/10 46/68/10 45/72/10
f 6/62/12 44/61/12 41/70/12
f 79/82/8 81/89/8 80/83/8
f 16/21/13 49/20/13 48/73/13
f 28/85/2 25/87/2 26/86/2
f 43/71/4 54/44/4 34/2/4
f 25/87/13 58/92/13 57/88/13
f 81/89/5 83/66/5 82/90/5
f 71/76/29 87/75/29 85/91/29
f 58/92/8 60/97/8 59/93/8
f 85/91/11 87/75/11 86/94/11
f 1/95/30 73/58/30 74/26/30
f 60/97/5 62/100/5 61/98/5
f 83/66/12 85/91/12 84/78/12
f 15/99/31 86/94/31 73/58/31
f 62/100/12 64/105/12 63/101/12
f 66/102/7 64/105/7 58/92/7
f 5/103/32 76/25/32 78/84/32
f 64/105/11 66/102/11 65/106/11
f 77/107/13 79/82/13 78/84/13
f 33/108/33 77/107/33 75/24/33
f 66/102/10 30/9/10 31/11/10
f 87/75/10 88/57/10 73/58/10
f 67/110/34 79/82/34 77/107/34
f 7/104/35 78/84/35 80/83/35
f 69/67/36 83/66/36 81/89/36
f 3/96/37 74/26/37 76/25/37
f 13/79/38 84/78/38 86/94/38
f 68/112/39 81/89/39 79/82/39
f 32/109/40 75/24/40 88/57/40
f 9/111/41 80/83/41 82/90/41
f 58/92/7 64/105/7 62/100/7
f 25/87/7 28/85/7 30/9/7
