# Blender v2.80 (sub 75) OBJ File: 'All models Expo 1.blend'
# www.blender.org
mtllib lamp.mtl
o Plane.002
v -33.633335 0.000000 0.700000
v -32.233334 0.000000 0.700000
v -33.633335 0.000000 -0.700000
v -32.233334 0.000000 -0.700000
v -33.633335 0.140000 0.700000
v -32.233334 0.140000 0.700000
v -33.633335 0.140000 -0.700000
v -32.233334 0.140000 -0.700000
v -33.073334 0.140000 0.140000
v -32.793335 0.140000 0.140000
v -33.073334 0.140000 -0.140000
v -32.793335 0.140000 -0.140000
v -33.073334 7.000000 0.140000
v -32.793335 7.000000 0.140000
v -33.073334 7.000000 -0.140000
v -32.793335 7.000000 -0.140000
v -33.073334 6.657000 -0.140000
v -32.793335 6.657000 -0.140000
v -32.793335 6.657000 0.140000
v -33.073334 6.657000 0.140000
v -35.732815 7.000000 -0.140000
v -35.732815 7.000000 0.140000
v -30.133854 7.000000 0.140000
v -30.133854 7.000000 -0.140000
v -35.732815 6.915115 -0.140000
v -30.133854 6.915115 0.140000
v -30.133854 6.915115 -0.140000
v -35.732815 6.915115 0.140000
v -30.532776 6.876398 0.140000
v -30.532776 7.000000 0.140000
v -30.532776 6.876398 -0.140000
v -30.532776 7.000000 -0.140000
v -30.153801 6.913179 0.140000
v -30.153801 6.913179 -0.140000
v -30.153801 7.000000 0.140000
v -30.153801 7.000000 -0.140000
v -33.633335 0.000000 0.560000
v -32.233334 0.000000 0.560000
v -33.633335 0.140000 0.560000
v -32.233334 0.140000 0.560000
v -33.073334 0.140000 0.112000
v -32.793335 0.140000 0.112000
v -33.073334 7.000000 0.112000
v -32.793335 7.000000 0.112000
v -33.073334 6.657000 0.112000
v -32.793335 6.657000 0.112000
v -35.732815 7.000000 0.112000
v -30.133854 7.000000 0.112000
v -35.732815 6.915115 0.112000
v -30.133854 6.915115 0.112000
v -30.532776 7.000000 0.112000
v -30.532776 6.876398 0.112000
v -30.153801 7.000000 0.112000
v -30.153801 6.913179 0.112000
v -32.233334 0.000000 -0.574000
v -32.233334 0.140000 -0.574000
v -32.793335 0.140000 -0.114800
v -32.793335 7.000000 -0.114800
v -33.073334 6.657000 -0.114800
v -30.133854 7.000000 -0.114800
v -35.732815 6.915115 -0.114800
v -30.532776 7.000000 -0.114800
v -30.153801 7.000000 -0.114800
v -33.633335 0.000000 -0.574000
v -33.633335 0.140000 -0.574000
v -33.073334 0.140000 -0.114800
v -33.073334 7.000000 -0.114800
v -32.793335 6.657000 -0.114800
v -35.732815 7.000000 -0.114800
v -30.133854 6.915115 -0.114800
v -30.532776 6.876398 -0.114800
v -30.153801 6.913179 -0.114800
v -35.333893 6.876398 -0.140000
v -35.333893 7.000000 -0.140000
v -35.333893 7.000000 0.140000
v -35.333893 6.876398 0.140000
v -35.333893 6.876398 0.112000
v -35.333893 7.000000 0.112000
v -35.333893 6.876398 -0.114800
v -35.333893 7.000000 -0.114800
v -35.712868 6.913179 -0.140000
v -35.712868 7.000000 0.140000
v -35.712868 6.913179 0.112000
v -35.712868 7.000000 0.112000
v -35.712868 6.913179 -0.114800
v -35.712868 7.000000 -0.114800
v -35.712868 7.000000 -0.140000
v -35.712868 6.913179 0.140000
v -30.532776 6.902950 -0.114800
v -30.532776 6.902950 0.112000
v -30.153801 6.939731 -0.114800
v -30.153801 6.939731 0.112000
v -35.333893 6.902950 0.112000
v -35.333893 6.902950 -0.114800
v -35.712868 6.939731 0.112000
v -35.712868 6.939731 -0.114800
v -32.233334 0.000000 -0.574000
v -32.233334 0.000000 0.560000
vt 0.458570 0.175816
vt 0.649682 0.097289
vt 0.470996 0.191933
vt 0.657660 0.093588
vt 0.760116 0.155403
vt 0.760622 0.159694
vt 0.642790 0.083181
vt 0.650080 0.097191
vt 0.640339 0.292177
vt 0.623178 0.303941
vt 0.625337 0.291749
vt 0.648416 0.069262
vt 0.661014 0.200816
vt 0.646134 0.299503
vt 0.622941 0.768862
vt 0.652625 0.772571
vt 0.641961 0.786528
vt 0.671092 0.305388
vt 0.769507 0.223208
vt 0.774498 0.224385
vt 0.895718 0.037313
vt 0.664622 0.200532
vt 0.653153 0.769560
vt 0.628581 0.759843
vt 0.629632 0.757773
vt 0.668373 0.736493
vt 0.638837 0.738467
vt 0.646015 0.724773
vt 0.413093 0.651287
vt 0.408241 0.651720
vt 0.411868 0.650188
vt 0.863626 0.841740
vt 0.866570 0.843105
vt 0.864224 0.843111
vt 0.423359 0.854008
vt 0.641062 0.833630
vt 0.423758 0.857797
vt 0.418747 0.812712
vt 0.641607 0.790247
vt 0.419180 0.816565
vt 0.421302 0.835334
vt 0.640671 0.830074
vt 0.416839 0.798018
vt 0.852457 0.857121
vt 0.853084 0.854470
vt 0.854199 0.857337
vt 0.422684 0.624821
vt 0.422489 0.630258
vt 0.419689 0.626688
vt 0.851246 0.857906
vt 0.854214 0.857373
vt 0.853752 0.860340
vt 0.863203 0.844270
vt 0.862215 0.843335
vt 0.425372 0.628989
vt 0.425139 0.624398
vt 0.412565 0.648382
vt 0.414192 0.649234
vt 0.851122 0.855006
vt 0.879207 0.802693
vt 0.881989 0.805790
vt 0.879587 0.806061
vt 0.652685 0.772539
vt 0.824104 0.851703
vt 0.812780 0.846738
vt 0.662033 0.750172
vt 0.836228 0.825033
vt 0.660749 0.752985
vt 0.823338 0.854300
vt 0.840394 0.817842
vt 0.837561 0.822576
vt 0.825607 0.847169
vt 0.823951 0.852162
vt 0.868422 0.841274
vt 0.932270 0.837086
vt 0.931617 0.832422
vt 0.852017 0.853554
vt 0.826402 0.845094
vt 0.638986 0.807796
vt 0.816007 0.874865
vt 0.638614 0.811401
vt 0.885063 0.833070
vt 0.882661 0.833341
vt 0.424150 0.631293
vt 0.423903 0.628789
vt 0.869075 0.845938
vt 0.407718 0.648109
vt 0.866289 0.845669
vt 0.420901 0.831539
vt 0.642867 0.850364
vt 0.425400 0.872919
vt 0.637661 0.740766
vt 0.814931 0.233918
vt 0.873256 0.353054
vt 0.463112 0.200361
vt 0.658639 0.190984
vt 0.665534 0.191160
vt 0.740036 0.190420
vt 0.448982 0.183434
vt 0.819423 0.234977
vt 0.895718 0.358350
vt 0.643220 0.853924
vt 0.425780 0.876716
vt 0.852080 0.855227
vt 0.885404 0.836101
vt 0.883002 0.836372
vt 0.831291 0.851616
vt 0.831089 0.849392
vt 0.817122 0.871769
vt 0.866351 0.845706
vt 0.741909 0.187880
vt 0.658388 0.191024
vt 0.627755 0.759858
vt 0.457016 0.646938
vt 0.637180 0.741609
vt 0.836403 0.833869
vt 0.458370 0.644206
vt 0.836063 0.830499
vt 0.833949 0.811204
vt 0.626128 0.763012
vt 0.446522 0.667507
vt 0.460926 0.638911
vt 0.442276 0.675191
vt 0.445161 0.670028
vt 0.837024 0.838483
vt 0.837366 0.841514
vt 0.955975 0.830892
vt 0.983268 0.827541
vt 0.983370 0.829144
vt 0.833570 0.807836
vt 0.409368 0.653859
vt 0.492954 0.420315
vt 0.442781 0.390324
vt 0.492954 0.390324
vt 0.492953 0.390107
vt 0.442781 0.360117
vt 0.492953 0.360117
vt 0.836922 0.836880
vt 0.882558 0.831737
vt 0.767335 0.852084
vt 0.729552 0.857761
vt 0.729350 0.855538
vt 0.910056 0.831592
vt 0.955873 0.829289
vt 0.909954 0.829989
vt 0.932473 0.839310
vt 0.869277 0.848162
vt 0.767538 0.854307
vt 0.453729 0.166082
vt 0.809577 0.149013
vt 0.881609 0.802422
vt 0.619089 0.776768
vt 0.442781 0.420315
vt 0.442781 0.390107
vn 0.0000 -1.0000 0.0000
vn 0.0000 1.0000 0.0000
vn 1.0000 0.0000 0.0000
vn -1.0000 0.0000 0.0000
vn 0.0000 0.0000 -1.0000
vn 0.0000 0.0000 1.0000
vn 0.0966 -0.9953 0.0000
vn -0.0966 -0.9953 0.0000
usemtl Material.005
s off
f 3/1/1 97/2/1 64/3/1
f 56/4/2 12/5/2 57/6/2
f 4/7/3 56/4/3 55/8/3
f 1/9/4 39/10/4 37/11/4
f 3/1/5 8/12/5 4/7/5
f 2/13/6 5/14/6 1/9/6
f 17/15/5 16/16/5 18/17/5
f 39/18/2 9/19/2 41/20/2
f 7/21/2 12/5/2 8/12/2
f 6/22/2 9/19/2 5/14/2
f 58/23/2 15/24/2 67/25/2
f 19/26/6 13/27/6 20/28/6
f 87/29/5 25/30/5 21/31/5
f 35/32/6 26/33/6 23/34/6
f 9/35/4 45/36/4 41/37/4
f 12/38/3 68/39/3 57/40/3
f 10/41/6 20/42/6 9/35/6
f 11/43/5 18/17/5 12/38/5
f 27/44/3 60/45/3 70/46/3
f 28/47/4 47/48/4 49/49/4
f 34/50/7 70/51/7 72/52/7
f 35/32/2 48/53/2 53/54/2
f 82/55/6 28/47/6 88/56/6
f 87/29/2 69/57/2 86/58/2
f 36/59/5 27/44/5 34/50/5
f 88/60/8 49/61/8 83/62/8
f 16/63/5 31/64/5 18/65/5
f 14/66/2 51/67/2 44/68/2
f 18/17/7 71/69/7 68/39/7
f 14/66/6 29/70/6 30/71/6
f 32/72/5 34/50/5 31/64/5
f 30/71/2 53/54/2 51/67/2
f 31/73/7 72/52/7 71/69/7
f 30/71/6 33/74/6 35/32/6
f 52/75/7 33/74/7 29/76/7
f 51/67/2 63/77/2 62/78/2
f 46/79/7 29/80/7 19/81/7
f 44/68/2 62/78/2 58/23/2
f 83/62/8 61/82/8 85/83/8
f 84/84/2 22/85/2 82/55/2
f 53/54/2 60/45/2 63/77/2
f 54/86/7 26/33/7 33/74/7
f 49/49/4 69/57/4 61/87/4
f 50/88/3 23/34/3 26/33/3
f 42/89/3 19/81/3 10/41/3
f 41/37/4 59/90/4 66/91/4
f 14/66/2 43/92/2 13/27/2
f 39/18/2 66/93/2 65/94/2
f 37/11/4 65/95/4 64/3/4
f 98/96/3 6/22/3 2/13/3
f 40/97/2 10/98/2 6/22/2
f 37/11/1 2/13/1 1/9/1
f 64/3/4 7/99/4 3/1/4
f 65/94/2 11/100/2 7/101/2
f 66/91/4 17/102/4 11/103/4
f 61/87/4 21/31/4 25/30/4
f 63/77/2 24/104/2 36/59/2
f 85/83/8 25/105/8 81/106/8
f 58/23/2 32/72/2 16/63/2
f 62/78/2 36/59/2 32/72/2
f 54/86/4 91/107/4 72/108/4
f 68/39/7 52/109/7 46/79/7
f 86/58/2 47/48/2 84/84/2
f 72/52/7 50/110/7 54/86/7
f 70/46/3 48/53/3 50/88/3
f 57/40/3 46/79/3 42/89/3
f 44/68/2 67/25/2 43/92/2
f 55/8/3 40/97/3 98/96/3
f 40/97/2 57/6/2 42/111/2
f 64/3/1 38/112/1 37/11/1
f 67/113/2 78/114/2 43/115/2
f 59/90/8 73/116/8 17/102/8
f 43/115/2 75/117/2 13/27/2
f 45/36/8 79/118/8 59/90/8
f 20/42/8 77/119/8 45/36/8
f 15/120/2 80/121/2 67/113/2
f 13/27/6 76/122/6 20/28/6
f 15/120/5 73/123/5 74/124/5
f 80/121/2 84/84/2 78/114/2
f 79/125/8 81/106/8 73/126/8
f 78/114/2 82/55/2 75/117/2
f 77/127/4 94/128/4 79/129/4
f 76/130/8 83/62/8 77/119/8
f 74/124/2 86/58/2 80/121/2
f 75/117/6 88/56/6 76/122/6
f 74/124/5 81/131/5 87/29/5
f 89/132/7 92/133/7 90/134/7
f 93/135/8 96/136/8 94/137/8
f 85/83/6 94/138/6 96/139/6
f 71/140/3 90/141/3 52/142/3
f 83/143/5 93/144/5 77/127/5
f 85/83/3 95/145/3 83/143/3
f 54/86/5 90/146/5 92/147/5
f 72/108/6 89/148/6 71/140/6
f 3/1/1 4/7/1 97/2/1
f 56/4/2 8/12/2 12/5/2
f 4/7/3 8/12/3 56/4/3
f 1/9/4 5/14/4 39/10/4
f 3/1/5 7/149/5 8/12/5
f 2/13/6 6/22/6 5/14/6
f 17/15/5 15/24/5 16/16/5
f 39/18/2 5/14/2 9/19/2
f 7/21/2 11/150/2 12/5/2
f 6/22/2 10/98/2 9/19/2
f 58/23/2 16/16/2 15/24/2
f 19/26/6 14/66/6 13/27/6
f 87/29/5 81/131/5 25/30/5
f 35/32/6 33/74/6 26/33/6
f 9/35/4 20/42/4 45/36/4
f 12/38/3 18/17/3 68/39/3
f 10/41/6 19/81/6 20/42/6
f 11/43/5 17/15/5 18/17/5
f 27/44/3 24/104/3 60/45/3
f 28/47/4 22/85/4 47/48/4
f 34/50/7 27/44/7 70/51/7
f 35/32/2 23/34/2 48/53/2
f 82/55/6 22/85/6 28/47/6
f 87/29/2 21/31/2 69/57/2
f 36/59/5 24/104/5 27/44/5
f 88/60/8 28/151/8 49/61/8
f 16/63/5 32/72/5 31/64/5
f 14/66/2 30/71/2 51/67/2
f 18/17/7 31/73/7 71/69/7
f 14/66/6 19/26/6 29/70/6
f 32/72/5 36/59/5 34/50/5
f 30/71/2 35/32/2 53/54/2
f 31/73/7 34/50/7 72/52/7
f 30/71/6 29/70/6 33/74/6
f 52/75/7 54/86/7 33/74/7
f 51/67/2 53/54/2 63/77/2
f 46/79/7 52/109/7 29/80/7
f 44/68/2 51/67/2 62/78/2
f 83/62/8 49/61/8 61/82/8
f 84/84/2 47/48/2 22/85/2
f 53/54/2 48/53/2 60/45/2
f 54/86/7 50/110/7 26/33/7
f 49/49/4 47/48/4 69/57/4
f 50/88/3 48/53/3 23/34/3
f 42/89/3 46/79/3 19/81/3
f 41/37/4 45/36/4 59/90/4
f 14/66/2 44/68/2 43/92/2
f 39/18/2 41/20/2 66/93/2
f 37/11/4 39/10/4 65/95/4
f 98/96/3 40/97/3 6/22/3
f 40/97/2 42/111/2 10/98/2
f 37/11/1 38/112/1 2/13/1
f 64/3/4 65/95/4 7/99/4
f 65/94/2 66/93/2 11/100/2
f 66/91/4 59/90/4 17/102/4
f 61/87/4 69/57/4 21/31/4
f 63/77/2 60/45/2 24/104/2
f 85/83/8 61/82/8 25/105/8
f 58/23/2 62/78/2 32/72/2
f 62/78/2 63/77/2 36/59/2
f 54/86/4 92/147/4 91/107/4
f 68/39/7 71/69/7 52/109/7
f 86/58/2 69/57/2 47/48/2
f 72/52/7 70/51/7 50/110/7
f 70/46/3 60/45/3 48/53/3
f 57/40/3 68/39/3 46/79/3
f 44/68/2 58/23/2 67/25/2
f 55/8/3 56/4/3 40/97/3
f 40/97/2 56/4/2 57/6/2
f 64/3/1 97/2/1 38/112/1
f 67/113/2 80/121/2 78/114/2
f 59/90/8 79/118/8 73/116/8
f 43/115/2 78/114/2 75/117/2
f 45/36/8 77/119/8 79/118/8
f 20/42/8 76/130/8 77/119/8
f 15/120/2 74/124/2 80/121/2
f 13/27/6 75/117/6 76/122/6
f 15/120/5 17/152/5 73/123/5
f 80/121/2 86/58/2 84/84/2
f 79/125/8 85/83/8 81/106/8
f 78/114/2 84/84/2 82/55/2
f 77/127/4 93/144/4 94/128/4
f 76/130/8 88/60/8 83/62/8
f 74/124/2 87/29/2 86/58/2
f 75/117/6 82/55/6 88/56/6
f 74/124/5 73/123/5 81/131/5
f 89/132/7 91/153/7 92/133/7
f 93/135/8 95/154/8 96/136/8
f 85/83/6 79/125/6 94/138/6
f 71/140/3 89/148/3 90/141/3
f 83/143/5 95/145/5 93/144/5
f 85/83/3 96/139/3 95/145/3
f 54/86/5 52/75/5 90/146/5
f 72/108/6 91/107/6 89/148/6
