# Blender v2.80 (sub 75) OBJ File: 'building.blend'
# www.blender.org
mtllib sidewalk.mtl
o Cube.014_Cube.026
v -4.000001 -0.000578 -28.000561
v -4.000001 0.099422 -28.000561
v -3.999999 -0.000578 -20.000561
v -3.999999 0.099422 -20.000561
v -10.000001 -0.000578 -28.000559
v -10.000001 0.099422 -28.000559
v -9.999999 -0.000578 -20.000559
v -9.999999 0.099422 -20.000559
v -9.634810 -0.000578 -20.000559
v -9.634810 0.099422 -20.000559
v -9.634812 -0.000578 -28.000559
v -9.634812 0.099422 -28.000559
v -4.385349 -0.000578 -20.000561
v -4.385352 -0.000578 -28.000561
v -4.139170 0.318661 -28.000561
v -4.000001 0.202575 -28.000561
v -4.040763 0.295263 -28.000561
v -3.999999 0.202575 -20.000561
v -4.139167 0.318661 -20.000561
v -4.040760 0.295263 -20.000561
v -4.381507 0.202575 -28.000561
v -4.246183 0.318661 -28.000561
v -4.344590 0.295263 -28.000561
v -4.246180 0.318661 -20.000561
v -4.381504 0.202575 -20.000561
v -4.344587 0.295263 -20.000561
v -10.000001 0.300310 -25.992775
v -10.000001 0.300310 -26.008345
v -9.999999 0.300310 -21.992775
v -9.999999 0.300310 -22.008345
v -10.000001 0.300310 -28.000559
v -9.999999 0.300310 -20.000559
v -4.389244 0.095530 -28.000561
v -4.393133 0.099422 -20.000561
v -4.000000 0.099422 -25.992777
v -4.000000 0.099422 -26.008347
v -4.000000 -0.000578 -26.008347
v -4.000000 -0.000578 -25.992777
v -3.999999 -0.000578 -22.008347
v -3.999999 -0.000578 -21.992777
v -3.999999 0.099422 -21.992777
v -3.999999 0.099422 -22.008347
v -10.000001 -0.000578 -25.992775
v -10.000001 -0.000578 -26.008345
v -9.999999 -0.000578 -21.992775
v -9.999999 -0.000578 -22.008345
v -9.999999 0.099422 -22.008345
v -9.999999 0.099422 -21.992775
v -10.000001 0.099422 -26.008345
v -10.000001 0.099422 -25.992775
v -9.634810 0.099422 -22.008345
v -9.634810 0.099422 -21.992775
v -9.634812 0.099422 -26.008345
v -9.634812 0.099422 -25.992775
v -4.393134 0.099422 -21.992777
v -4.393134 0.099422 -22.008347
v -4.393135 0.099422 -26.008347
v -4.393135 0.099422 -25.992777
v -4.139169 0.318661 -25.992777
v -4.139169 0.318661 -26.008347
v -4.139168 0.318661 -21.992777
v -4.139168 0.318661 -22.008347
v -4.040761 0.295263 -22.008347
v -4.040761 0.295263 -21.992777
v -4.040762 0.295263 -26.008347
v -4.040762 0.295263 -25.992777
v -3.999999 0.202575 -21.992777
v -3.999999 0.202575 -22.008347
v -4.000000 0.202575 -25.992777
v -4.000000 0.202575 -26.008347
v -4.246181 0.318661 -22.008347
v -4.246181 0.318661 -21.992777
v -4.246182 0.318661 -26.008347
v -4.246182 0.318661 -25.992777
v -4.344589 0.295263 -25.992777
v -4.344589 0.295263 -26.008347
v -4.344588 0.295263 -21.992777
v -4.344588 0.295263 -22.008347
v -4.381506 0.202575 -26.008347
v -4.381506 0.202575 -25.992777
v -4.381505 0.202575 -22.008347
v -4.381505 0.202575 -21.992777
v -9.860319 0.589462 -20.000559
v -9.999999 0.457421 -20.000559
v -9.959088 0.533763 -20.000559
v -9.860319 0.589462 -21.992775
v -9.999999 0.457421 -21.992775
v -9.959088 0.533763 -21.992775
v -9.774492 0.589462 -28.000559
v -9.634812 0.457421 -28.000559
v -9.675723 0.533763 -28.000559
v -9.774492 0.589462 -26.008345
v -9.634812 0.457421 -26.008345
v -9.675723 0.533763 -26.008345
v -9.634810 0.457421 -21.992775
v -9.774490 0.589462 -21.992775
v -9.675721 0.533763 -21.992775
v -9.774492 0.589462 -25.992775
v -9.634812 0.457421 -25.992775
v -9.675723 0.533763 -25.992775
v -9.634810 0.457421 -20.000559
v -9.774490 0.589462 -20.000559
v -9.675721 0.533763 -20.000559
v -9.860321 0.589462 -26.008345
v -10.000001 0.457421 -26.008345
v -9.959090 0.533763 -26.008345
v -10.000001 0.457421 -25.992775
v -9.860321 0.589462 -25.992775
v -9.959090 0.533763 -25.992775
v -9.860319 0.589462 -22.008345
v -9.999999 0.457421 -22.008345
v -9.959088 0.533763 -22.008345
v -9.634810 0.457421 -22.008345
v -9.774490 0.589462 -22.008345
v -9.675721 0.533763 -22.008345
v -10.000001 0.457421 -28.000559
v -9.860321 0.589462 -28.000559
v -9.959090 0.533763 -28.000559
v -9.634812 0.300310 -25.967720
v -9.634812 0.275256 -25.992775
v -9.634812 0.325365 -25.992775
v -9.634812 0.275256 -26.008345
v -9.634812 0.300310 -26.033398
v -9.634812 0.325365 -26.008345
v -9.634810 0.300310 -21.967720
v -9.634810 0.275256 -21.992775
v -9.634810 0.325365 -21.992775
v -9.634810 0.275256 -22.008345
v -9.634810 0.300310 -22.033398
v -9.634810 0.325365 -22.008345
v -4.418189 0.300310 -22.033400
v -4.393134 0.275256 -22.008347
v -4.393135 0.275256 -25.992777
v -4.418190 0.300310 -25.967722
v -4.393133 0.275256 -20.000561
v -4.418188 0.300310 -20.000711
v -4.418189 0.300310 -21.967722
v -4.393134 0.275256 -21.992777
v -4.418190 0.300310 -26.033400
v -4.393135 0.275256 -26.008347
v -4.418190 0.300310 -28.000347
v -4.393136 0.275256 -28.000561
v -9.634812 0.300310 -28.000559
v -9.634810 0.300310 -20.000559
v -9.634812 0.300310 -25.992775
v -9.634812 0.300310 -26.008345
v -9.634810 0.300310 -21.992775
v -9.634810 0.300310 -22.008345
vt 0.646996 0.457080
vt 0.550979 0.462052
vt 0.550979 0.457081
vt 0.987769 0.430371
vt 0.992589 0.412770
vt 0.992589 0.430371
vt 0.987769 0.412770
vt 0.992589 0.316750
vt 0.910236 0.250296
vt 0.795588 0.015313
vt 0.911715 0.020973
vt 0.987768 0.123968
vt 0.992589 0.316000
vt 0.987769 0.316000
vt 0.540412 0.465100
vt 0.535593 0.483672
vt 0.535593 0.465100
vt 0.533338 0.054917
vt 0.530491 0.219365
vt 0.522619 0.225524
vt 0.647746 0.486648
vt 0.839779 0.491650
vt 0.647746 0.491651
vt 0.987768 0.027202
vt 0.992587 0.009602
vt 0.992587 0.027202
vt 0.550979 0.476965
vt 0.549851 0.481708
vt 0.545384 0.483487
vt 0.550979 0.491652
vt 0.646996 0.486648
vt 0.646996 0.491651
vt 0.840529 0.491650
vt 0.936547 0.486647
vt 0.936548 0.491820
vt 0.951933 0.483671
vt 0.947114 0.465098
vt 0.951933 0.465098
vt 0.839779 0.462051
vt 0.647746 0.457080
vt 0.839778 0.457079
vt 0.839778 0.452259
vt 0.550979 0.466932
vt 0.646996 0.462052
vt 0.646996 0.466932
vt 0.550979 0.471807
vt 0.646996 0.476965
vt 0.647746 0.462052
vt 0.839779 0.466931
vt 0.647746 0.466932
vt 0.936547 0.481838
vt 0.840529 0.486647
vt 0.840529 0.481839
vt 0.839779 0.486647
vt 0.647746 0.481840
vt 0.839779 0.481839
vt 0.647746 0.471807
vt 0.839779 0.471806
vt 0.646996 0.481840
vt 0.550979 0.486649
vt 0.550979 0.481840
vt 0.782610 0.016220
vt 0.806420 0.229720
vt 0.799246 0.237197
vt 0.936547 0.476963
vt 0.840529 0.476964
vt 0.839779 0.476964
vt 0.647746 0.476965
vt 0.840529 0.466931
vt 0.936547 0.462051
vt 0.936547 0.466931
vt 0.840529 0.471806
vt 0.936547 0.471806
vt 0.540544 0.445768
vt 0.763987 0.408929
vt 0.764753 0.413010
vt 0.936547 0.457079
vt 0.840529 0.452259
vt 0.936547 0.452259
vt 0.920620 0.253326
vt 0.925053 0.020973
vt 0.925053 0.253671
vt 0.550979 0.452261
vt 0.646996 0.452261
vt 0.964151 0.016334
vt 0.966835 0.011574
vt 0.970514 0.009602
vt 0.764753 0.300125
vt 0.755431 0.402372
vt 0.754827 0.308434
vt 0.987768 0.123218
vt 0.992588 0.123218
vt 0.978087 0.123968
vt 0.840529 0.462051
vt 0.840529 0.457079
vt 0.646996 0.471807
vt 0.874744 0.305624
vt 0.780178 0.306472
vt 0.780178 0.304822
vt 0.874744 0.298466
vt 0.780178 0.299315
vt 0.780178 0.297664
vt 0.987769 0.316750
vt 0.978087 0.316000
vt 0.544571 0.064576
vt 0.770040 0.280197
vt 0.534218 0.216423
vt 0.937675 0.467063
vt 0.942142 0.465098
vt 0.768815 0.284576
vt 0.766560 0.292759
vt 0.960875 0.123218
vt 0.956739 0.123968
vt 0.956739 0.123218
vt 0.978086 0.123218
vt 0.970514 0.027202
vt 0.978086 0.027202
vt 0.956738 0.412770
vt 0.960875 0.316750
vt 0.960875 0.412770
vt 0.920620 0.020973
vt 0.912826 0.253326
vt 0.964151 0.419502
vt 0.966835 0.414742
vt 0.970515 0.412770
vt 0.910536 0.263148
vt 0.939527 0.122010
vt 0.947099 0.027202
vt 0.947099 0.123218
vt 0.947099 0.316000
vt 0.939527 0.125176
vt 0.947099 0.123968
vt 0.978087 0.316750
vt 0.539920 0.441497
vt 0.978086 0.009602
vt 0.987768 0.009602
vt 0.519859 0.304019
vt 0.520003 0.295810
vt 0.970515 0.316000
vt 0.519763 0.308371
vt 0.753361 0.400780
vt 0.538555 0.431874
vt 0.767613 0.012458
vt 0.541651 0.061600
vt 0.970514 0.123968
vt 0.978087 0.412770
vt 0.970515 0.316750
vt 0.960875 0.316000
vt 0.956738 0.316000
vt 0.960875 0.027202
vt 0.956738 0.316750
vt 0.970514 0.123218
vt 0.939527 0.317958
vt 0.947099 0.316750
vt 0.947099 0.412770
vt 0.966340 0.412770
vt 0.966341 0.316750
vt 0.951274 0.027202
vt 0.956739 0.027202
vt 0.951274 0.123218
vt 0.951274 0.123968
vt 0.951273 0.316750
vt 0.951273 0.412770
vt 0.966340 0.123218
vt 0.966340 0.123968
vt 0.966341 0.316000
vt 0.951273 0.316000
vt 0.966340 0.027202
vt 0.960875 0.123968
vt 0.896040 0.302772
vt 0.893384 0.300116
vt 0.896040 0.300116
vt 0.893384 0.298466
vt 0.896040 0.295810
vt 0.896040 0.298466
vt 0.896040 0.309930
vt 0.893384 0.307274
vt 0.896040 0.307274
vt 0.893384 0.305624
vt 0.896040 0.302968
vt 0.896040 0.305624
vt 0.808953 0.227997
vt 0.791634 0.015596
vt 0.752734 0.311251
vt 0.769296 0.022037
vt 0.770040 0.026231
vt 0.940734 0.316000
vt 0.940734 0.316750
vt 0.940735 0.123218
vt 0.940735 0.123968
vt 0.939527 0.123968
vt 0.939527 0.123218
vt 0.939527 0.316750
vt 0.939527 0.316000
vt 0.939527 0.314792
vt 0.992588 0.123968
vt 0.540412 0.484048
vt 0.545384 0.465100
vt 0.549851 0.467065
vt 0.947301 0.483858
vt 0.647746 0.452261
vt 0.966835 0.025231
vt 0.964151 0.020471
vt 0.874744 0.307274
vt 0.874744 0.300116
vt 0.942142 0.483485
vt 0.937675 0.481706
vt 0.978087 0.430371
vt 0.970515 0.430371
vt 0.966835 0.428399
vt 0.964151 0.423639
vt 0.939527 0.027202
vt 0.939526 0.412770
vn 1.0000 0.0000 -0.0000
vn 0.0000 0.0000 1.0000
vn -1.0000 0.0000 0.0000
vn 0.0000 1.0000 0.0000
vn -0.9937 0.1120 0.0000
vn 0.0000 0.0000 -1.0000
vn -0.9974 0.0721 -0.0021
vn 0.9154 0.4026 -0.0000
vn -0.9290 0.3700 0.0000
vn 0.2313 0.9729 -0.0000
vn -0.2313 0.9729 0.0000
vn -0.9290 0.3701 0.0000
vn 0.9154 0.4025 0.0000
vn 0.2312 0.9729 0.0000
vn -0.9937 0.1121 0.0000
vn -0.4912 0.8710 0.0000
vn -0.8814 0.4723 0.0000
vn 0.4912 0.8710 0.0000
vn 0.8814 0.4723 0.0000
vn 0.4912 0.8711 0.0000
vn 0.8814 0.4724 0.0000
vn -0.8814 0.4724 0.0000
vn -0.4912 0.8711 0.0000
vn 0.7071 0.7071 -0.0000
vn 0.0000 0.0060 1.0000
vn 0.0000 0.7071 -0.7071
vn 0.0000 0.7071 0.7071
vn 0.0000 0.0086 -1.0000
vn -0.0001 0.0000 1.0000
vn 0.9998 0.0216 0.0019
vn -0.2312 0.9729 0.0000
vn 0.4913 0.8710 0.0000
vn -0.4913 0.8710 0.0000
usemtl Material.004
s off
f 41/1/1 18/2/1 4/3/1
f 10/4/2 7/5/2 9/6/2
f 8/7/3 45/8/3 7/5/3
f 136/9/4 125/10/4 144/11/4
f 50/12/3 46/13/3 47/14/3
f 4/15/2 13/16/2 3/17/2
f 58/18/1 132/19/1 56/20/1
f 81/21/5 58/22/5 56/23/5
f 6/24/6 11/25/6 5/26/6
f 24/27/2 26/28/2 25/29/2
f 34/30/5 82/31/5 55/32/5
f 57/33/7 21/34/7 33/35/7
f 14/36/6 2/37/6 1/38/6
f 69/39/1 42/40/1 35/41/1
f 42/40/1 38/42/1 35/41/1
f 20/43/8 67/44/8 64/45/8
f 19/46/4 72/47/4 24/27/4
f 68/48/8 66/49/8 63/50/8
f 23/51/9 79/52/9 76/53/9
f 80/54/9 78/55/9 75/56/9
f 62/57/10 66/49/10 59/58/10
f 77/59/9 25/60/9 26/61/9
f 52/62/6 138/63/6 55/64/6
f 22/65/11 76/53/11 73/66/11
f 74/67/11 78/55/11 71/68/11
f 65/69/8 16/70/8 17/71/8
f 72/47/11 26/61/11 24/27/11
f 74/67/4 62/57/4 59/58/4
f 60/72/4 22/65/4 73/66/4
f 60/72/10 17/71/10 15/73/10
f 11/74/6 33/75/6 14/76/6
f 2/77/1 37/78/1 1/79/1
f 34/80/2 9/81/2 13/82/2
f 41/1/1 3/83/1 40/84/1
f 89/85/6 91/86/6 90/87/6
f 57/88/1 142/89/1 140/90/1
f 49/91/3 5/26/3 44/92/3
f 47/14/3 27/93/3 50/12/3
f 2/77/1 70/94/1 36/95/1
f 19/46/10 64/45/10 61/96/10
f 71/68/4 61/96/4 62/57/4
f 73/66/4 59/58/4 60/72/4
f 81/21/12 77/59/12 78/55/12
f 79/52/12 75/56/12 76/53/12
f 78/55/11 72/47/11 71/68/11
f 76/53/11 74/67/11 73/66/11
f 69/39/13 65/69/13 66/49/13
f 67/44/13 63/50/13 64/45/13
f 66/49/14 60/72/14 59/58/14
f 64/45/14 62/57/14 61/96/14
f 80/54/15 57/33/15 58/22/15
f 82/31/5 56/23/5 55/32/5
f 68/48/1 41/1/1 42/40/1
f 70/94/1 35/41/1 36/95/1
f 51/97/4 55/98/4 56/99/4
f 53/100/4 58/101/4 57/102/4
f 48/103/3 30/104/3 47/14/3
f 134/105/4 129/106/4 131/107/4
f 46/13/3 48/103/3 47/14/3
f 44/92/3 50/12/3 49/91/3
f 38/42/1 36/95/1 35/41/1
f 40/84/1 42/40/1 41/1/1
f 15/73/6 17/108/6 16/109/6
f 56/20/2 128/110/2 51/111/2
f 104/112/4 98/113/4 92/114/4
f 28/115/3 116/116/3 31/117/3
f 102/118/4 86/119/4 83/120/4
f 10/121/2 135/122/2 144/11/2
f 50/12/3 28/115/3 49/91/3
f 49/91/3 31/117/3 6/24/3
f 83/123/2 85/124/2 84/125/2
f 55/64/1 135/122/1 34/126/1
f 123/127/1 90/128/1 93/129/1
f 113/130/1 119/131/1 99/132/1
f 8/7/3 29/133/3 48/103/3
f 12/134/6 142/89/6 33/75/6
f 6/24/6 143/135/6 12/136/6
f 57/88/2 122/137/2 53/138/2
f 29/133/3 111/139/3 30/104/3
f 123/140/4 141/141/4 143/142/4
f 54/143/6 133/144/6 58/18/6
f 30/104/3 107/145/3 27/93/3
f 32/146/3 87/147/3 29/133/3
f 98/113/4 110/148/4 114/149/4
f 92/114/4 117/150/4 104/112/4
f 110/148/4 96/151/4 114/149/4
f 27/93/3 105/152/3 28/115/3
f 125/153/1 95/154/1 101/155/1
f 86/119/16 85/156/16 83/120/16
f 88/157/17 84/125/17 85/156/17
f 92/114/18 91/158/18 89/159/18
f 94/160/19 90/128/19 91/158/19
f 98/113/20 94/160/20 92/114/20
f 100/161/21 93/129/21 94/160/21
f 102/118/18 97/162/18 96/151/18
f 103/163/19 95/154/19 97/162/19
f 107/145/22 106/164/22 105/152/22
f 109/165/23 104/112/23 106/164/23
f 87/147/22 112/166/22 111/139/22
f 88/157/23 110/148/23 112/166/23
f 96/151/20 115/167/20 114/149/20
f 97/162/21 113/130/21 115/167/21
f 117/150/16 106/164/16 104/112/16
f 118/168/17 105/152/17 106/164/17
f 99/132/19 115/167/19 113/130/19
f 100/161/18 114/149/18 115/167/18
f 108/169/16 112/166/16 110/148/16
f 109/165/17 111/139/17 112/166/17
f 10/4/2 32/146/2 8/7/2
f 119/170/1 120/171/1 145/172/1
f 122/173/1 123/174/1 146/175/1
f 125/176/1 126/177/1 147/178/1
f 128/179/1 129/180/1 148/181/1
f 131/107/24 133/144/24 134/105/24
f 144/11/25 135/122/25 136/9/25
f 137/182/26 126/183/26 125/10/26
f 139/184/24 142/89/24 141/141/24
f 137/182/24 135/122/24 138/63/24
f 131/107/27 128/110/27 132/19/27
f 134/105/26 120/185/26 119/186/26
f 139/184/27 122/137/27 140/90/27
f 142/89/28 143/142/28 141/141/28
f 130/187/1 95/154/1 127/188/1
f 124/189/1 99/132/1 121/190/1
f 145/191/1 121/190/1 119/131/1
f 146/192/1 123/127/1 124/189/1
f 145/172/1 122/173/1 146/175/1
f 121/190/1 146/192/1 124/189/1
f 120/171/1 53/100/1 122/173/1
f 130/187/1 147/193/1 148/194/1
f 126/177/1 51/97/1 128/179/1
f 148/194/1 129/195/1 130/187/1
f 147/193/1 127/188/1 125/153/1
f 148/181/1 126/177/1 128/179/1
f 41/1/1 67/44/1 18/2/1
f 10/4/2 8/7/2 7/5/2
f 8/7/3 48/103/3 45/8/3
f 136/9/4 137/182/4 125/10/4
f 50/12/3 43/196/3 46/13/3
f 4/15/2 34/197/2 13/16/2
f 58/18/1 133/144/1 132/19/1
f 81/21/5 80/54/5 58/22/5
f 6/24/6 12/136/6 11/25/6
f 25/29/29 34/197/29 24/27/29
f 34/197/2 4/15/2 24/27/2
f 4/15/2 18/198/2 19/46/2
f 18/198/2 20/199/2 19/46/2
f 19/46/2 24/27/2 4/15/2
f 34/30/5 25/60/5 82/31/5
f 57/33/5 79/52/5 21/34/5
f 14/36/6 33/200/6 2/37/6
f 69/39/1 68/48/1 42/40/1
f 42/40/1 39/201/1 38/42/1
f 20/43/8 18/2/8 67/44/8
f 19/46/4 61/96/4 72/47/4
f 68/48/8 69/39/8 66/49/8
f 23/51/9 21/34/9 79/52/9
f 80/54/9 81/21/9 78/55/9
f 62/57/10 63/50/10 66/49/10
f 77/59/9 82/31/9 25/60/9
f 52/62/6 126/183/6 138/63/6
f 22/65/11 23/51/11 76/53/11
f 74/67/11 75/56/11 78/55/11
f 65/69/8 70/94/8 16/70/8
f 72/47/11 77/59/11 26/61/11
f 74/67/4 71/68/4 62/57/4
f 60/72/4 15/73/4 22/65/4
f 60/72/10 65/69/10 17/71/10
f 11/74/6 12/134/6 33/75/6
f 2/77/1 36/95/1 37/78/1
f 34/80/2 10/121/2 9/81/2
f 41/1/1 4/3/1 3/83/1
f 90/87/6 143/135/6 31/117/6
f 31/117/6 116/116/6 90/87/6
f 116/116/6 118/202/6 117/203/6
f 90/87/6 116/116/6 89/85/6
f 117/203/6 89/85/6 116/116/6
f 57/88/30 33/75/30 142/89/30
f 49/91/3 6/24/3 5/26/3
f 47/14/3 30/104/3 27/93/3
f 2/77/1 16/70/1 70/94/1
f 19/46/10 20/43/10 64/45/10
f 71/68/4 72/47/4 61/96/4
f 73/66/4 74/67/4 59/58/4
f 81/21/9 82/31/9 77/59/9
f 79/52/9 80/54/9 75/56/9
f 78/55/31 77/59/31 72/47/31
f 76/53/31 75/56/31 74/67/31
f 69/39/8 70/94/8 65/69/8
f 67/44/8 68/48/8 63/50/8
f 66/49/10 65/69/10 60/72/10
f 64/45/10 63/50/10 62/57/10
f 80/54/5 79/52/5 57/33/5
f 82/31/5 81/21/5 56/23/5
f 68/48/1 67/44/1 41/1/1
f 70/94/1 69/39/1 35/41/1
f 51/97/4 52/204/4 55/98/4
f 53/100/4 54/205/4 58/101/4
f 48/103/3 29/133/3 30/104/3
f 134/105/4 119/186/4 129/106/4
f 46/13/3 45/8/3 48/103/3
f 44/92/3 43/196/3 50/12/3
f 38/42/1 37/78/1 36/95/1
f 40/84/1 39/201/1 42/40/1
f 16/109/6 2/37/6 15/73/6
f 2/37/6 33/200/6 22/65/6
f 15/73/6 2/37/6 22/65/6
f 33/200/6 21/206/6 22/65/6
f 21/206/6 23/207/6 22/65/6
f 56/20/2 132/19/2 128/110/2
f 104/112/4 108/169/4 98/113/4
f 28/115/3 105/152/3 116/116/3
f 102/118/4 96/151/4 86/119/4
f 10/121/2 34/80/2 135/122/2
f 50/12/3 27/93/3 28/115/3
f 49/91/3 28/115/3 31/117/3
f 84/125/2 32/146/2 144/208/2
f 144/208/2 101/209/2 84/125/2
f 101/209/2 103/210/2 102/211/2
f 84/125/2 101/209/2 83/123/2
f 102/211/2 83/123/2 101/209/2
f 55/64/1 138/63/1 135/122/1
f 93/129/1 124/189/1 123/127/1
f 123/127/1 143/212/1 90/128/1
f 113/130/1 130/187/1 129/195/1
f 129/195/1 119/131/1 113/130/1
f 119/131/1 121/190/1 99/132/1
f 8/7/3 32/146/3 29/133/3
f 12/134/6 143/142/6 142/89/6
f 6/24/6 31/117/6 143/135/6
f 57/88/2 140/90/2 122/137/2
f 29/133/3 87/147/3 111/139/3
f 123/140/4 139/184/4 141/141/4
f 54/143/6 120/185/6 133/144/6
f 30/104/3 111/139/3 107/145/3
f 32/146/3 84/125/3 87/147/3
f 98/113/4 108/169/4 110/148/4
f 92/114/4 89/159/4 117/150/4
f 110/148/4 86/119/4 96/151/4
f 27/93/3 107/145/3 105/152/3
f 101/155/1 144/213/1 125/153/1
f 125/153/1 127/188/1 95/154/1
f 86/119/16 88/157/16 85/156/16
f 88/157/17 87/147/17 84/125/17
f 92/114/18 94/160/18 91/158/18
f 94/160/19 93/129/19 90/128/19
f 98/113/32 100/161/32 94/160/32
f 100/161/19 99/132/19 93/129/19
f 102/118/18 103/163/18 97/162/18
f 103/163/19 101/155/19 95/154/19
f 107/145/17 109/165/17 106/164/17
f 109/165/33 108/169/33 104/112/33
f 87/147/17 88/157/17 112/166/17
f 88/157/33 86/119/33 110/148/33
f 96/151/32 97/162/32 115/167/32
f 97/162/19 95/154/19 113/130/19
f 117/150/16 118/168/16 106/164/16
f 118/168/17 116/116/17 105/152/17
f 99/132/19 100/161/19 115/167/19
f 100/161/18 98/113/18 114/149/18
f 108/169/16 109/165/16 112/166/16
f 109/165/17 107/145/17 111/139/17
f 10/4/2 144/208/2 32/146/2
f 131/107/24 132/19/24 133/144/24
f 137/182/26 138/63/26 126/183/26
f 139/184/24 140/90/24 142/89/24
f 137/182/24 136/9/24 135/122/24
f 131/107/27 129/106/27 128/110/27
f 134/105/26 133/144/26 120/185/26
f 139/184/27 123/140/27 122/137/27
f 130/187/1 113/130/1 95/154/1
f 124/189/1 93/129/1 99/132/1
f 145/172/1 120/171/1 122/173/1
f 121/190/1 145/191/1 146/192/1
f 120/171/1 54/205/1 53/100/1
f 130/187/1 127/188/1 147/193/1
f 126/177/1 52/204/1 51/97/1
f 148/181/1 147/178/1 126/177/1
