# Blender v2.80 (sub 75) OBJ File: 'wall.blend'
# www.blender.org
mtllib wall.mtl
o Cylinder.001_Cylinder.002
v -2.756921 0.373120 5.292032
v -2.756921 9.543770 5.292032
v -14.246762 0.373120 -1.341633
v -14.246762 9.543770 -1.341633
v -2.756921 0.373120 5.780678
v -2.756921 9.543770 5.780678
v -14.669944 0.373120 -1.097310
v -14.669944 9.543770 -1.097310
v -2.756921 0.373120 5.292032
v -14.246762 0.373120 -1.341633
vt 0.197468 0.000063
vt 0.030822 0.999937
vt 0.030822 0.000063
vt 0.000063 0.017822
vt 0.000064 0.982179
vt 0.228227 0.017821
vt 0.197468 0.999937
vt 0.394873 0.982178
vt 0.228227 0.982178
vt 0.394873 0.017821
vn -0.5000 0.0000 0.8660
vn 0.0000 -1.0000 -0.0000
vn 0.0000 1.0000 0.0000
vn 0.5000 0.0000 -0.8660
usemtl Material.006
s off
f 6/1/1 7/2/1 5/3/1
f 1/4/2 7/2/2 3/5/2
f 2/6/3 8/7/3 6/1/3
f 2/6/4 10/8/4 4/9/4
f 6/1/1 8/7/1 7/2/1
f 1/4/2 5/3/2 7/2/2
f 2/6/3 4/9/3 8/7/3
f 2/6/4 9/10/4 10/8/4
