# Blender v2.82 (sub 7) OBJ File: 'areana three.blend'
# www.blender.org
mtllib edge.mtl
o Cube.003
v -20.000000 -3.661904 10.280357
v -20.000000 0.045822 10.280357
v -20.000000 -3.661904 4.171438
v -20.000000 0.045822 4.171438
v -12.000000 -3.661904 10.280357
v -12.000000 0.045822 10.280357
v -12.000000 -3.661904 4.171438
v -12.000000 0.045822 4.171438
vt 0.033689 0.648587
vt 0.014078 0.962369
vt 0.014078 0.648587
vt 0.033689 0.962369
vt 0.347471 0.981980
vt 0.033689 0.981980
vt 0.347471 0.962369
vt 0.367083 0.648587
vt 0.367083 0.962369
vt 0.347471 0.648587
vt 0.033689 0.628976
vt 0.347471 0.628976
vn -1.0000 0.0000 0.0000
vn 0.0000 0.0000 -1.0000
vn 1.0000 0.0000 0.0000
vn 0.0000 0.0000 1.0000
vn 0.0000 1.0000 0.0000
usemtl room2
s off
f 2/1/1 3/2/1 1/3/1
f 4/4/2 7/5/2 3/6/2
f 8/7/3 5/8/3 7/9/3
f 6/10/4 1/11/4 5/12/4
f 4/4/5 6/10/5 8/7/5
f 2/1/1 4/4/1 3/2/1
f 4/4/2 8/7/2 7/5/2
f 8/7/3 6/10/3 5/8/3
f 6/10/4 2/1/4 1/11/4
f 4/4/5 2/1/5 6/10/5
