# Blender v2.80 (sub 75) OBJ File: 'GDW_1_Y2 - Floor Tile.blend'
# www.blender.org
mtllib GDW_1_Y2 - Floor Tile.mtl
o Floor_Cube
v -0.244783 0.000181 0.232143
v -0.239383 0.058654 0.227022
v -0.244783 0.000181 -0.232143
v -0.239383 0.058654 -0.227022
v 0.244783 0.000181 0.232143
v 0.239383 0.058654 0.227022
v 0.244783 0.000181 -0.232143
v 0.239383 0.058654 -0.227022
v -0.241083 0.044309 0.232843
v -0.241083 0.054743 0.232843
v -0.241083 0.054743 -0.232843
v -0.241083 0.044309 -0.232843
v 0.241083 0.054743 -0.232843
v 0.241083 0.044309 -0.232843
v 0.241083 0.054743 0.232843
v 0.241083 0.044309 0.232843
v -0.244709 0.023776 0.236344
v -0.242896 0.035497 0.234594
v -0.242896 0.035497 -0.234594
v -0.244709 0.023776 -0.236344
v 0.242896 0.035497 -0.234594
v 0.244709 0.023776 -0.236344
v 0.242896 0.035497 0.234594
v 0.244709 0.023776 0.236344
v -0.246522 0.014884 -0.238095
v -0.246522 0.007828 -0.238095
v 0.246522 0.014884 -0.238095
v 0.246522 0.007828 -0.238095
v 0.246522 0.014884 0.238095
v 0.246522 0.007828 0.238095
v -0.246522 0.007828 0.238095
v -0.246522 0.014884 0.238095
v -0.246224 0.001171 -0.237076
v -0.237160 0.000000 -0.237076
v 0.231928 0.058834 -0.231846
v 0.246224 0.001171 -0.237076
v 0.246224 0.001171 0.237076
v 0.237160 0.000000 0.237076
v -0.231928 0.058834 0.231846
v 0.237160 0.000000 -0.237076
v -0.231928 0.058834 -0.231846
v -0.237160 0.000000 0.237076
v 0.231928 0.058834 0.231846
v -0.232149 0.044309 -0.243030
v -0.232149 0.054743 -0.243030
v 0.232149 0.044309 0.243030
v 0.232149 0.054743 0.243030
v -0.232149 0.044309 0.243030
v -0.232149 0.054743 0.243030
v 0.232149 0.044309 -0.243030
v 0.232149 0.054743 -0.243030
v 0.235640 0.023776 0.246684
v 0.233894 0.035497 0.244857
v -0.235640 0.023776 -0.246684
v -0.233894 0.035497 -0.244857
v 0.235640 0.023776 -0.246684
v 0.233894 0.035497 -0.244857
v -0.235640 0.023776 0.246684
v -0.233894 0.035497 0.244857
v -0.246224 0.001171 0.237076
v 0.237386 0.007828 0.248512
v 0.237386 0.014884 0.248512
v -0.237386 0.007828 -0.248512
v -0.237386 0.014884 -0.248512
v 0.237386 0.007828 -0.248512
v 0.237386 0.014884 -0.248512
v -0.237386 0.007828 0.248512
v -0.237386 0.014884 0.248512
v 0.237329 0.001150 0.247079
v -0.237329 0.001150 -0.247079
v 0.237329 0.001150 -0.247079
v -0.237329 0.001150 0.247079
vt 0.033746 0.451856
vt 0.253305 0.301812
vt 0.068331 0.486495
vt 0.750541 0.797243
vt 0.530764 0.947530
vt 0.715904 0.762572
vt 0.707037 0.300795
vt 0.694788 0.323988
vt 0.685464 0.315881
vt 0.247127 0.946280
vt 0.038116 0.804666
vt 0.070496 0.771643
vt 0.945778 0.041549
vt 0.958089 0.018100
vt 0.967504 0.026272
vt 0.944835 0.295688
vt 0.958838 0.317098
vt 0.941738 0.300435
vt 0.620284 0.662681
vt 0.407546 0.828367
vt 0.596862 0.639236
vt 0.096854 0.516454
vt 0.322776 0.368610
vt 0.135020 0.556071
vt 0.529942 0.297543
vt 0.507343 0.330201
vt 0.502199 0.325064
vt 0.360948 0.830270
vt 0.161948 0.677650
vt 0.185746 0.656533
vt 0.133888 0.705830
vt 0.275096 0.918959
vt 0.097597 0.743338
vt 0.317440 0.887582
vt 0.340069 0.854189
vt 0.345573 0.859328
vt 0.128613 0.700649
vt 0.687338 0.732586
vt 0.461191 0.880672
vt 0.649115 0.692933
vt 0.252203 0.951413
vt 0.280195 0.924143
vt 0.422340 0.419404
vt 0.622569 0.570517
vt 0.598765 0.591862
vt 0.650447 0.542072
vt 0.686428 0.504232
vt 0.500806 0.918934
vt 0.430968 0.851811
vt 0.718510 0.480660
vt 0.713280 0.475680
vt 0.283219 0.330382
vt 0.655772 0.547214
vt 0.163808 0.586295
vt 0.352955 0.397445
vt 0.065312 0.766617
vt 0.967504 0.308680
vt 0.708080 0.047628
vt 0.694171 0.026460
vt 0.711128 0.042982
vt 0.685587 0.034804
vt 0.401729 0.451251
vt 0.566594 0.608683
vt 0.566168 0.613713
vt 0.710507 0.305272
vt 0.442978 0.395476
vt 0.312228 0.882364
vt 0.942252 0.036970
vt 0.377162 0.798434
vt 0.217852 0.635204
vt 0.382119 0.797950
vt 0.745365 0.442362
vt 0.032986 0.799642
vt 0.562393 0.264524
vt 0.535065 0.302630
vt 0.214371 0.979050
vt 0.092354 0.738282
vt 0.691718 0.509243
vt 0.211752 0.640610
vt 0.376342 0.420869
vt 0.187195 0.609719
vt 0.470548 0.367111
vt 0.465295 0.361944
vt 0.406953 0.445310
vt 0.398464 0.443071
vt 0.156752 0.672173
vt 0.385391 0.806145
vt 0.217358 0.640306
vt 0.209362 0.631876
vt 0.627824 0.575976
vt 0.572164 0.608328
vt 0.406751 0.450693
vt 0.574663 0.617060
vt 0.376904 0.803788
vt 0.367243 0.834981
vt 0.416100 0.414775
vt 0.437453 0.390398
vt 0.218720 0.267172
vt 0.565401 0.982201
vt 0.750541 0.447340
vt 0.567524 0.269564
vt 0.219457 0.984136
vt 0.180967 0.650301
vt 0.603621 0.598153
vn 0.3429 0.5052 0.7919
vn -0.3966 0.1353 0.9080
vn 0.3966 0.1353 0.9080
vn -0.3429 0.5052 -0.7919
vn 0.3966 0.1353 -0.9080
vn -0.3966 0.1353 -0.9080
vn 0.1228 0.9682 -0.2178
vn 0.8293 0.4120 -0.3775
vn 0.3429 0.5052 -0.7919
vn 0.9326 0.1303 -0.3366
vn 0.8293 0.4120 0.3775
vn 0.9326 0.1303 0.3366
vn -0.1228 0.9682 0.2178
vn -0.8293 0.4120 0.3775
vn -0.3429 0.5052 0.7919
vn 0.1228 0.9682 0.2178
vn 0.5432 0.8308 0.1210
vn -0.4186 0.1273 -0.8992
vn 0.4023 -0.0963 -0.9104
vn -0.4023 -0.0963 -0.9104
vn 0.4013 0.2287 0.8869
vn -0.3963 0.2304 0.8887
vn 0.3963 0.2304 0.8887
vn -0.9124 0.2226 0.3435
vn -0.4013 0.2287 0.8869
vn 0.9294 -0.0501 -0.3656
vn 0.9248 0.1245 0.3594
vn 0.9294 -0.0501 0.3656
vn 0.9141 0.2235 0.3384
vn 0.9124 0.2226 -0.3435
vn 0.9124 0.2226 0.3435
vn 0.3963 0.2304 -0.8887
vn 0.9248 0.1245 -0.3594
vn 0.4186 0.1273 -0.8992
vn -0.4013 0.2287 -0.8869
vn -0.3963 0.2304 -0.8887
vn 0.4013 0.2287 -0.8869
vn -0.9294 -0.0501 0.3656
vn -0.9248 0.1245 -0.3594
vn -0.9294 -0.0501 -0.3656
vn -0.9141 0.2235 -0.3384
vn -0.9124 0.2226 -0.3435
vn -0.9326 0.1303 -0.3366
vn 0.4186 0.1273 0.8992
vn -0.4186 0.1273 0.8992
vn -0.1228 0.9682 -0.2178
vn -0.8293 0.4120 -0.3775
vn -0.5432 0.8308 -0.1210
vn -0.0469 -0.9963 0.0712
vn -0.3002 -0.9532 -0.0343
vn -0.0469 -0.9963 -0.0712
vn 0.5432 0.8308 -0.1210
vn -0.9248 0.1245 0.3594
vn 0.9141 0.2235 -0.3384
vn -0.5432 0.8308 0.1210
vn 0.3002 -0.9532 -0.0343
vn 0.0469 -0.9963 0.0712
vn 0.0469 -0.9963 -0.0712
vn -0.9326 0.1303 0.3366
vn 0.7462 -0.5992 0.2900
vn -0.4023 -0.0963 0.9104
vn 0.4023 -0.0963 0.9104
vn -0.9141 0.2235 0.3384
vn -0.7462 -0.5992 0.2900
vn -0.3181 -0.6623 0.6783
vn 0.3181 -0.6623 -0.6783
vn 0.3002 -0.9532 0.0343
vn 0.3181 -0.6623 0.6783
vn -0.7462 -0.5992 -0.2900
vn -0.3002 -0.9532 0.0343
vn -0.3181 -0.6623 -0.6783
vn 0.7462 -0.5992 -0.2900
usemtl Floor
s 1
f 47/1/1 48/2/2 46/3/3
f 45/4/4 50/5/5 44/6/6
f 35/7/7 13/8/8 51/9/9
f 14/10/10 15/11/11 16/12/12
f 39/13/13 10/14/14 49/15/15
f 43/16/16 15/17/11 6/18/17
f 64/19/18 65/20/19 63/21/20
f 53/22/21 58/23/22 52/24/23
f 48/25/2 18/26/24 59/27/25
f 28/28/26 29/29/27 30/30/28
f 24/31/29 21/32/30 23/33/31
f 56/34/32 27/35/33 66/36/34
f 52/37/23 29/29/27 24/31/29
f 55/38/35 56/39/32 54/40/36
f 50/41/5 21/32/30 57/42/37
f 31/43/38 25/44/39 26/45/40
f 20/46/41 18/26/24 19/47/42
f 55/38/35 50/5/5 57/48/37
f 64/19/18 56/39/32 66/49/34
f 44/50/6 19/47/42 12/51/43
f 53/22/21 48/2/2 59/52/25
f 54/53/36 25/44/39 20/46/41
f 62/54/44 58/23/22 68/55/45
f 46/56/3 23/33/31 16/12/12
f 47/57/1 39/13/13 49/15/15
f 41/58/46 11/59/47 4/60/48
f 45/61/4 35/7/7 51/9/9
f 42/62/49 3/63/50 34/64/51
f 43/16/16 8/65/52 35/7/7
f 18/26/24 12/51/43 19/47/42
f 32/66/53 20/46/41 25/44/39
f 21/32/30 16/12/12 23/33/31
f 29/29/27 22/67/54 24/31/29
f 41/58/46 2/68/55 39/13/13
f 41/58/46 43/16/16 35/7/7
f 7/69/56 38/70/57 40/71/58
f 40/71/58 42/62/49 34/64/51
f 13/8/8 6/18/17 15/17/11
f 10/14/14 4/60/48 11/59/47
f 11/72/47 44/50/6 12/51/43
f 47/73/1 16/12/12 15/11/11
f 49/74/15 9/75/59 48/25/2
f 50/41/5 13/76/8 14/10/10
f 53/77/21 24/31/29 23/33/31
f 55/78/35 20/46/41 19/47/42
f 57/42/37 22/67/54 56/34/32
f 37/79/60 28/28/26 30/30/28
f 62/54/44 67/80/61 61/81/62
f 59/27/25 17/82/63 58/83/22
f 26/45/40 60/84/64 31/43/38
f 72/85/65 61/81/62 67/80/61
f 62/86/44 30/30/28 29/29/27
f 71/87/66 63/21/20 65/20/19
f 37/79/60 38/70/57 5/88/67
f 30/30/28 69/89/68 37/79/60
f 64/90/18 26/45/40 25/44/39
f 33/91/69 1/92/70 60/84/64
f 33/91/69 34/64/51 3/63/50
f 26/45/40 70/93/71 33/91/69
f 37/79/60 7/69/56 36/94/72
f 70/93/71 40/71/58 34/64/51
f 71/87/66 28/28/26 36/94/72
f 40/71/58 36/94/72 7/69/56
f 66/36/34 28/28/26 65/95/19
f 69/89/68 42/62/49 38/70/57
f 72/85/65 31/43/38 60/84/64
f 42/62/49 60/84/64 1/92/70
f 67/96/61 32/66/53 31/43/38
f 58/83/22 32/66/53 68/97/45
f 9/75/59 11/72/47 12/51/43
f 47/1/1 49/98/15 48/2/2
f 45/4/4 51/99/9 50/5/5
f 35/7/7 8/65/52 13/8/8
f 14/10/10 13/76/8 15/11/11
f 39/13/13 2/68/55 10/14/14
f 43/16/16 47/57/1 15/17/11
f 64/19/18 66/49/34 65/20/19
f 53/22/21 59/52/25 58/23/22
f 48/25/2 9/75/59 18/26/24
f 28/28/26 27/35/33 29/29/27
f 24/31/29 22/67/54 21/32/30
f 56/34/32 22/67/54 27/35/33
f 52/37/23 62/86/44 29/29/27
f 55/38/35 57/48/37 56/39/32
f 50/41/5 14/10/10 21/32/30
f 31/43/38 32/66/53 25/44/39
f 20/46/41 17/82/63 18/26/24
f 55/38/35 44/6/6 50/5/5
f 64/19/18 54/40/36 56/39/32
f 44/50/6 55/78/35 19/47/42
f 53/22/21 46/3/3 48/2/2
f 54/53/36 64/90/18 25/44/39
f 62/54/44 52/24/23 58/23/22
f 46/56/3 53/77/21 23/33/31
f 47/57/1 43/16/16 39/13/13
f 41/58/46 45/61/4 11/59/47
f 45/61/4 41/58/46 35/7/7
f 42/62/49 1/92/70 3/63/50
f 43/16/16 6/18/17 8/65/52
f 18/26/24 9/75/59 12/51/43
f 32/66/53 17/82/63 20/46/41
f 21/32/30 14/10/10 16/12/12
f 29/29/27 27/35/33 22/67/54
f 41/58/46 4/60/48 2/68/55
f 41/58/46 39/13/13 43/16/16
f 7/69/56 5/88/67 38/70/57
f 40/71/58 38/70/57 42/62/49
f 13/8/8 8/65/52 6/18/17
f 10/14/14 2/68/55 4/60/48
f 11/72/47 45/100/4 44/50/6
f 47/73/1 46/56/3 16/12/12
f 49/74/15 10/101/14 9/75/59
f 50/41/5 51/102/9 13/76/8
f 53/77/21 52/37/23 24/31/29
f 55/78/35 54/53/36 20/46/41
f 57/42/37 21/32/30 22/67/54
f 37/79/60 36/94/72 28/28/26
f 62/54/44 68/55/45 67/80/61
f 59/27/25 18/26/24 17/82/63
f 26/45/40 33/91/69 60/84/64
f 72/85/65 69/89/68 61/81/62
f 62/86/44 61/103/62 30/30/28
f 71/87/66 70/93/71 63/21/20
f 37/79/60 69/89/68 38/70/57
f 30/30/28 61/103/62 69/89/68
f 64/90/18 63/104/20 26/45/40
f 33/91/69 3/63/50 1/92/70
f 33/91/69 70/93/71 34/64/51
f 26/45/40 63/104/20 70/93/71
f 37/79/60 5/88/67 7/69/56
f 70/93/71 71/87/66 40/71/58
f 71/87/66 65/95/19 28/28/26
f 40/71/58 71/87/66 36/94/72
f 66/36/34 27/35/33 28/28/26
f 69/89/68 72/85/65 42/62/49
f 72/85/65 67/96/61 31/43/38
f 42/62/49 72/85/65 60/84/64
f 67/96/61 68/97/45 32/66/53
f 58/83/22 17/82/63 32/66/53
f 9/75/59 10/101/14 11/72/47
