# Blender v2.80 (sub 75) OBJ File: ''
# www.blender.org
mtllib tent.mtl
o Tent_Cylinder.007
v -0.028339 4.075251 -3.118427
v 2.658044 3.863632 -1.567444
v -0.028339 3.863632 -3.118427
v 2.658044 4.075251 -1.567444
v 2.658044 3.863631 1.534523
v 2.658044 4.075250 1.534523
v -0.028339 3.863631 3.085508
v -0.028339 4.075250 3.085508
v -2.714723 3.863631 1.534523
v -0.169795 5.687521 0.065209
v -0.028339 5.687521 0.146878
v 0.113115 5.687521 0.065209
v -2.714723 4.075250 1.534523
v -2.714723 3.863632 -1.567444
v -2.714723 4.075251 -1.567444
v 0.113115 5.687521 -0.098129
v -0.028339 5.687521 -0.179798
v -0.169795 5.687521 -0.098129
v -1.956146 0.000001 -1.332934
v -1.956146 4.197697 -1.615755
v -1.956146 4.197697 -1.332933
v -1.956146 0.000001 -1.615756
v -1.673326 4.197697 -1.615755
v -1.673326 0.000001 -1.615756
v -1.673326 4.197697 -1.332933
v -1.673326 0.000001 -1.332934
v -1.956146 0.000000 1.634275
v -1.956146 4.197697 1.351454
v -1.956146 4.197696 1.634276
v -1.956146 0.000000 1.351453
v -1.673326 4.197697 1.351454
v -1.673326 0.000000 1.351453
v -1.673326 4.197696 1.634276
v -1.673326 0.000000 1.634275
v 1.705208 0.000001 -1.332934
v 1.705208 4.197697 -1.615755
v 1.705208 4.197697 -1.332933
v 1.705208 0.000001 -1.615756
v 1.988029 4.197697 -1.615755
v 1.988029 0.000001 -1.615756
v 1.988029 4.197697 -1.332933
v 1.988029 0.000001 -1.332934
v 1.705208 0.000000 1.634275
v 1.705208 4.197697 1.351454
v 1.705208 4.197696 1.634276
v 1.705208 0.000000 1.351453
v 1.988029 4.197697 1.351454
v 1.988029 0.000000 1.351453
v 1.988029 4.197696 1.634276
v 1.988029 0.000000 1.634275
vt 0.020615 0.298637
vt 0.116857 0.250516
vt 0.116857 0.298637
vt 0.016154 0.425026
vt 0.112397 0.376904
vt 0.112397 0.425026
vt 0.118087 0.186322
vt 0.021845 0.234443
vt 0.021845 0.186322
vt 0.022681 0.170394
vt 0.118923 0.122273
vt 0.118923 0.170394
vt 0.051093 0.065112
vt 0.051093 0.037373
vt 0.075116 0.023505
vt 0.114857 0.437409
vt 0.018614 0.485530
vt 0.018614 0.437409
vt 0.114397 0.318401
vt 0.018154 0.366522
vt 0.018154 0.318401
vt 0.335761 0.806342
vt 0.227973 0.747122
vt 0.335761 0.776345
vt 0.331379 0.904570
vt 0.223591 0.987860
vt 0.223591 0.875346
vt 0.108205 0.702765
vt 0.215993 0.619474
vt 0.215993 0.731988
vt 0.106744 0.802453
vt 0.214533 0.861673
vt 0.106744 0.832449
vt 0.103823 0.927756
vt 0.211611 0.986976
vt 0.103823 0.957753
vt 0.335761 0.678117
vt 0.227973 0.618897
vt 0.335761 0.648121
vt 0.066047 0.501724
vt 0.081397 0.970263
vt 0.066047 0.970333
vt 0.019996 0.501935
vt 0.035346 0.970474
vt 0.019996 0.970544
vt 0.035346 0.501865
vt 0.050696 0.970403
vt 0.050696 0.501795
vt 0.035346 0.970473
vt 0.019995 0.501935
vt 0.035346 0.501865
vt 0.081397 0.970263
vt 0.066047 0.501724
vt 0.081397 0.501654
vt 0.066047 0.970333
vt 0.050696 0.501795
vt 0.050696 0.970403
vt 0.066047 0.501724
vt 0.081397 0.970263
vt 0.066047 0.970333
vt 0.019996 0.501935
vt 0.035346 0.970474
vt 0.019996 0.970544
vt 0.035346 0.501865
vt 0.050696 0.970403
vt 0.050696 0.501795
vt 0.035346 0.970473
vt 0.019996 0.501935
vt 0.035346 0.501865
vt 0.081397 0.970263
vt 0.066047 0.501724
vt 0.081397 0.501654
vt 0.066047 0.970333
vt 0.050696 0.501795
vt 0.050696 0.970403
vt 0.020615 0.250516
vt 0.016154 0.376904
vt 0.118087 0.234443
vt 0.022681 0.122273
vt 0.099138 0.037373
vt 0.099138 0.065112
vt 0.075116 0.078980
vt 0.114857 0.485530
vt 0.114397 0.366522
vt 0.227973 0.859636
vt 0.331379 0.934566
vt 0.108205 0.672768
vt 0.214533 0.749159
vt 0.211611 0.874462
vt 0.227973 0.731412
vt 0.081397 0.501654
vt 0.019996 0.970544
vt 0.081397 0.501654
vt 0.019996 0.970544
vn 0.5000 0.0000 -0.8660
vn 1.0000 0.0000 0.0000
vn 0.5000 0.0000 0.8660
vn -0.5000 -0.0000 0.8660
vn 0.0000 1.0000 -0.0000
vn -1.0000 -0.0000 0.0000
vn -0.5000 0.0000 -0.8660
vn 0.2676 0.8447 -0.4635
vn 0.5352 0.8447 0.0000
vn 0.2676 0.8447 0.4635
vn -0.2676 0.8447 0.4635
vn -0.5352 0.8447 0.0000
vn -0.2676 0.8447 -0.4635
vn 0.0000 -0.0000 1.0000
vn 0.0000 0.0000 -1.0000
usemtl room3.001
s 1
f 1/1/1 2/2/1 3/3/1
f 4/4/2 5/5/2 2/6/2
f 6/7/3 7/8/3 5/9/3
f 8/10/4 9/11/4 7/12/4
f 10/13/5 11/14/5 12/15/5
f 13/16/6 14/17/6 9/18/6
f 15/19/7 3/20/7 14/21/7
f 16/22/8 1/23/8 17/24/8
f 16/25/9 6/26/9 4/27/9
f 12/28/10 8/29/10 6/30/10
f 10/31/11 8/32/11 11/33/11
f 18/34/12 13/35/12 10/36/12
f 17/37/13 15/38/13 18/39/13
f 19/40/2 20/41/2 21/42/2
f 22/43/14 23/44/14 20/45/14
f 24/46/6 25/47/6 23/44/6
f 26/48/15 21/42/15 25/47/15
f 27/49/2 28/50/2 29/51/2
f 30/52/14 31/53/14 28/54/14
f 32/55/6 33/56/6 31/53/6
f 34/57/15 29/51/15 33/56/15
f 35/58/2 36/59/2 37/60/2
f 38/61/14 39/62/14 36/63/14
f 40/64/6 41/65/6 39/62/6
f 42/66/15 37/60/15 41/65/15
f 43/67/2 44/68/2 45/69/2
f 46/70/14 47/71/14 44/72/14
f 48/73/6 49/74/6 47/71/6
f 50/75/15 45/69/15 49/74/15
f 1/1/1 4/76/1 2/2/1
f 4/4/2 6/77/2 5/5/2
f 6/7/3 8/78/3 7/8/3
f 8/10/4 13/79/4 9/11/4
f 12/15/5 16/80/5 10/13/5
f 16/80/5 17/81/5 10/13/5
f 17/81/5 18/82/5 10/13/5
f 13/16/6 15/83/6 14/17/6
f 15/19/7 1/84/7 3/20/7
f 16/22/8 4/85/8 1/23/8
f 16/25/9 12/86/9 6/26/9
f 12/28/10 11/87/10 8/29/10
f 10/31/11 13/88/11 8/32/11
f 18/34/12 15/89/12 13/35/12
f 17/37/13 1/90/13 15/38/13
f 19/40/2 22/91/2 20/41/2
f 22/43/14 24/46/14 23/44/14
f 24/46/6 26/48/6 25/47/6
f 26/48/15 19/40/15 21/42/15
f 27/49/2 30/92/2 28/50/2
f 30/52/14 32/55/14 31/53/14
f 32/55/6 34/57/6 33/56/6
f 34/57/15 27/49/15 29/51/15
f 35/58/2 38/93/2 36/59/2
f 38/61/14 40/64/14 39/62/14
f 40/64/6 42/66/6 41/65/6
f 42/66/15 35/58/15 37/60/15
f 43/67/2 46/94/2 44/68/2
f 46/70/14 48/73/14 47/71/14
f 48/73/6 50/75/6 49/74/6
f 50/75/15 43/67/15 45/69/15
